FrauncesItalic-9ptS000Black.ufo
<glyph name="exclam" format="2">
  <advance width="789"/>
  <unicode hex="0021"/>
  <outline>
    <contour>
      <point x="655" y="1528" type="curve" smooth="yes"/>
      <point x="482" y="1528"/>
      <point x="382" y="1448"/>
      <point x="346" y="1306" type="curve" smooth="yes"/>
      <point x="337" y="1270"/>
      <point x="332" y="1218"/>
      <point x="330" y="1169" type="curve" smooth="yes"/>
      <point x="314" y="569" type="line" smooth="yes"/>
      <point x="313" y="516"/>
      <point x="333" y="493"/>
      <point x="380" y="493" type="curve" smooth="yes"/>
      <point x="428" y="493"/>
      <point x="462" y="516"/>
      <point x="492" y="568" type="curve" smooth="yes"/>
      <point x="794" y="1164" type="line" smooth="yes"/>
      <point x="823" y="1223"/>
      <point x="848" y="1289"/>
      <point x="855" y="1331" type="curve" smooth="yes"/>
      <point x="883" y="1452"/>
      <point x="821" y="1528"/>
    </contour>
    <component base="period" xOffset="23"/>
  </outline>
</glyph>
<glyph name="numbersign" format="2">
  <advance width="1380"/>
  <unicode hex="0023"/>
  <outline>
    <contour>
      <point x="609" y="687" type="curve" smooth="yes"/>
      <point x="693" y="843"/>
      <point x="879" y="1168"/>
      <point x="960" y="1319" type="curve" smooth="yes"/>
      <point x="986" y="1364"/>
      <point x="980" y="1396"/>
      <point x="935" y="1408" type="curve" smooth="yes"/>
      <point x="892" y="1419"/>
      <point x="854" y="1399"/>
      <point x="828" y="1355" type="curve" smooth="yes"/>
      <point x="752" y="1213"/>
      <point x="600" y="872"/>
      <point x="513" y="712" type="curve" smooth="yes"/>
      <point x="425" y="550"/>
      <point x="222" y="225"/>
      <point x="144" y="81" type="curve" smooth="yes"/>
      <point x="118" y="36"/>
      <point x="125" y="5"/>
      <point x="169" y="-8" type="curve" smooth="yes"/>
      <point x="213" y="-19"/>
      <point x="249" y="1"/>
      <point x="276" y="46" type="curve" smooth="yes"/>
      <point x="357" y="199"/>
      <point x="524" y="530"/>
    </contour>
    <contour>
      <point x="852" y="891" type="curve" smooth="yes"/>
      <point x="990" y="891"/>
      <point x="1256" y="875"/>
      <point x="1384" y="874" type="curve" smooth="yes"/>
      <point x="1435" y="875"/>
      <point x="1471" y="899"/>
      <point x="1486" y="944" type="curve" smooth="yes"/>
      <point x="1497" y="988"/>
      <point x="1474" y="1011"/>
      <point x="1425" y="1011" type="curve" smooth="yes"/>
      <point x="1301" y="1009"/>
      <point x="1023" y="989"/>
      <point x="881" y="989" type="curve" smooth="yes"/>
      <point x="735" y="987"/>
      <point x="464" y="1017"/>
      <point x="338" y="1016" type="curve" smooth="yes"/>
      <point x="288" y="1015"/>
      <point x="251" y="993"/>
      <point x="237" y="947" type="curve" smooth="yes"/>
      <point x="225" y="903"/>
      <point x="247" y="879"/>
      <point x="299" y="880" type="curve" smooth="yes"/>
      <point x="430" y="879"/>
      <point x="712" y="889"/>
    </contour>
    <contour>
      <point x="1012" y="687" type="curve" smooth="yes"/>
      <point x="1095" y="842"/>
      <point x="1282" y="1168"/>
      <point x="1362" y="1318" type="curve" smooth="yes"/>
      <point x="1389" y="1363"/>
      <point x="1383" y="1396"/>
      <point x="1338" y="1408" type="curve" smooth="yes"/>
      <point x="1295" y="1419"/>
      <point x="1258" y="1399"/>
      <point x="1231" y="1354" type="curve" smooth="yes"/>
      <point x="1156" y="1213"/>
      <point x="1003" y="873"/>
      <point x="916" y="712" type="curve" smooth="yes"/>
      <point x="829" y="550"/>
      <point x="624" y="225"/>
      <point x="547" y="81" type="curve" smooth="yes"/>
      <point x="521" y="36"/>
      <point x="528" y="5"/>
      <point x="572" y="-8" type="curve" smooth="yes"/>
      <point x="616" y="-19"/>
      <point x="652" y="1"/>
      <point x="680" y="46" type="curve" smooth="yes"/>
      <point x="760" y="199"/>
      <point x="928" y="530"/>
    </contour>
    <contour>
      <point x="664" y="442" type="curve" smooth="yes"/>
      <point x="802" y="442"/>
      <point x="1068" y="427"/>
      <point x="1196" y="425" type="curve" smooth="yes"/>
      <point x="1247" y="427"/>
      <point x="1284" y="450"/>
      <point x="1299" y="495" type="curve" smooth="yes"/>
      <point x="1310" y="539"/>
      <point x="1286" y="562"/>
      <point x="1237" y="562" type="curve" smooth="yes"/>
      <point x="1114" y="560"/>
      <point x="835" y="540"/>
      <point x="694" y="540" type="curve" smooth="yes"/>
      <point x="548" y="539"/>
      <point x="277" y="568"/>
      <point x="151" y="567" type="curve" smooth="yes"/>
      <point x="100" y="567"/>
      <point x="63" y="545"/>
      <point x="50" y="499" type="curve" smooth="yes"/>
      <point x="38" y="455"/>
      <point x="60" y="431"/>
      <point x="111" y="431" type="curve" smooth="yes"/>
      <point x="242" y="431"/>
      <point x="523" y="441"/>
    </contour>
  </outline>
</glyph>
<glyph name="dollar" format="2">
  <advance width="1237"/>
  <unicode hex="0024"/>
  <outline>
    <contour>
      <point x="493" y="4" type="curve" smooth="yes"/>
      <point x="830" y="4"/>
      <point x="1121" y="162"/>
      <point x="1136" y="424" type="curve" smooth="yes"/>
      <point x="1149" y="559"/>
      <point x="1082" y="698"/>
      <point x="822" y="860" type="curve" smooth="yes"/>
      <point x="639" y="975"/>
      <point x="582" y="1043"/>
      <point x="591" y="1146" type="curve" smooth="yes"/>
      <point x="600" y="1264"/>
      <point x="713" y="1324"/>
      <point x="827" y="1324" type="curve" smooth="yes"/>
      <point x="948" y="1324"/>
      <point x="990" y="1264"/>
      <point x="972" y="1160" type="curve" smooth="yes"/>
      <point x="952" y="1062" type="line" smooth="yes"/>
      <point x="930" y="951"/>
      <point x="997" y="889"/>
      <point x="1097" y="888" type="curve" smooth="yes"/>
      <point x="1209" y="888"/>
      <point x="1291" y="978"/>
      <point x="1291" y="1092" type="curve" smooth="yes"/>
      <point x="1291" y="1243"/>
      <point x="1155" y="1394"/>
      <point x="827" y="1394" type="curve" smooth="yes"/>
      <point x="469" y="1394"/>
      <point x="238" y="1193"/>
      <point x="222" y="966" type="curve" smooth="yes"/>
      <point x="206" y="802"/>
      <point x="269" y="669"/>
      <point x="504" y="528" type="curve" smooth="yes"/>
      <point x="686" y="419"/>
      <point x="749" y="347"/>
      <point x="741" y="251" type="curve" smooth="yes"/>
      <point x="733" y="143"/>
      <point x="637" y="78"/>
      <point x="504" y="78" type="curve" smooth="yes"/>
      <point x="365" y="78"/>
      <point x="324" y="142"/>
      <point x="341" y="236" type="curve" smooth="yes"/>
      <point x="354" y="327" type="line" smooth="yes"/>
      <point x="376" y="433"/>
      <point x="320" y="501"/>
      <point x="225" y="501" type="curve" smooth="yes"/>
      <point x="108" y="501"/>
      <point x="18" y="409"/>
      <point x="17" y="279" type="curve" smooth="yes"/>
      <point x="16" y="121"/>
      <point x="163" y="4"/>
    </contour>
    <contour>
      <point x="733" y="768" type="line"/>
      <point x="839" y="1143"/>
      <point x="934" y="1365"/>
      <point x="974" y="1519" type="curve" smooth="yes"/>
      <point x="991" y="1578"/>
      <point x="965" y="1608"/>
      <point x="921" y="1608" type="curve" smooth="yes"/>
      <point x="873" y="1608"/>
      <point x="833" y="1577"/>
      <point x="817" y="1521" type="curve" smooth="yes"/>
      <point x="774" y="1352"/>
      <point x="767" y="1138"/>
      <point x="661" y="768" type="curve"/>
    </contour>
    <contour>
      <point x="602" y="664" type="line"/>
      <point x="497" y="294"/>
      <point x="403" y="80"/>
      <point x="360" y="-87" type="curve" smooth="yes"/>
      <point x="343" y="-146"/>
      <point x="369" y="-176"/>
      <point x="413" y="-176" type="curve" smooth="yes"/>
      <point x="461" y="-176"/>
      <point x="501" y="-145"/>
      <point x="517" y="-89" type="curve" smooth="yes"/>
      <point x="558" y="67"/>
      <point x="566" y="290"/>
      <point x="674" y="664" type="curve"/>
    </contour>
  </outline>
</glyph>
<glyph name="parenleft" format="2">
  <advance width="777"/>
  <unicode hex="0028"/>
  <outline>
    <contour>
      <point x="193" y="626" type="curve" smooth="yes"/>
      <point x="75" y="191"/>
      <point x="216" y="-126"/>
      <point x="454" y="-238" type="curve" smooth="yes"/>
      <point x="516" y="-260"/>
      <point x="561" y="-257"/>
      <point x="583" y="-226" type="curve" smooth="yes"/>
      <point x="598" y="-205"/>
      <point x="588" y="-180"/>
      <point x="565" y="-142" type="curve" smooth="yes"/>
      <point x="468" y="33"/>
      <point x="445" y="312"/>
      <point x="528" y="626" type="curve" smooth="yes"/>
      <point x="611" y="939"/>
      <point x="782" y="1218"/>
      <point x="974" y="1393" type="curve" smooth="yes"/>
      <point x="1018" y="1432"/>
      <point x="1041" y="1456"/>
      <point x="1039" y="1477" type="curve" smooth="yes"/>
      <point x="1036" y="1508"/>
      <point x="992" y="1513"/>
      <point x="919" y="1489" type="curve" smooth="yes"/>
      <point x="622" y="1377"/>
      <point x="310" y="1061"/>
    </contour>
  </outline>
</glyph>
<glyph name="asterisk" format="2">
  <advance width="1250"/>
  <unicode hex="002A"/>
  <outline>
    <contour>
      <point x="766" y="991" type="line"/>
      <point x="818" y="1187"/>
      <point x="1021" y="1283"/>
      <point x="1059" y="1422" type="curve" smooth="yes"/>
      <point x="1084" y="1517"/>
      <point x="1024" y="1568"/>
      <point x="903" y="1568" type="curve" smooth="yes"/>
      <point x="773" y="1568"/>
      <point x="694" y="1517"/>
      <point x="668" y="1422" type="curve" smooth="yes"/>
      <point x="631" y="1284"/>
      <point x="779" y="1187"/>
      <point x="726" y="991" type="curve"/>
    </contour>
    <contour>
      <point x="744" y="1008" type="curve"/>
      <point x="747" y="973" type="line"/>
      <point x="950" y="1035"/>
      <point x="1065" y="900"/>
      <point x="1210" y="942" type="curve" smooth="yes"/>
      <point x="1307" y="972"/>
      <point x="1357" y="1055"/>
      <point x="1349" y="1168" type="curve" smooth="yes"/>
      <point x="1342" y="1289"/>
      <point x="1286" y="1334"/>
      <point x="1189" y="1305" type="curve" smooth="yes"/>
      <point x="1044" y="1262"/>
      <point x="948" y="1069"/>
    </contour>
    <contour>
      <point x="757" y="1008" type="line"/>
      <point x="585" y="1069"/>
      <point x="597" y="1262"/>
      <point x="475" y="1305" type="curve" smooth="yes"/>
      <point x="393" y="1334"/>
      <point x="307" y="1283"/>
      <point x="239" y="1169" type="curve" smooth="yes"/>
      <point x="166" y="1049"/>
      <point x="173" y="972"/>
      <point x="254" y="942" type="curve" smooth="yes"/>
      <point x="377" y="900"/>
      <point x="564" y="1035"/>
      <point x="734" y="973" type="curve"/>
    </contour>
    <contour>
      <point x="733" y="1001" type="line"/>
      <point x="574" y="842"/>
      <point x="379" y="865"/>
      <point x="265" y="753" type="curve" smooth="yes"/>
      <point x="190" y="676"/>
      <point x="197" y="594"/>
      <point x="276" y="523" type="curve" smooth="yes"/>
      <point x="360" y="449"/>
      <point x="444" y="452"/>
      <point x="519" y="529" type="curve" smooth="yes"/>
      <point x="633" y="641"/>
      <point x="600" y="820"/>
      <point x="758" y="979" type="curve"/>
    </contour>
    <contour>
      <point x="727" y="979" type="line"/>
      <point x="800" y="820"/>
      <point x="668" y="642"/>
      <point x="720" y="529" type="curve" smooth="yes"/>
      <point x="755" y="452"/>
      <point x="845" y="452"/>
      <point x="962" y="523" type="curve" smooth="yes"/>
      <point x="1087" y="598"/>
      <point x="1132" y="676"/>
      <point x="1097" y="753" type="curve" smooth="yes"/>
      <point x="1045" y="865"/>
      <point x="839" y="842"/>
      <point x="765" y="1001" type="curve"/>
    </contour>
  </outline>
</glyph>
<glyph name="plus" format="2">
  <advance width="1147"/>
  <unicode hex="002B"/>
  <outline>
    <contour>
      <point x="502" y="228" type="curve" smooth="yes"/>
      <point x="557" y="227"/>
      <point x="597" y="257"/>
      <point x="608" y="292" type="curve" smooth="yes"/>
      <point x="820" y="1075" type="line" smooth="yes"/>
      <point x="830" y="1110"/>
      <point x="809" y="1140"/>
      <point x="754" y="1141" type="curve" smooth="yes"/>
      <point x="699" y="1141"/>
      <point x="656" y="1112"/>
      <point x="646" y="1077" type="curve" smooth="yes"/>
      <point x="434" y="295" type="line" smooth="yes"/>
      <point x="423" y="259"/>
      <point x="447" y="228"/>
    </contour>
    <component base="minus" xOffset="-6" yOffset="4"/>
  </outline>
</glyph>
<glyph name="comma" format="2">
  <advance width="674"/>
  <unicode hex="002C"/>
  <outline>
    <contour>
      <point x="184" y="8" type="curve" smooth="yes"/>
      <point x="260" y="-4" type="line" smooth="yes"/>
      <point x="309" y="-12"/>
      <point x="324" y="-21"/>
      <point x="324" y="-48" type="curve" smooth="yes"/>
      <point x="324" y="-98"/>
      <point x="240" y="-212"/>
      <point x="40" y="-290" type="curve" smooth="yes"/>
      <point x="-26" y="-315"/>
      <point x="-46" y="-341"/>
      <point x="-30" y="-377" type="curve" smooth="yes"/>
      <point x="-15" y="-411"/>
      <point x="37" y="-421"/>
      <point x="126" y="-387" type="curve" smooth="yes"/>
      <point x="374" y="-288"/>
      <point x="543" y="-72"/>
      <point x="543" y="175" type="curve" smooth="yes"/>
      <point x="543" y="300"/>
      <point x="473" y="392"/>
      <point x="324" y="392" type="curve" smooth="yes"/>
      <point x="165" y="392"/>
      <point x="53" y="272"/>
      <point x="53" y="160" type="curve" smooth="yes"/>
      <point x="53" y="79"/>
      <point x="97" y="23"/>
    </contour>
  </outline>
</glyph>
<glyph name="hyphen" format="2">
  <advance width="761"/>
  <unicode hex="002D"/>
  <outline>
    <contour>
      <point x="680" y="673" type="curve" smooth="yes"/>
      <point x="204" y="673" type="line" smooth="yes"/>
      <point x="165" y="673"/>
      <point x="141" y="660"/>
      <point x="120" y="615" type="curve" smooth="yes"/>
      <point x="76" y="499" type="line" smooth="yes"/>
      <point x="52" y="452"/>
      <point x="67" y="429"/>
      <point x="115" y="429" type="curve" smooth="yes"/>
      <point x="589" y="429" type="line" smooth="yes"/>
      <point x="629" y="429"/>
      <point x="652" y="441"/>
      <point x="674" y="486" type="curve" smooth="yes"/>
      <point x="719" y="602" type="line" smooth="yes"/>
      <point x="742" y="649"/>
      <point x="728" y="673"/>
    </contour>
  </outline>
</glyph>
<glyph name="one" format="2">
  <advance width="945"/>
  <unicode hex="0031"/>
  <outline>
    <contour>
      <point x="342" y="1166" type="line" smooth="yes"/>
      <point x="285" y="1166"/>
      <point x="266" y="1197"/>
      <point x="280" y="1244" type="curve" smooth="yes"/>
      <point x="293" y="1289"/>
      <point x="329" y="1323"/>
      <point x="397" y="1323" type="curve" smooth="yes"/>
      <point x="493" y="1323" type="line" smooth="yes"/>
      <point x="647" y="1323"/>
      <point x="720" y="1354"/>
      <point x="802" y="1395" type="curve" smooth="yes"/>
      <point x="843" y="1412"/>
      <point x="869" y="1421"/>
      <point x="895" y="1421" type="curve" smooth="yes"/>
      <point x="948" y="1421"/>
      <point x="974" y="1395"/>
      <point x="958" y="1342" type="curve" smooth="yes"/>
      <point x="664" y="227" type="line" smooth="yes"/>
      <point x="651" y="184"/>
      <point x="653" y="160"/>
      <point x="693" y="151" type="curve" smooth="yes"/>
      <point x="773" y="135" type="line" smooth="yes"/>
      <point x="805" y="127"/>
      <point x="820" y="106"/>
      <point x="820" y="77" type="curve" smooth="yes"/>
      <point x="820" y="28"/>
      <point x="782" y="0"/>
      <point x="727" y="0" type="curve" smooth="yes"/>
      <point x="73" y="0" type="line" smooth="yes"/>
      <point x="16" y="0"/>
      <point x="-6" y="24"/>
      <point x="-6" y="66" type="curve" smooth="yes"/>
      <point x="-6" y="103"/>
      <point x="20" y="130"/>
      <point x="63" y="139" type="curve" smooth="yes"/>
      <point x="157" y="156" type="line" smooth="yes"/>
      <point x="189" y="163"/>
      <point x="210" y="186"/>
      <point x="224" y="232" type="curve" smooth="yes"/>
      <point x="446" y="1079" type="line" smooth="yes"/>
      <point x="467" y="1146"/>
      <point x="453" y="1166"/>
      <point x="408" y="1166" type="curve" smooth="yes"/>
    </contour>
  </outline>
</glyph>
<glyph name="four" format="2">
  <advance width="1259"/>
  <unicode hex="0034"/>
  <outline>
    <contour>
      <point x="639" y="599" type="curve" smooth="yes"/>
      <point x="540" y="232" type="line" smooth="yes"/>
      <point x="528" y="189"/>
      <point x="506" y="167"/>
      <point x="473" y="159" type="curve" smooth="yes"/>
      <point x="389" y="139" type="line" smooth="yes"/>
      <point x="344" y="128"/>
      <point x="312" y="104"/>
      <point x="301" y="68" type="curve" smooth="yes"/>
      <point x="288" y="25"/>
      <point x="308" y="0"/>
      <point x="367" y="0" type="curve" smooth="yes"/>
      <point x="986" y="0" type="line" smooth="yes"/>
      <point x="1046" y="0"/>
      <point x="1081" y="26"/>
      <point x="1094" y="69" type="curve" smooth="yes"/>
      <point x="1105" y="104"/>
      <point x="1086" y="123"/>
      <point x="1049" y="139" type="curve" smooth="yes"/>
      <point x="991" y="160" type="line" smooth="yes"/>
      <point x="963" y="170"/>
      <point x="951" y="188"/>
      <point x="963" y="227" type="curve" smooth="yes"/>
      <point x="1146" y="923" type="line" smooth="yes"/>
      <point x="1158" y="963"/>
      <point x="1144" y="980"/>
      <point x="1115" y="980" type="curve" smooth="yes"/>
      <point x="1091" y="980"/>
      <point x="1069" y="973"/>
      <point x="1023" y="941" type="curve" smooth="yes"/>
      <point x="702" y="684" type="line" smooth="yes"/>
      <point x="671" y="662"/>
      <point x="650" y="636"/>
    </contour>
    <contour>
      <point x="452" y="798" type="curve" smooth="yes"/>
      <point x="79" y="505" type="line" smooth="yes"/>
      <point x="19" y="467"/>
      <point x="-4" y="435"/>
      <point x="-12" y="408" type="curve" smooth="yes"/>
      <point x="-27" y="362"/>
      <point x="-6" y="330"/>
      <point x="50" y="330" type="curve" smooth="yes"/>
      <point x="1114" y="330" type="line" smooth="yes"/>
      <point x="1171" y="330"/>
      <point x="1204" y="353"/>
      <point x="1219" y="400" type="curve" smooth="yes"/>
      <point x="1231" y="443"/>
      <point x="1203" y="462"/>
      <point x="1155" y="462" type="curve" smooth="yes"/>
      <point x="126" y="462" type="line"/>
      <point x="136" y="405" type="line"/>
      <point x="824" y="936" type="line" smooth="yes"/>
      <point x="1032" y="1089"/>
      <point x="1096" y="1184"/>
      <point x="1113" y="1273" type="curve" smooth="yes"/>
      <point x="1141" y="1390"/>
      <point x="1068" y="1456"/>
      <point x="930" y="1456" type="curve" smooth="yes"/>
      <point x="753" y="1456"/>
      <point x="636" y="1366"/>
      <point x="599" y="1235" type="curve" smooth="yes"/>
      <point x="569" y="1124"/>
      <point x="631" y="1051"/>
      <point x="606" y="967" type="curve" smooth="yes"/>
      <point x="592" y="913"/>
      <point x="540" y="860"/>
    </contour>
  </outline>
</glyph>
<glyph name="five" format="2">
  <advance width="1213"/>
  <unicode hex="0035"/>
  <outline>
    <contour>
      <point x="9" y="278" type="curve" smooth="yes"/>
      <point x="-29" y="109"/>
      <point x="97" y="-33"/>
      <point x="419" y="-33" type="curve" smooth="yes"/>
      <point x="771" y="-33"/>
      <point x="1045" y="130"/>
      <point x="1126" y="406" type="curve" smooth="yes"/>
      <point x="1203" y="674"/>
      <point x="1046" y="842"/>
      <point x="747" y="842" type="curve" smooth="yes"/>
      <point x="569" y="842"/>
      <point x="461" y="804"/>
      <point x="308" y="694" type="curve"/>
      <point x="360" y="673" type="line"/>
      <point x="510" y="1205" type="line"/>
      <point x="368" y="1075" type="line"/>
      <point x="464" y="1022"/>
      <point x="627" y="975"/>
      <point x="795" y="975" type="curve" smooth="yes"/>
      <point x="1075" y="975"/>
      <point x="1263" y="1080"/>
      <point x="1367" y="1354" type="curve" smooth="yes"/>
      <point x="1388" y="1402"/>
      <point x="1381" y="1422"/>
      <point x="1363" y="1431" type="curve" smooth="yes"/>
      <point x="1340" y="1442"/>
      <point x="1314" y="1430"/>
      <point x="1286" y="1415" type="curve" smooth="yes"/>
      <point x="1221" y="1364"/>
      <point x="1122" y="1339"/>
      <point x="974" y="1339" type="curve" smooth="yes"/>
      <point x="857" y="1339"/>
      <point x="728" y="1373"/>
      <point x="617" y="1409" type="curve" smooth="yes"/>
      <point x="588" y="1417"/>
      <point x="557" y="1423"/>
      <point x="526" y="1423" type="curve" smooth="yes"/>
      <point x="448" y="1423"/>
      <point x="403" y="1383"/>
      <point x="382" y="1318" type="curve" smooth="yes"/>
      <point x="200" y="646" type="line" smooth="yes"/>
      <point x="186" y="598"/>
      <point x="213" y="577"/>
      <point x="252" y="577" type="curve" smooth="yes"/>
      <point x="285" y="577"/>
      <point x="308" y="590"/>
      <point x="361" y="613" type="curve" smooth="yes"/>
      <point x="441" y="670"/>
      <point x="502" y="695"/>
      <point x="562" y="695" type="curve" smooth="yes"/>
      <point x="685" y="695"/>
      <point x="747" y="593"/>
      <point x="681" y="356" type="curve" smooth="yes"/>
      <point x="623" y="140"/>
      <point x="549" y="69"/>
      <point x="467" y="69" type="curve" smooth="yes"/>
      <point x="390" y="69"/>
      <point x="358" y="119"/>
      <point x="380" y="203" type="curve" smooth="yes"/>
      <point x="406" y="291" type="line" smooth="yes"/>
      <point x="440" y="410"/>
      <point x="390" y="493"/>
      <point x="262" y="493" type="curve" smooth="yes"/>
      <point x="146" y="493"/>
      <point x="37" y="407"/>
    </contour>
  </outline>
</glyph>
<glyph name="less" format="2">
  <advance width="1062"/>
  <unicode hex="003C"/>
  <outline>
    <contour>
      <point x="373" y="684" type="line"/>
      <point x="857" y="338" type="line" smooth="yes"/>
      <point x="902" y="310"/>
      <point x="915" y="280"/>
      <point x="906" y="250" type="curve" smooth="yes"/>
      <point x="894" y="209"/>
      <point x="864" y="189"/>
      <point x="809" y="189" type="curve" smooth="yes"/>
      <point x="764" y="189"/>
      <point x="725" y="210"/>
      <point x="668" y="243" type="curve" smooth="yes"/>
      <point x="204" y="560" type="line" smooth="yes"/>
      <point x="155" y="589"/>
      <point x="139" y="631"/>
      <point x="154" y="684" type="curve" smooth="yes"/>
      <point x="169" y="736"/>
      <point x="211" y="778"/>
      <point x="278" y="807" type="curve" smooth="yes"/>
      <point x="902" y="1123" type="line" smooth="yes"/>
      <point x="979" y="1157"/>
      <point x="1026" y="1178"/>
      <point x="1071" y="1178" type="curve" smooth="yes"/>
      <point x="1121" y="1178"/>
      <point x="1144" y="1132"/>
      <point x="1127" y="1082" type="curve" smooth="yes"/>
      <point x="1117" y="1049"/>
      <point x="1085" y="1017"/>
      <point x="1022" y="989" type="curve" smooth="yes"/>
      <point x="363" y="652" type="line"/>
    </contour>
  </outline>
</glyph>
<glyph name="question" format="2">
  <advance width="1214"/>
  <unicode hex="003F"/>
  <outline>
    <contour>
      <point x="455" y="662" type="line" smooth="yes"/>
      <point x="459" y="728"/>
      <point x="493" y="774"/>
      <point x="584" y="814" type="curve" smooth="yes"/>
      <point x="649" y="844" type="line" smooth="yes"/>
      <point x="753" y="893"/>
      <point x="810" y="977"/>
      <point x="854" y="1145" type="curve" smooth="yes"/>
      <point x="896" y="1301"/>
      <point x="865" y="1374"/>
      <point x="794" y="1374" type="curve" smooth="yes"/>
      <point x="724" y="1374"/>
      <point x="679" y="1333"/>
      <point x="656" y="1249" type="curve" smooth="yes"/>
      <point x="632" y="1156" type="line" smooth="yes"/>
      <point x="588" y="1005"/>
      <point x="492" y="929"/>
      <point x="354" y="929" type="curve" smooth="yes"/>
      <point x="238" y="929"/>
      <point x="179" y="1018"/>
      <point x="214" y="1144" type="curve" smooth="yes"/>
      <point x="264" y="1325"/>
      <point x="515" y="1500"/>
      <point x="849" y="1500" type="curve" smooth="yes"/>
      <point x="1221" y="1500"/>
      <point x="1370" y="1336"/>
      <point x="1310" y="1102" type="curve" smooth="yes"/>
      <point x="1258" y="898"/>
      <point x="1098" y="779"/>
      <point x="825" y="729" type="curve" smooth="yes"/>
      <point x="769" y="718" type="line" smooth="yes"/>
      <point x="713" y="709"/>
      <point x="699" y="684"/>
      <point x="683" y="649" type="curve" smooth="yes"/>
      <point x="664" y="598" type="line" smooth="yes"/>
      <point x="613" y="517"/>
      <point x="580" y="487"/>
      <point x="524" y="487" type="curve" smooth="yes"/>
      <point x="465" y="487"/>
      <point x="443" y="524"/>
      <point x="446" y="594" type="curve" smooth="yes"/>
    </contour>
    <component base="period" xOffset="155"/>
  </outline>
</glyph>
<glyph name="A" format="2">
  <advance width="1411"/>
  <unicode hex="0041"/>
  <anchor x="1152" y="1532.0" name="center"/>
  <outline>
    <contour>
      <point x="354" y="363" type="curve" smooth="yes"/>
      <point x="686" y="925" type="line" smooth="yes"/>
      <point x="785" y="1081"/>
      <point x="839" y="1121"/>
      <point x="890" y="1146" type="curve"/>
      <point x="797" y="1170" type="line"/>
      <point x="797" y="951"/>
      <point x="782" y="461"/>
      <point x="779" y="297" type="curve" smooth="yes"/>
      <point x="778" y="224"/>
      <point x="761" y="172"/>
      <point x="717" y="155" type="curve" smooth="yes"/>
      <point x="686" y="147" type="line" smooth="yes"/>
      <point x="639" y="127"/>
      <point x="616" y="105"/>
      <point x="616" y="66" type="curve" smooth="yes"/>
      <point x="616" y="30"/>
      <point x="633" y="0"/>
      <point x="691" y="0" type="curve" smooth="yes"/>
      <point x="1209" y="0" type="line" smooth="yes"/>
      <point x="1268" y="0"/>
      <point x="1302" y="31"/>
      <point x="1302" y="74" type="curve" smooth="yes"/>
      <point x="1302" y="102"/>
      <point x="1292" y="121"/>
      <point x="1267" y="141" type="curve" smooth="yes"/>
      <point x="1202" y="183"/>
      <point x="1205" y="215"/>
      <point x="1203" y="306" type="curve" smooth="yes"/>
      <point x="1201" y="410"/>
      <point x="1210" y="949"/>
      <point x="1212" y="1111" type="curve" smooth="yes"/>
      <point x="1213" y="1210"/>
      <point x="1250" y="1252"/>
      <point x="1312" y="1282" type="curve" smooth="yes"/>
      <point x="1341" y="1302"/>
      <point x="1352" y="1321"/>
      <point x="1352" y="1352" type="curve" smooth="yes"/>
      <point x="1352" y="1396"/>
      <point x="1316" y="1429"/>
      <point x="1213" y="1429" type="curve" smooth="yes"/>
      <point x="963" y="1429"/>
      <point x="737" y="1291"/>
      <point x="555" y="1001" type="curve" smooth="yes"/>
      <point x="191" y="393" type="line" smooth="yes"/>
      <point x="129" y="288"/>
      <point x="68" y="196"/>
      <point x="19" y="166" type="curve" smooth="yes"/>
      <point x="-47" y="127"/>
      <point x="-60" y="101"/>
      <point x="-60" y="64" type="curve" smooth="yes"/>
      <point x="-60" y="24"/>
      <point x="-33" y="0"/>
      <point x="19" y="0" type="curve" smooth="yes"/>
      <point x="351" y="0" type="line" smooth="yes"/>
      <point x="405" y="0"/>
      <point x="441" y="29"/>
      <point x="441" y="76" type="curve" smooth="yes"/>
      <point x="441" y="97"/>
      <point x="431" y="118"/>
      <point x="400" y="136" type="curve" smooth="yes"/>
      <point x="369" y="151" type="line" smooth="yes"/>
      <point x="303" y="181"/>
      <point x="287" y="252"/>
    </contour>
    <contour>
      <point x="304" y="432" type="line"/>
      <point x="886" y="432" type="line"/>
      <point x="897" y="559" type="line"/>
      <point x="325" y="559" type="line"/>
    </contour>
  </outline>
</glyph>
<glyph name="B" format="2">
  <advance width="1493"/>
  <unicode hex="0042"/>
  <outline>
    <contour>
      <point x="826" y="1120" type="curve" smooth="yes"/>
      <point x="857" y="1230"/>
      <point x="894" y="1270"/>
      <point x="980" y="1270" type="curve" smooth="yes"/>
      <point x="1062" y="1270"/>
      <point x="1116" y="1204"/>
      <point x="1103" y="1070" type="curve" smooth="yes"/>
      <point x="1084" y="857"/>
      <point x="982" y="701"/>
      <point x="809" y="701" type="curve" smooth="yes"/>
      <point x="586" y="701" type="line"/>
      <point x="551" y="588" type="line"/>
      <point x="809" y="588" type="line" smooth="yes"/>
      <point x="936" y="588"/>
      <point x="1001" y="514"/>
      <point x="974" y="363" type="curve" smooth="yes"/>
      <point x="946" y="206"/>
      <point x="861" y="131"/>
      <point x="728" y="131" type="curve" smooth="yes"/>
      <point x="643" y="131"/>
      <point x="585" y="178"/>
      <point x="610" y="271" type="curve" smooth="yes"/>
      <point x="649" y="420"/>
      <point x="774" y="916"/>
    </contour>
    <contour>
      <point x="395" y="1400" type="line" smooth="yes"/>
      <point x="335" y="1400"/>
      <point x="303" y="1368"/>
      <point x="303" y="1323" type="curve" smooth="yes"/>
      <point x="303" y="1295"/>
      <point x="317" y="1277"/>
      <point x="348" y="1263" type="curve" smooth="yes"/>
      <point x="387" y="1250" type="line" smooth="yes"/>
      <point x="435" y="1228"/>
      <point x="417" y="1200"/>
      <point x="397" y="1119" type="curve" smooth="yes"/>
      <point x="376" y="1031"/>
      <point x="203" y="356"/>
      <point x="163" y="230" type="curve" smooth="yes"/>
      <point x="150" y="187"/>
      <point x="143" y="168"/>
      <point x="111" y="155" type="curve" smooth="yes"/>
      <point x="66" y="141" type="line" smooth="yes"/>
      <point x="31" y="126"/>
      <point x="9" y="99"/>
      <point x="9" y="65" type="curve" smooth="yes"/>
      <point x="9" y="28"/>
      <point x="25" y="0"/>
      <point x="88" y="0" type="curve" smooth="yes"/>
      <point x="758" y="0" type="line" smooth="yes"/>
      <point x="1166" y="0"/>
      <point x="1384" y="129"/>
      <point x="1414" y="352" type="curve" smooth="yes"/>
      <point x="1438" y="545"/>
      <point x="1307" y="668"/>
      <point x="945" y="668" type="curve"/>
      <point x="954" y="653" type="line"/>
      <point x="1296" y="653"/>
      <point x="1497" y="828"/>
      <point x="1517" y="1044" type="curve" smooth="yes"/>
      <point x="1537" y="1269"/>
      <point x="1398" y="1400"/>
      <point x="1050" y="1400" type="curve" smooth="yes"/>
    </contour>
  </outline>
</glyph>
<glyph name="E" format="2">
  <advance width="1365"/>
  <unicode hex="0045"/>
  <anchor x="906" y="1468.0" name="center"/>
  <outline>
    <contour>
      <point x="551" y="793" type="line"/>
      <point x="514" y="667" type="line"/>
      <point x="853" y="667" type="line" smooth="yes"/>
      <point x="953" y="667"/>
      <point x="1000" y="635"/>
      <point x="1037" y="546" type="curve" smooth="yes"/>
      <point x="1052" y="519"/>
      <point x="1073" y="500"/>
      <point x="1107" y="500" type="curve" smooth="yes"/>
      <point x="1152" y="501"/>
      <point x="1183" y="528"/>
      <point x="1174" y="588" type="curve" smooth="yes"/>
      <point x="1144" y="894" type="line" smooth="yes"/>
      <point x="1139" y="934"/>
      <point x="1116" y="958"/>
      <point x="1074" y="958" type="curve" smooth="yes"/>
      <point x="1047" y="958"/>
      <point x="1025" y="946"/>
      <point x="1007" y="915" type="curve" smooth="yes"/>
      <point x="972" y="820"/>
      <point x="922" y="793"/>
      <point x="861" y="793" type="curve" smooth="yes"/>
    </contour>
    <contour>
      <point x="787" y="0" type="line" smooth="yes"/>
      <point x="865" y="0"/>
      <point x="918" y="-30"/>
      <point x="984" y="-30" type="curve" smooth="yes"/>
      <point x="1159" y="-30"/>
      <point x="1260" y="115"/>
      <point x="1270" y="369" type="curve" smooth="yes"/>
      <point x="1271" y="425"/>
      <point x="1246" y="457"/>
      <point x="1203" y="457" type="curve" smooth="yes"/>
      <point x="1168" y="457"/>
      <point x="1137" y="431"/>
      <point x="1108" y="382" type="curve" smooth="yes"/>
      <point x="999" y="182"/>
      <point x="923" y="126"/>
      <point x="780" y="126" type="curve" smooth="yes"/>
      <point x="683" y="126" type="line" smooth="yes"/>
      <point x="607" y="126"/>
      <point x="588" y="158"/>
      <point x="601" y="223" type="curve" smooth="yes"/>
      <point x="623" y="330"/>
      <point x="842" y="1154"/>
      <point x="878" y="1274" type="curve"/>
      <point x="1032" y="1274" type="line" smooth="yes"/>
      <point x="1155" y="1274"/>
      <point x="1215" y="1218"/>
      <point x="1266" y="1031" type="curve" smooth="yes"/>
      <point x="1294" y="959"/>
      <point x="1328" y="940"/>
      <point x="1377" y="947" type="curve" smooth="yes"/>
      <point x="1420" y="953"/>
      <point x="1442" y="983"/>
      <point x="1434" y="1034" type="curve" smooth="yes"/>
      <point x="1414" y="1356" type="line" smooth="yes"/>
      <point x="1405" y="1409"/>
      <point x="1374" y="1434"/>
      <point x="1328" y="1434" type="curve" smooth="yes"/>
      <point x="1276" y="1434"/>
      <point x="1227" y="1400"/>
      <point x="1135" y="1400" type="curve" smooth="yes"/>
      <point x="392" y="1400" type="line" smooth="yes"/>
      <point x="330" y="1400"/>
      <point x="299" y="1368"/>
      <point x="299" y="1323" type="curve" smooth="yes"/>
      <point x="299" y="1288"/>
      <point x="322" y="1273"/>
      <point x="344" y="1263" type="curve" smooth="yes"/>
      <point x="386" y="1248" type="line" smooth="yes"/>
      <point x="412" y="1238"/>
      <point x="420" y="1221"/>
      <point x="405" y="1160" type="curve" smooth="yes"/>
      <point x="373" y="1035"/>
      <point x="185" y="308"/>
      <point x="162" y="237" type="curve" smooth="yes"/>
      <point x="145" y="186"/>
      <point x="135" y="165"/>
      <point x="107" y="155" type="curve" smooth="yes"/>
      <point x="62" y="141" type="line" smooth="yes"/>
      <point x="29" y="127"/>
      <point x="5" y="100"/>
      <point x="5" y="65" type="curve" smooth="yes"/>
      <point x="5" y="28"/>
      <point x="21" y="0"/>
      <point x="84" y="0" type="curve" smooth="yes"/>
    </contour>
  </outline>
</glyph>
<glyph name="H" format="2">
  <advance width="1700"/>
  <unicode hex="0048"/>
  <anchor x="1130" y="1498" name="center"/>
  <outline>
    <contour>
      <point x="598" y="211" type="curve" smooth="yes"/>
      <point x="609" y="261"/>
      <point x="798" y="1028"/>
      <point x="850" y="1176" type="curve" smooth="yes"/>
      <point x="866" y="1223"/>
      <point x="872" y="1234"/>
      <point x="900" y="1245" type="curve" smooth="yes"/>
      <point x="945" y="1259" type="line" smooth="yes"/>
      <point x="975" y="1271"/>
      <point x="1002" y="1297"/>
      <point x="1002" y="1335" type="curve" smooth="yes"/>
      <point x="1002" y="1372"/>
      <point x="986" y="1400"/>
      <point x="923" y="1400" type="curve" smooth="yes"/>
      <point x="392" y="1400" type="line" smooth="yes"/>
      <point x="332" y="1400"/>
      <point x="299" y="1369"/>
      <point x="299" y="1323" type="curve" smooth="yes"/>
      <point x="299" y="1295"/>
      <point x="314" y="1277"/>
      <point x="344" y="1263" type="curve" smooth="yes"/>
      <point x="386" y="1248" type="line" smooth="yes"/>
      <point x="414" y="1237"/>
      <point x="419" y="1218"/>
      <point x="412" y="1186" type="curve" smooth="yes"/>
      <point x="377" y="1044"/>
      <point x="206" y="373"/>
      <point x="158" y="223" type="curve" smooth="yes"/>
      <point x="144" y="178"/>
      <point x="134" y="165"/>
      <point x="107" y="155" type="curve" smooth="yes"/>
      <point x="62" y="141" type="line" smooth="yes"/>
      <point x="32" y="129"/>
      <point x="5" y="103"/>
      <point x="5" y="65" type="curve" smooth="yes"/>
      <point x="5" y="28"/>
      <point x="21" y="0"/>
      <point x="84" y="0" type="curve" smooth="yes"/>
      <point x="618" y="0" type="line" smooth="yes"/>
      <point x="678" y="0"/>
      <point x="711" y="31"/>
      <point x="711" y="77" type="curve" smooth="yes"/>
      <point x="711" y="106"/>
      <point x="695" y="123"/>
      <point x="665" y="137" type="curve" smooth="yes"/>
      <point x="623" y="152" type="line" smooth="yes"/>
      <point x="601" y="161"/>
      <point x="590" y="176"/>
    </contour>
    <contour>
      <point x="546" y="736" type="line"/>
      <point x="506" y="596" type="line"/>
      <point x="1257" y="596" type="line"/>
      <point x="1297" y="736" type="line"/>
    </contour>
    <contour>
      <point x="1419" y="211" type="curve" smooth="yes"/>
      <point x="1429" y="261"/>
      <point x="1618" y="1028"/>
      <point x="1671" y="1176" type="curve" smooth="yes"/>
      <point x="1686" y="1223"/>
      <point x="1693" y="1234"/>
      <point x="1721" y="1245" type="curve" smooth="yes"/>
      <point x="1766" y="1259" type="line" smooth="yes"/>
      <point x="1796" y="1271"/>
      <point x="1823" y="1297"/>
      <point x="1823" y="1335" type="curve" smooth="yes"/>
      <point x="1823" y="1372"/>
      <point x="1807" y="1400"/>
      <point x="1744" y="1400" type="curve" smooth="yes"/>
      <point x="1213" y="1400" type="line" smooth="yes"/>
      <point x="1152" y="1400"/>
      <point x="1120" y="1369"/>
      <point x="1120" y="1323" type="curve" smooth="yes"/>
      <point x="1120" y="1295"/>
      <point x="1134" y="1277"/>
      <point x="1165" y="1263" type="curve" smooth="yes"/>
      <point x="1206" y="1248" type="line" smooth="yes"/>
      <point x="1234" y="1237"/>
      <point x="1239" y="1218"/>
      <point x="1232" y="1186" type="curve" smooth="yes"/>
      <point x="1197" y="1044"/>
      <point x="1026" y="373"/>
      <point x="979" y="223" type="curve" smooth="yes"/>
      <point x="964" y="178"/>
      <point x="955" y="165"/>
      <point x="928" y="155" type="curve" smooth="yes"/>
      <point x="883" y="141" type="line" smooth="yes"/>
      <point x="853" y="129"/>
      <point x="826" y="103"/>
      <point x="826" y="65" type="curve" smooth="yes"/>
      <point x="826" y="28"/>
      <point x="842" y="0"/>
      <point x="905" y="0" type="curve" smooth="yes"/>
      <point x="1438" y="0" type="line" smooth="yes"/>
      <point x="1498" y="0"/>
      <point x="1531" y="31"/>
      <point x="1531" y="77" type="curve" smooth="yes"/>
      <point x="1531" y="106"/>
      <point x="1516" y="123"/>
      <point x="1485" y="137" type="curve" smooth="yes"/>
      <point x="1444" y="152" type="line" smooth="yes"/>
      <point x="1422" y="161"/>
      <point x="1411" y="176"/>
    </contour>
  </outline>
</glyph>
<glyph name="I" format="2">
  <advance width="889"/>
  <unicode hex="0049"/>
  <anchor x="733" y="1468" name="center"/>
  <outline>
    <contour>
      <point x="605" y="211" type="curve" smooth="yes"/>
      <point x="615" y="261"/>
      <point x="804" y="1028"/>
      <point x="856" y="1176" type="curve" smooth="yes"/>
      <point x="871" y="1223"/>
      <point x="878" y="1234"/>
      <point x="906" y="1245" type="curve" smooth="yes"/>
      <point x="951" y="1259" type="line" smooth="yes"/>
      <point x="981" y="1271"/>
      <point x="1008" y="1297"/>
      <point x="1008" y="1335" type="curve" smooth="yes"/>
      <point x="1008" y="1372"/>
      <point x="992" y="1400"/>
      <point x="929" y="1400" type="curve" smooth="yes"/>
      <point x="398" y="1400" type="line" smooth="yes"/>
      <point x="337" y="1400"/>
      <point x="305" y="1369"/>
      <point x="305" y="1323" type="curve" smooth="yes"/>
      <point x="305" y="1295"/>
      <point x="319" y="1277"/>
      <point x="350" y="1263" type="curve" smooth="yes"/>
      <point x="391" y="1248" type="line" smooth="yes"/>
      <point x="419" y="1237"/>
      <point x="424" y="1218"/>
      <point x="417" y="1186" type="curve" smooth="yes"/>
      <point x="383" y="1044"/>
      <point x="212" y="373"/>
      <point x="164" y="223" type="curve" smooth="yes"/>
      <point x="150" y="178"/>
      <point x="141" y="165"/>
      <point x="114" y="155" type="curve" smooth="yes"/>
      <point x="69" y="141" type="line" smooth="yes"/>
      <point x="39" y="129"/>
      <point x="12" y="103"/>
      <point x="12" y="65" type="curve" smooth="yes"/>
      <point x="12" y="28"/>
      <point x="28" y="0"/>
      <point x="91" y="0" type="curve" smooth="yes"/>
      <point x="624" y="0" type="line" smooth="yes"/>
      <point x="684" y="0"/>
      <point x="717" y="31"/>
      <point x="717" y="77" type="curve" smooth="yes"/>
      <point x="717" y="106"/>
      <point x="702" y="123"/>
      <point x="671" y="137" type="curve" smooth="yes"/>
      <point x="630" y="152" type="line" smooth="yes"/>
      <point x="608" y="161"/>
      <point x="596" y="176"/>
    </contour>
  </outline>
</glyph>
<glyph name="J" format="2">
  <advance width="878"/>
  <unicode hex="004A"/>
  <anchor x="741" y="1468" name="center"/>
  <outline>
    <contour>
      <point x="833" y="1110" type="curve" smooth="yes"/>
      <point x="867" y="1218"/>
      <point x="873" y="1232"/>
      <point x="906" y="1245" type="curve" smooth="yes"/>
      <point x="951" y="1259" type="line" smooth="yes"/>
      <point x="981" y="1271"/>
      <point x="1008" y="1297"/>
      <point x="1008" y="1335" type="curve" smooth="yes"/>
      <point x="1008" y="1372"/>
      <point x="992" y="1400"/>
      <point x="929" y="1400" type="curve" smooth="yes"/>
      <point x="398" y="1400" type="line" smooth="yes"/>
      <point x="337" y="1400"/>
      <point x="305" y="1368"/>
      <point x="305" y="1323" type="curve" smooth="yes"/>
      <point x="305" y="1295"/>
      <point x="319" y="1277"/>
      <point x="350" y="1263" type="curve" smooth="yes"/>
      <point x="391" y="1248" type="line" smooth="yes"/>
      <point x="426" y="1234"/>
      <point x="428" y="1218"/>
      <point x="408" y="1142" type="curve" smooth="yes"/>
      <point x="371" y="1011"/>
      <point x="207" y="392"/>
      <point x="171" y="245" type="curve" smooth="yes"/>
      <point x="124" y="64"/>
      <point x="323" y="-34"/>
      <point x="323" y="-128" type="curve" smooth="yes"/>
      <point x="323" y="-176"/>
      <point x="295" y="-202"/>
      <point x="247" y="-202" type="curve" smooth="yes"/>
      <point x="167" y="-202"/>
      <point x="66" y="-99"/>
      <point x="-28" y="-99" type="curve" smooth="yes"/>
      <point x="-125" y="-99"/>
      <point x="-185" y="-167"/>
      <point x="-185" y="-251" type="curve" smooth="yes"/>
      <point x="-185" y="-350"/>
      <point x="-109" y="-429"/>
      <point x="39" y="-429" type="curve" smooth="yes"/>
      <point x="288" y="-429"/>
      <point x="478" y="-278"/>
      <point x="547" y="12" type="curve" smooth="yes"/>
      <point x="606" y="233"/>
      <point x="794" y="990"/>
    </contour>
  </outline>
</glyph>
<glyph name="K" format="2">
  <advance width="1611"/>
  <unicode hex="004B"/>
  <anchor x="737" y="1487" name="center"/>
  <outline>
    <contour>
      <point x="577" y="201" type="curve" smooth="yes"/>
      <point x="586" y="252"/>
      <point x="786" y="1032"/>
      <point x="836" y="1181" type="curve" smooth="yes"/>
      <point x="849" y="1224"/>
      <point x="866" y="1239"/>
      <point x="886" y="1247" type="curve" smooth="yes"/>
      <point x="927" y="1261" type="line" smooth="yes"/>
      <point x="963" y="1278"/>
      <point x="989" y="1296"/>
      <point x="989" y="1335" type="curve" smooth="yes"/>
      <point x="989" y="1373"/>
      <point x="967" y="1400"/>
      <point x="918" y="1400" type="curve" smooth="yes"/>
      <point x="393" y="1400" type="line" smooth="yes"/>
      <point x="335" y="1400"/>
      <point x="301" y="1369"/>
      <point x="301" y="1324" type="curve" smooth="yes"/>
      <point x="301" y="1294"/>
      <point x="316" y="1277"/>
      <point x="346" y="1263" type="curve" smooth="yes"/>
      <point x="386" y="1250" type="line" smooth="yes"/>
      <point x="410" y="1241"/>
      <point x="420" y="1226"/>
      <point x="414" y="1196" type="curve" smooth="yes"/>
      <point x="380" y="1054"/>
      <point x="206" y="373"/>
      <point x="158" y="223" type="curve" smooth="yes"/>
      <point x="145" y="182"/>
      <point x="134" y="165"/>
      <point x="108" y="155" type="curve" smooth="yes"/>
      <point x="63" y="141" type="line" smooth="yes"/>
      <point x="33" y="129"/>
      <point x="6" y="104"/>
      <point x="6" y="65" type="curve" smooth="yes"/>
      <point x="6" y="28"/>
      <point x="22" y="0"/>
      <point x="85" y="0" type="curve" smooth="yes"/>
      <point x="602" y="0" type="line" smooth="yes"/>
      <point x="662" y="0"/>
      <point x="693" y="29"/>
      <point x="693" y="75" type="curve" smooth="yes"/>
      <point x="693" y="109"/>
      <point x="670" y="127"/>
      <point x="644" y="143" type="curve" smooth="yes"/>
      <point x="607" y="158" type="line" smooth="yes"/>
      <point x="587" y="168"/>
      <point x="573" y="181"/>
    </contour>
    <contour>
      <point x="745" y="658" type="line"/>
      <point x="938" y="146" type="line" smooth="yes"/>
      <point x="985" y="23"/>
      <point x="1037" y="-30"/>
      <point x="1174" y="-30" type="curve" smooth="yes"/>
      <point x="1337" y="-30"/>
      <point x="1486" y="70"/>
      <point x="1549" y="233" type="curve" smooth="yes"/>
      <point x="1571" y="288"/>
      <point x="1550" y="315"/>
      <point x="1523" y="322" type="curve" smooth="yes"/>
      <point x="1507" y="326"/>
      <point x="1484" y="320"/>
      <point x="1463" y="306" type="curve" smooth="yes"/>
      <point x="1438" y="278"/>
      <point x="1417" y="262"/>
      <point x="1389" y="262" type="curve" smooth="yes"/>
      <point x="1341" y="262"/>
      <point x="1320" y="303"/>
      <point x="1293" y="368" type="curve" smooth="yes"/>
      <point x="1072" y="959" type="line"/>
    </contour>
    <contour>
      <point x="573" y="377" type="line"/>
      <point x="1149" y="981" type="line" smooth="yes"/>
      <point x="1210" y="1047"/>
      <point x="1275" y="1076"/>
      <point x="1341" y="1076" type="curve" smooth="yes"/>
      <point x="1404" y="1076"/>
      <point x="1451" y="1054"/>
      <point x="1515" y="1054" type="curve" smooth="yes"/>
      <point x="1626" y="1054"/>
      <point x="1710" y="1110"/>
      <point x="1723" y="1237" type="curve" smooth="yes"/>
      <point x="1735" y="1351"/>
      <point x="1666" y="1434"/>
      <point x="1541" y="1434" type="curve" smooth="yes"/>
      <point x="1440" y="1434"/>
      <point x="1368" y="1388"/>
      <point x="1248" y="1264" type="curve" smooth="yes"/>
      <point x="526" y="499" type="line"/>
    </contour>
  </outline>
</glyph>
<glyph name="N" format="2">
  <advance width="1492"/>
  <unicode hex="004E"/>
  <anchor x="1102" y="1497" name="center"/>
  <outline>
    <contour>
      <point x="358" y="350" type="line" smooth="yes"/>
      <point x="334" y="252"/>
      <point x="336" y="180"/>
      <point x="415" y="144" type="curve" smooth="yes"/>
      <point x="439" y="133" type="line" smooth="yes"/>
      <point x="464" y="120"/>
      <point x="484" y="98"/>
      <point x="484" y="68" type="curve" smooth="yes"/>
      <point x="484" y="24"/>
      <point x="452" y="0"/>
      <point x="407" y="0" type="curve" smooth="yes"/>
      <point x="66" y="0" type="line" smooth="yes"/>
      <point x="8" y="0"/>
      <point x="-13" y="28"/>
      <point x="-13" y="65" type="curve" smooth="yes"/>
      <point x="-13" y="96"/>
      <point x="6" y="124"/>
      <point x="43" y="141" type="curve" smooth="yes"/>
      <point x="80" y="157" type="line" smooth="yes"/>
      <point x="129" y="178"/>
      <point x="173" y="251"/>
      <point x="202" y="366" type="curve" smooth="yes"/>
      <point x="361" y="993" type="line" smooth="yes"/>
      <point x="381" y="1059"/>
      <point x="377" y="1123"/>
      <point x="340" y="1165" type="curve" smooth="yes"/>
      <point x="296" y="1258" type="line" smooth="yes"/>
      <point x="240" y="1316"/>
      <point x="260" y="1400"/>
      <point x="354" y="1400" type="curve" smooth="yes"/>
      <point x="629" y="1400" type="line" smooth="yes"/>
      <point x="725" y="1400"/>
      <point x="765" y="1361"/>
      <point x="805" y="1287" type="curve" smooth="yes"/>
      <point x="949" y="928"/>
      <point x="1070" y="662"/>
      <point x="1198" y="368" type="curve"/>
      <point x="1050" y="301" type="line"/>
      <point x="1265" y="1190" type="line" smooth="yes"/>
      <point x="1311" y="1368"/>
      <point x="1398" y="1456"/>
      <point x="1522" y="1456" type="curve" smooth="yes"/>
      <point x="1616" y="1456"/>
      <point x="1690" y="1400"/>
      <point x="1689" y="1298" type="curve" smooth="yes"/>
      <point x="1687" y="1205"/>
      <point x="1636" y="1132"/>
      <point x="1521" y="1061" type="curve" smooth="yes"/>
      <point x="1408" y="990"/>
      <point x="1363" y="933"/>
      <point x="1329" y="801" type="curve" smooth="yes"/>
      <point x="1246" y="427" type="line" smooth="yes"/>
      <point x="1231" y="370"/>
      <point x="1231" y="338"/>
      <point x="1253" y="288" type="curve" smooth="yes"/>
      <point x="1311" y="126" type="line" smooth="yes"/>
      <point x="1340" y="63"/>
      <point x="1311" y="0"/>
      <point x="1244" y="0" type="curve" smooth="yes"/>
      <point x="891" y="0" type="line" smooth="yes"/>
      <point x="829" y="0"/>
      <point x="796" y="35"/>
      <point x="797" y="100" type="curve" smooth="yes"/>
      <point x="799" y="164"/>
      <point x="787" y="218"/>
      <point x="756" y="275" type="curve" smooth="yes"/>
      <point x="698" y="423"/>
      <point x="560" y="759"/>
      <point x="414" y="1091" type="curve"/>
      <point x="553" y="1101" type="line"/>
    </contour>
  </outline>
</glyph>
<glyph name="P" format="2">
  <advance width="1466"/>
  <unicode hex="0050"/>
  <outline>
    <contour>
      <point x="1509" y="910" type="curve" smooth="yes"/>
      <point x="1570" y="1214"/>
      <point x="1365" y="1400"/>
      <point x="1031" y="1400" type="curve" smooth="yes"/>
      <point x="386" y="1400" type="line" smooth="yes"/>
      <point x="326" y="1400"/>
      <point x="294" y="1369"/>
      <point x="294" y="1323" type="curve" smooth="yes"/>
      <point x="294" y="1294"/>
      <point x="309" y="1277"/>
      <point x="338" y="1263" type="curve" smooth="yes"/>
      <point x="380" y="1248" type="line" smooth="yes"/>
      <point x="402" y="1240"/>
      <point x="413" y="1227"/>
      <point x="407" y="1193" type="curve" smooth="yes"/>
      <point x="393" y="1116"/>
      <point x="199" y="375"/>
      <point x="151" y="219" type="curve" smooth="yes"/>
      <point x="140" y="183"/>
      <point x="130" y="166"/>
      <point x="102" y="155" type="curve" smooth="yes"/>
      <point x="57" y="141" type="line" smooth="yes"/>
      <point x="27" y="129"/>
      <point x="0" y="103"/>
      <point x="0" y="66" type="curve" smooth="yes"/>
      <point x="0" y="28"/>
      <point x="14" y="0"/>
      <point x="79" y="0" type="curve" smooth="yes"/>
      <point x="654" y="0" type="line" smooth="yes"/>
      <point x="714" y="0"/>
      <point x="747" y="31"/>
      <point x="747" y="77" type="curve" smooth="yes"/>
      <point x="747" y="107"/>
      <point x="734" y="130"/>
      <point x="701" y="138" type="curve" smooth="yes"/>
      <point x="615" y="153" type="line" smooth="yes"/>
      <point x="592" y="159"/>
      <point x="583" y="177"/>
      <point x="598" y="228" type="curve" smooth="yes"/>
      <point x="642" y="392"/>
      <point x="814" y="1076"/>
      <point x="826" y="1126" type="curve" smooth="yes"/>
      <point x="853" y="1216"/>
      <point x="889" y="1257"/>
      <point x="959" y="1257" type="curve" smooth="yes"/>
      <point x="1048" y="1257"/>
      <point x="1125" y="1173"/>
      <point x="1081" y="938" type="curve" smooth="yes"/>
      <point x="1038" y="697"/>
      <point x="919" y="573"/>
      <point x="763" y="573" type="curve" smooth="yes"/>
      <point x="695" y="573"/>
      <point x="640" y="590"/>
      <point x="582" y="629" type="curve"/>
      <point x="533" y="502" type="line"/>
      <point x="630" y="458"/>
      <point x="706" y="441"/>
      <point x="840" y="441" type="curve" smooth="yes"/>
      <point x="1167" y="441"/>
      <point x="1450" y="608"/>
    </contour>
  </outline>
</glyph>
<glyph name="Q" format="2">
  <advance width="1574"/>
  <unicode hex="0051"/>
  <outline>
    <contour>
      <point x="716" y="382" type="curve" smooth="yes"/>
      <point x="593" y="-123"/>
      <point x="720" y="-359"/>
      <point x="968" y="-385" type="curve" smooth="yes"/>
      <point x="1115" y="-399"/>
      <point x="1170" y="-359"/>
      <point x="1204" y="-312" type="curve" smooth="yes"/>
      <point x="1303" y="-167" type="line" smooth="yes"/>
      <point x="1322" y="-142"/>
      <point x="1316" y="-109"/>
      <point x="1298" y="-103" type="curve" smooth="yes"/>
      <point x="1271" y="-92"/>
      <point x="1198" y="-153"/>
      <point x="1027" y="-129" type="curve" smooth="yes"/>
      <point x="818" y="-99"/>
      <point x="718" y="14"/>
      <point x="794" y="365" type="curve" smooth="yes"/>
      <point x="802" y="399"/>
      <point x="796" y="419"/>
      <point x="768" y="425" type="curve" smooth="yes"/>
      <point x="742" y="430"/>
      <point x="724" y="412"/>
    </contour>
    <contour>
      <point x="1018" y="1428" type="curve" smooth="yes"/>
      <point x="559" y="1432"/>
      <point x="218" y="1134"/>
      <point x="125" y="734" type="curve" smooth="yes"/>
      <point x="19" y="274"/>
      <point x="231" y="-20"/>
      <point x="648" y="-26" type="curve" smooth="yes"/>
      <point x="1060" y="-33"/>
      <point x="1450" y="208"/>
      <point x="1557" y="696" type="curve" smooth="yes"/>
      <point x="1647" y="1114"/>
      <point x="1430" y="1424"/>
    </contour>
    <contour>
      <point x="689" y="112" type="curve" smooth="yes"/>
      <point x="612" y="114"/>
      <point x="564" y="164"/>
      <point x="563" y="307" type="curve" smooth="yes"/>
      <point x="563" y="400"/>
      <point x="582" y="533"/>
      <point x="627" y="719" type="curve" smooth="yes"/>
      <point x="734" y="1169"/>
      <point x="866" y="1300"/>
      <point x="989" y="1290" type="curve" smooth="yes"/>
      <point x="1062" y="1285"/>
      <point x="1109" y="1227"/>
      <point x="1109" y="1080" type="curve" smooth="yes"/>
      <point x="1109" y="991"/>
      <point x="1092" y="872"/>
      <point x="1054" y="712" type="curve" smooth="yes"/>
      <point x="938" y="226"/>
      <point x="799" y="108"/>
    </contour>
  </outline>
</glyph>
<glyph name="bracketleft" format="2">
  <advance width="829"/>
  <unicode hex="005B"/>
  <outline>
    <contour>
      <point x="754" y="1296" type="line" smooth="yes"/>
      <point x="770" y="1355"/>
      <point x="801" y="1375"/>
      <point x="867" y="1375" type="curve" smooth="yes"/>
      <point x="981" y="1375" type="line" smooth="yes"/>
      <point x="1037" y="1375"/>
      <point x="1067" y="1398"/>
      <point x="1081" y="1440" type="curve" smooth="yes"/>
      <point x="1091" y="1477"/>
      <point x="1075" y="1505"/>
      <point x="1019" y="1505" type="curve" smooth="yes"/>
      <point x="592" y="1505" type="line" smooth="yes"/>
      <point x="521" y="1505"/>
      <point x="487" y="1475"/>
      <point x="465" y="1404" type="curve" smooth="yes"/>
      <point x="53" y="-149" type="line" smooth="yes"/>
      <point x="33" y="-219"/>
      <point x="49" y="-250"/>
      <point x="120" y="-250" type="curve" smooth="yes"/>
      <point x="547" y="-250" type="line" smooth="yes"/>
      <point x="603" y="-250"/>
      <point x="636" y="-223"/>
      <point x="647" y="-186" type="curve" smooth="yes"/>
      <point x="659" y="-144"/>
      <point x="642" y="-120"/>
      <point x="586" y="-120" type="curve" smooth="yes"/>
      <point x="473" y="-120" type="line" smooth="yes"/>
      <point x="406" y="-120"/>
      <point x="387" y="-99"/>
      <point x="405" y="-42" type="curve" smooth="yes"/>
    </contour>
  </outline>
</glyph>
<glyph name="underscore" format="2">
  <advance width="1023"/>
  <unicode hex="005F"/>
  <outline>
    <contour>
      <point x="-94" y="-279" type="curve" smooth="yes"/>
      <point x="-111" y="-333"/>
      <point x="-100" y="-368"/>
      <point x="-51" y="-368" type="curve" smooth="yes"/>
      <point x="836" y="-368" type="line" smooth="yes"/>
      <point x="884" y="-368"/>
      <point x="915" y="-333"/>
      <point x="931" y="-280" type="curve" smooth="yes"/>
      <point x="946" y="-226"/>
      <point x="935" y="-191"/>
      <point x="888" y="-191" type="curve" smooth="yes"/>
      <point x="1" y="-191" type="line" smooth="yes"/>
      <point x="-48" y="-191"/>
      <point x="-79" y="-225"/>
    </contour>
  </outline>
</glyph>
<glyph name="a" format="2">
  <advance width="1268"/>
  <unicode hex="0061"/>
  <anchor x="819" y="1010.0" name="center"/>
  <outline>
    <contour>
      <point x="1046" y="360" type="curve" smooth="yes"/>
      <point x="1132" y="696" type="line" smooth="yes"/>
      <point x="1151" y="769"/>
      <point x="1219" y="755"/>
      <point x="1229" y="827" type="curve" smooth="yes"/>
      <point x="1240" y="907"/>
      <point x="1109" y="970"/>
      <point x="823" y="970" type="curve" smooth="yes"/>
      <point x="342" y="970"/>
      <point x="73" y="639"/>
      <point x="34" y="322" type="curve" smooth="yes"/>
      <point x="5" y="87"/>
      <point x="114" y="-30"/>
      <point x="301" y="-30" type="curve" smooth="yes"/>
      <point x="496" y="-30"/>
      <point x="673" y="90"/>
      <point x="723" y="273" type="curve"/>
      <point x="695" y="353" type="line"/>
      <point x="679" y="286"/>
      <point x="668" y="206"/>
      <point x="668" y="139" type="curve" smooth="yes"/>
      <point x="668" y="35"/>
      <point x="715" y="-30"/>
      <point x="837" y="-30" type="curve" smooth="yes"/>
      <point x="980" y="-30"/>
      <point x="1119" y="51"/>
      <point x="1182" y="173" type="curve" smooth="yes"/>
      <point x="1211" y="229"/>
      <point x="1207" y="266"/>
      <point x="1182" y="279" type="curve" smooth="yes"/>
      <point x="1162" y="289"/>
      <point x="1144" y="286"/>
      <point x="1112" y="260" type="curve" smooth="yes"/>
      <point x="1089" y="242"/>
      <point x="1077" y="236"/>
      <point x="1062" y="236" type="curve" smooth="yes"/>
      <point x="1035" y="236"/>
      <point x="1022" y="266"/>
    </contour>
    <contour>
      <point x="454" y="327" type="curve" smooth="yes"/>
      <point x="480" y="544"/>
      <point x="601" y="822"/>
      <point x="718" y="822" type="curve" smooth="yes"/>
      <point x="762" y="822"/>
      <point x="777" y="777"/>
      <point x="759" y="673" type="curve" smooth="yes"/>
      <point x="711" y="395"/>
      <point x="587" y="193"/>
      <point x="498" y="193" type="curve" smooth="yes"/>
      <point x="466" y="193"/>
      <point x="442" y="226"/>
    </contour>
  </outline>
</glyph>
<glyph name="c" format="2">
  <advance width="1059"/>
  <unicode hex="0063"/>
  <anchor x="679" y="1026.0" name="center"/>
  <outline>
    <contour>
      <point x="644" y="824" type="curve" smooth="yes"/>
      <point x="683" y="824"/>
      <point x="703" y="792"/>
      <point x="702" y="748" type="curve" smooth="yes"/>
      <point x="701" y="693"/>
      <point x="679" y="657"/>
      <point x="678" y="604" type="curve" smooth="yes"/>
      <point x="676" y="534"/>
      <point x="730" y="485"/>
      <point x="831" y="485" type="curve" smooth="yes"/>
      <point x="933" y="485"/>
      <point x="1039" y="557"/>
      <point x="1046" y="684" type="curve" smooth="yes"/>
      <point x="1055" y="829"/>
      <point x="942" y="970"/>
      <point x="696" y="970" type="curve" smooth="yes"/>
      <point x="323" y="970"/>
      <point x="77" y="733"/>
      <point x="41" y="434" type="curve" smooth="yes"/>
      <point x="5" y="137"/>
      <point x="155" y="-30"/>
      <point x="440" y="-30" type="curve" smooth="yes"/>
      <point x="727" y="-30"/>
      <point x="904" y="95"/>
      <point x="957" y="272" type="curve" smooth="yes"/>
      <point x="980" y="351"/>
      <point x="954" y="393"/>
      <point x="914" y="394" type="curve" smooth="yes"/>
      <point x="874" y="395"/>
      <point x="854" y="366"/>
      <point x="805" y="312" type="curve" smooth="yes"/>
      <point x="751" y="253"/>
      <point x="697" y="217"/>
      <point x="630" y="217" type="curve" smooth="yes"/>
      <point x="510" y="217"/>
      <point x="448" y="313"/>
      <point x="479" y="530" type="curve" smooth="yes"/>
      <point x="507" y="723"/>
      <point x="580" y="824"/>
    </contour>
  </outline>
</glyph>
<glyph name="d" format="2">
  <advance width="1274"/>
  <unicode hex="0064"/>
  <anchor x="511" y="1022" name="center"/>
  <outline>
    <contour>
      <point x="1047" y="744" type="line"/>
      <point x="1051" y="869"/>
      <point x="956" y="970"/>
      <point x="758" y="970" type="curve" smooth="yes"/>
      <point x="351" y="970"/>
      <point x="73" y="692"/>
      <point x="27" y="363" type="curve" smooth="yes"/>
      <point x="-8" y="112"/>
      <point x="94" y="-30"/>
      <point x="322" y="-30" type="curve" smooth="yes"/>
      <point x="512" y="-30"/>
      <point x="677" y="74"/>
      <point x="766" y="328" type="curve"/>
      <point x="720" y="353" type="line"/>
      <point x="704" y="286"/>
      <point x="693" y="206"/>
      <point x="693" y="139" type="curve" smooth="yes"/>
      <point x="693" y="35"/>
      <point x="740" y="-30"/>
      <point x="862" y="-30" type="curve" smooth="yes"/>
      <point x="1005" y="-30"/>
      <point x="1144" y="51"/>
      <point x="1207" y="173" type="curve" smooth="yes"/>
      <point x="1236" y="229"/>
      <point x="1232" y="266"/>
      <point x="1207" y="279" type="curve" smooth="yes"/>
      <point x="1187" y="289"/>
      <point x="1169" y="286"/>
      <point x="1137" y="260" type="curve" smooth="yes"/>
      <point x="1114" y="242"/>
      <point x="1102" y="236"/>
      <point x="1087" y="236" type="curve" smooth="yes"/>
      <point x="1060" y="236"/>
      <point x="1045" y="266"/>
      <point x="1071" y="360" type="curve" smooth="yes"/>
      <point x="1165" y="703" type="line" smooth="yes"/>
      <point x="1225" y="921"/>
      <point x="1064" y="1026"/>
      <point x="1064" y="1125" type="curve" smooth="yes"/>
      <point x="1064" y="1164"/>
      <point x="1089" y="1192"/>
      <point x="1135" y="1192" type="curve" smooth="yes"/>
      <point x="1224" y="1192"/>
      <point x="1249" y="1069"/>
      <point x="1374" y="1069" type="curve" smooth="yes"/>
      <point x="1485" y="1069"/>
      <point x="1550" y="1145"/>
      <point x="1550" y="1258" type="curve" smooth="yes"/>
      <point x="1550" y="1357"/>
      <point x="1469" y="1440"/>
      <point x="1304" y="1440" type="curve" smooth="yes"/>
      <point x="1109" y="1440"/>
      <point x="952" y="1335"/>
      <point x="881" y="1094" type="curve" smooth="yes"/>
      <point x="681" y="417" type="line" smooth="yes"/>
      <point x="632" y="250"/>
      <point x="568" y="187"/>
      <point x="504" y="187" type="curve" smooth="yes"/>
      <point x="462" y="187"/>
      <point x="434" y="213"/>
      <point x="434" y="295" type="curve" smooth="yes"/>
      <point x="434" y="509"/>
      <point x="572" y="825"/>
      <point x="714" y="825" type="curve" smooth="yes"/>
      <point x="769" y="825"/>
      <point x="784" y="792"/>
      <point x="780" y="724" type="curve"/>
    </contour>
  </outline>
</glyph>
<glyph name="g" format="2">
  <advance width="1192"/>
  <unicode hex="0067"/>
  <anchor x="819" y="1010.0" name="center"/>
  <outline>
    <contour>
      <point x="990" y="30" type="curve" smooth="yes"/>
      <point x="1132" y="696" type="line" smooth="yes"/>
      <point x="1148" y="769"/>
      <point x="1219" y="755"/>
      <point x="1229" y="827" type="curve" smooth="yes"/>
      <point x="1240" y="907"/>
      <point x="1109" y="970"/>
      <point x="823" y="970" type="curve" smooth="yes"/>
      <point x="342" y="970"/>
      <point x="73" y="639"/>
      <point x="34" y="322" type="curve" smooth="yes"/>
      <point x="5" y="87"/>
      <point x="114" y="-30"/>
      <point x="301" y="-30" type="curve" smooth="yes"/>
      <point x="496" y="-30"/>
      <point x="673" y="90"/>
      <point x="723" y="273" type="curve"/>
      <point x="670" y="304" type="line"/>
      <point x="541" y="-201" type="line" smooth="yes"/>
      <point x="512" y="-314"/>
      <point x="479" y="-353"/>
      <point x="428" y="-353" type="curve" smooth="yes"/>
      <point x="320" y="-353"/>
      <point x="236" y="-104"/>
      <point x="73" y="-104" type="curve" smooth="yes"/>
      <point x="-36" y="-104"/>
      <point x="-103" y="-182"/>
      <point x="-103" y="-275" type="curve" smooth="yes"/>
      <point x="-103" y="-415"/>
      <point x="28" y="-510"/>
      <point x="267" y="-510" type="curve" smooth="yes"/>
      <point x="686" y="-510"/>
      <point x="918" y="-307"/>
    </contour>
    <contour>
      <point x="454" y="327" type="curve" smooth="yes"/>
      <point x="480" y="544"/>
      <point x="601" y="822"/>
      <point x="718" y="822" type="curve" smooth="yes"/>
      <point x="762" y="822"/>
      <point x="777" y="777"/>
      <point x="759" y="673" type="curve" smooth="yes"/>
      <point x="711" y="395"/>
      <point x="587" y="193"/>
      <point x="498" y="193" type="curve" smooth="yes"/>
      <point x="466" y="193"/>
      <point x="442" y="226"/>
    </contour>
  </outline>
</glyph>
<glyph name="h" format="2">
  <advance width="1273"/>
  <unicode hex="0068"/>
  <anchor x="508" y="980" name="center"/>
  <outline>
    <contour>
      <point x="506" y="448" type="curve" smooth="yes"/>
      <point x="469" y="352"/>
      <point x="447" y="288"/>
      <point x="447" y="245" type="curve" smooth="yes"/>
      <point x="447" y="201"/>
      <point x="470" y="168"/>
      <point x="470" y="120" type="curve" smooth="yes"/>
      <point x="470" y="29"/>
      <point x="350" y="-30"/>
      <point x="143" y="-30" type="curve" smooth="yes"/>
      <point x="0" y="-30"/>
      <point x="-17" y="63"/>
      <point x="29" y="224" type="curve" smooth="yes"/>
      <point x="225" y="910" type="line" smooth="yes"/>
      <point x="320" y="1242"/>
      <point x="529" y="1440"/>
      <point x="948" y="1440" type="curve" smooth="yes"/>
      <point x="1209" y="1440"/>
      <point x="1350" y="1351"/>
      <point x="1350" y="1221" type="curve" smooth="yes"/>
      <point x="1350" y="1119"/>
      <point x="1277" y="1034"/>
      <point x="1157" y="1034" type="curve" smooth="yes"/>
      <point x="996" y="1034"/>
      <point x="897" y="1273"/>
      <point x="782" y="1273" type="curve" smooth="yes"/>
      <point x="733" y="1273"/>
      <point x="705" y="1237"/>
      <point x="674" y="1131" type="curve" smooth="yes"/>
      <point x="518" y="606" type="line"/>
      <point x="494" y="614" type="line"/>
      <point x="635" y="881"/>
      <point x="834" y="970"/>
      <point x="996" y="970" type="curve" smooth="yes"/>
      <point x="1189" y="970"/>
      <point x="1232" y="832"/>
      <point x="1164" y="640" type="curve" smooth="yes"/>
      <point x="1066" y="361" type="line" smooth="yes"/>
      <point x="1034" y="270"/>
      <point x="1049" y="240"/>
      <point x="1076" y="240" type="curve" smooth="yes"/>
      <point x="1091" y="240"/>
      <point x="1103" y="246"/>
      <point x="1126" y="264" type="curve" smooth="yes"/>
      <point x="1158" y="290"/>
      <point x="1176" y="293"/>
      <point x="1196" y="283" type="curve" smooth="yes"/>
      <point x="1221" y="270"/>
      <point x="1225" y="233"/>
      <point x="1196" y="177" type="curve" smooth="yes"/>
      <point x="1132" y="53"/>
      <point x="994" y="-30"/>
      <point x="814" y="-30" type="curve" smooth="yes"/>
      <point x="612" y="-30"/>
      <point x="580" y="94"/>
      <point x="645" y="277" type="curve" smooth="yes"/>
      <point x="743" y="555" type="line" smooth="yes"/>
      <point x="774" y="644"/>
      <point x="770" y="688"/>
      <point x="717" y="688" type="curve" smooth="yes"/>
      <point x="647" y="688"/>
      <point x="561" y="591"/>
    </contour>
  </outline>
</glyph>
<glyph name="j" format="2">
  <advance width="700"/>
  <unicode hex="006A"/>
  <outline>
    <contour>
      <point x="639" y="643" type="line" smooth="yes"/>
      <point x="702" y="855"/>
      <point x="650" y="970"/>
      <point x="474" y="970" type="curve" smooth="yes"/>
      <point x="298" y="970"/>
      <point x="163" y="886"/>
      <point x="99" y="763" type="curve" smooth="yes"/>
      <point x="70" y="707"/>
      <point x="74" y="670"/>
      <point x="99" y="657" type="curve" smooth="yes"/>
      <point x="119" y="647"/>
      <point x="137" y="650"/>
      <point x="169" y="676" type="curve" smooth="yes"/>
      <point x="192" y="694"/>
      <point x="204" y="700"/>
      <point x="219" y="700" type="curve" smooth="yes"/>
      <point x="246" y="700"/>
      <point x="255" y="672"/>
      <point x="229" y="579" type="curve" smooth="yes"/>
      <point x="126" y="218" type="line" smooth="yes"/>
      <point x="80" y="55"/>
      <point x="261" y="-65"/>
      <point x="231" y="-181" type="curve" smooth="yes"/>
      <point x="222" y="-218"/>
      <point x="199" y="-233"/>
      <point x="165" y="-233" type="curve" smooth="yes"/>
      <point x="86" y="-233"/>
      <point x="27" y="-132"/>
      <point x="-82" y="-132" type="curve" smooth="yes"/>
      <point x="-175" y="-132"/>
      <point x="-241" y="-203"/>
      <point x="-241" y="-302" type="curve" smooth="yes"/>
      <point x="-241" y="-408"/>
      <point x="-164" y="-479"/>
      <point x="-19" y="-479" type="curve" smooth="yes"/>
      <point x="210" y="-479"/>
      <point x="346" y="-348"/>
      <point x="414" y="-118" type="curve" smooth="yes"/>
    </contour>
    <contour>
      <point x="500" y="1071" type="curve" smooth="yes"/>
      <point x="679" y="1071"/>
      <point x="795" y="1168"/>
      <point x="795" y="1299" type="curve" smooth="yes"/>
      <point x="795" y="1391"/>
      <point x="730" y="1470"/>
      <point x="580" y="1470" type="curve" smooth="yes"/>
      <point x="392" y="1470"/>
      <point x="280" y="1358"/>
      <point x="280" y="1240" type="curve" smooth="yes"/>
      <point x="280" y="1145"/>
      <point x="356" y="1071"/>
    </contour>
  </outline>
</glyph>
<glyph name="k" format="2">
  <advance width="1258"/>
  <unicode hex="006B"/>
  <anchor x="482" y="980" name="center"/>
  <outline>
    <contour>
      <point x="542" y="625" type="curve"/>
      <point x="486" y="600" type="line"/>
      <point x="539" y="841"/>
      <point x="738" y="970"/>
      <point x="993" y="970" type="curve" smooth="yes"/>
      <point x="1168" y="970"/>
      <point x="1259" y="886"/>
      <point x="1238" y="736" type="curve" smooth="yes"/>
      <point x="1209" y="529"/>
      <point x="954" y="405"/>
      <point x="408" y="335" type="curve"/>
      <point x="404" y="446" type="line"/>
      <point x="701" y="480"/>
      <point x="820" y="551"/>
      <point x="842" y="670" type="curve" smooth="yes"/>
      <point x="856" y="734"/>
      <point x="824" y="774"/>
      <point x="768" y="774" type="curve" smooth="yes"/>
      <point x="657" y="774"/>
      <point x="550" y="657"/>
      <point x="496" y="457" type="curve" smooth="yes"/>
      <point x="460" y="321"/>
      <point x="450" y="277"/>
      <point x="450" y="245" type="curve" smooth="yes"/>
      <point x="450" y="201"/>
      <point x="473" y="168"/>
      <point x="473" y="120" type="curve" smooth="yes"/>
      <point x="473" y="29"/>
      <point x="353" y="-30"/>
      <point x="146" y="-30" type="curve" smooth="yes"/>
      <point x="3" y="-30"/>
      <point x="-14" y="63"/>
      <point x="32" y="224" type="curve" smooth="yes"/>
      <point x="228" y="910" type="line" smooth="yes"/>
      <point x="323" y="1242"/>
      <point x="532" y="1440"/>
      <point x="951" y="1440" type="curve" smooth="yes"/>
      <point x="1212" y="1440"/>
      <point x="1353" y="1351"/>
      <point x="1353" y="1221" type="curve" smooth="yes"/>
      <point x="1353" y="1119"/>
      <point x="1280" y="1034"/>
      <point x="1160" y="1034" type="curve" smooth="yes"/>
      <point x="999" y="1034"/>
      <point x="900" y="1273"/>
      <point x="785" y="1273" type="curve" smooth="yes"/>
      <point x="736" y="1273"/>
      <point x="709" y="1238"/>
      <point x="677" y="1131" type="curve" smooth="yes"/>
      <point x="605" y="891"/>
      <point x="558" y="709"/>
    </contour>
    <contour>
      <point x="558" y="398" type="line"/>
      <point x="893" y="474" type="line"/>
      <point x="930" y="341" type="line" smooth="yes"/>
      <point x="949" y="274"/>
      <point x="982" y="252"/>
      <point x="1019" y="252" type="curve" smooth="yes"/>
      <point x="1042" y="252"/>
      <point x="1064" y="264"/>
      <point x="1083" y="279" type="curve" smooth="yes"/>
      <point x="1111" y="302"/>
      <point x="1131" y="306"/>
      <point x="1149" y="301" type="curve" smooth="yes"/>
      <point x="1173" y="294"/>
      <point x="1186" y="273"/>
      <point x="1176" y="227" type="curve" smooth="yes"/>
      <point x="1143" y="76"/>
      <point x="997" y="-30"/>
      <point x="824" y="-30" type="curve" smooth="yes"/>
      <point x="699" y="-30"/>
      <point x="641" y="37"/>
      <point x="612" y="164" type="curve" smooth="yes"/>
    </contour>
  </outline>
</glyph>
<glyph name="l" format="2">
  <advance width="732"/>
  <unicode hex="006C"/>
  <anchor x="217" y="1593" name="center"/>
  <outline>
    <contour>
      <point x="734" y="1440" type="curve" smooth="yes"/>
      <point x="543" y="1440"/>
      <point x="394" y="1335"/>
      <point x="320" y="1094" type="curve" smooth="yes"/>
      <point x="69" y="277" type="line" smooth="yes"/>
      <point x="12" y="91"/>
      <point x="36" y="-30"/>
      <point x="238" y="-30" type="curve" smooth="yes"/>
      <point x="418" y="-30"/>
      <point x="556" y="53"/>
      <point x="620" y="177" type="curve" smooth="yes"/>
      <point x="649" y="233"/>
      <point x="645" y="270"/>
      <point x="620" y="283" type="curve" smooth="yes"/>
      <point x="600" y="293"/>
      <point x="582" y="290"/>
      <point x="550" y="264" type="curve" smooth="yes"/>
      <point x="527" y="246"/>
      <point x="515" y="240"/>
      <point x="500" y="240" type="curve" smooth="yes"/>
      <point x="473" y="240"/>
      <point x="462" y="269"/>
      <point x="490" y="361" type="curve" smooth="yes"/>
      <point x="595" y="703" type="line" smooth="yes"/>
      <point x="662" y="921"/>
      <point x="494" y="1026"/>
      <point x="494" y="1125" type="curve" smooth="yes"/>
      <point x="494" y="1164"/>
      <point x="519" y="1192"/>
      <point x="565" y="1192" type="curve" smooth="yes"/>
      <point x="658" y="1192"/>
      <point x="684" y="1079"/>
      <point x="814" y="1079" type="curve" smooth="yes"/>
      <point x="920" y="1079"/>
      <point x="980" y="1147"/>
      <point x="980" y="1248" type="curve" smooth="yes"/>
      <point x="980" y="1352"/>
      <point x="900" y="1440"/>
    </contour>
  </outline>
</glyph>
<glyph name="m" format="2">
  <advance width="1922"/>
  <unicode hex="006D"/>
  <anchor x="856" y="980" name="center"/>
  <outline>
    <contour>
      <point x="686" y="226" type="line" smooth="yes"/>
      <point x="630" y="68"/>
      <point x="653" y="-30"/>
      <point x="799" y="-30" type="curve" smooth="yes"/>
      <point x="1006" y="-30"/>
      <point x="1126" y="29"/>
      <point x="1126" y="120" type="curve" smooth="yes"/>
      <point x="1126" y="168"/>
      <point x="1103" y="201"/>
      <point x="1103" y="245" type="curve" smooth="yes"/>
      <point x="1103" y="288"/>
      <point x="1125" y="352"/>
      <point x="1162" y="448" type="curve" smooth="yes"/>
      <point x="1217" y="591"/>
      <point x="1303" y="688"/>
      <point x="1373" y="688" type="curve" smooth="yes"/>
      <point x="1426" y="688"/>
      <point x="1433" y="643"/>
      <point x="1399" y="555" type="curve" smooth="yes"/>
      <point x="1301" y="277" type="line" smooth="yes"/>
      <point x="1237" y="94"/>
      <point x="1270" y="-30"/>
      <point x="1470" y="-30" type="curve" smooth="yes"/>
      <point x="1652" y="-30"/>
      <point x="1790" y="53"/>
      <point x="1852" y="177" type="curve" smooth="yes"/>
      <point x="1883" y="233"/>
      <point x="1879" y="270"/>
      <point x="1852" y="283" type="curve" smooth="yes"/>
      <point x="1834" y="293"/>
      <point x="1816" y="290"/>
      <point x="1782" y="264" type="curve" smooth="yes"/>
      <point x="1761" y="246"/>
      <point x="1749" y="240"/>
      <point x="1732" y="240" type="curve" smooth="yes"/>
      <point x="1707" y="240"/>
      <point x="1688" y="271"/>
      <point x="1720" y="361" type="curve" smooth="yes"/>
      <point x="1818" y="640" type="line" smooth="yes"/>
      <point x="1886" y="832"/>
      <point x="1843" y="970"/>
      <point x="1650" y="970" type="curve"/>
      <point x="1465" y="970"/>
      <point x="1231" y="854"/>
      <point x="1091" y="488" type="curve"/>
      <point x="1133" y="479" type="line"/>
      <point x="1142" y="594"/>
      <point x="1252" y="744"/>
      <point x="1252" y="842" type="curve" smooth="yes"/>
      <point x="1252" y="924"/>
      <point x="1185" y="970"/>
      <point x="1055" y="970" type="curve" smooth="yes"/>
      <point x="870" y="970"/>
      <point x="636" y="854"/>
      <point x="496" y="488" type="curve"/>
      <point x="530" y="479" type="line"/>
      <point x="539" y="594"/>
      <point x="653" y="744"/>
      <point x="653" y="842" type="curve" smooth="yes"/>
      <point x="653" y="925"/>
      <point x="592" y="970"/>
      <point x="480" y="970" type="curve" smooth="yes"/>
      <point x="297" y="970"/>
      <point x="156" y="887"/>
      <point x="92" y="763" type="curve" smooth="yes"/>
      <point x="63" y="707"/>
      <point x="67" y="670"/>
      <point x="92" y="657" type="curve" smooth="yes"/>
      <point x="112" y="647"/>
      <point x="130" y="650"/>
      <point x="162" y="676" type="curve" smooth="yes"/>
      <point x="185" y="694"/>
      <point x="197" y="700"/>
      <point x="212" y="700" type="curve" smooth="yes"/>
      <point x="239" y="700"/>
      <point x="256" y="669"/>
      <point x="222" y="579" type="curve" smooth="yes"/>
      <point x="89" y="226" type="line" smooth="yes"/>
      <point x="30" y="69"/>
      <point x="56" y="-30"/>
      <point x="202" y="-30" type="curve" smooth="yes"/>
      <point x="409" y="-30"/>
      <point x="529" y="29"/>
      <point x="529" y="120" type="curve" smooth="yes"/>
      <point x="529" y="168"/>
      <point x="506" y="201"/>
      <point x="506" y="245" type="curve" smooth="yes"/>
      <point x="506" y="288"/>
      <point x="528" y="352"/>
      <point x="565" y="448" type="curve" smooth="yes"/>
      <point x="620" y="591"/>
      <point x="706" y="688"/>
      <point x="776" y="688" type="curve" smooth="yes"/>
      <point x="829" y="688"/>
      <point x="833" y="644"/>
      <point x="802" y="555" type="curve" smooth="yes"/>
    </contour>
  </outline>
</glyph>
<glyph name="p" format="2">
  <advance width="1261"/>
  <unicode hex="0070"/>
  <outline>
    <contour>
      <point x="706" y="957" type="line" smooth="yes"/>
      <point x="743" y="1098"/>
      <point x="720.0" y="1164.0"/>
      <point x="614" y="1164" type="curve" smooth="yes"/>
      <point x="503.0" y="1164.0"/>
      <point x="361" y="1091"/>
      <point x="322" y="949" type="curve" smooth="yes"/>
      <point x="-5" y="-243" type="line" smooth="yes"/>
      <point x="-18" y="-290"/>
      <point x="-33" y="-306"/>
      <point x="-84" y="-334" type="curve" smooth="yes"/>
      <point x="-143.0" y="-366"/>
      <point x="-160.0" y="-390.0"/>
      <point x="-160" y="-426" type="curve" smooth="yes"/>
      <point x="-160.0" y="-464.0"/>
      <point x="-129" y="-490"/>
      <point x="-84" y="-489" type="curve" smooth="yes"/>
      <point x="463" y="-480" type="line" smooth="yes"/>
      <point x="521" y="-479"/>
      <point x="562" y="-449"/>
      <point x="561" y="-406" type="curve"/>
      <point x="561.0" y="-373"/>
      <point x="541" y="-347"/>
      <point x="491" y="-336" type="curve" smooth="yes"/>
      <point x="438" y="-324" type="line" smooth="yes"/>
      <point x="391" y="-313"/>
      <point x="380" y="-284"/>
      <point x="398" y="-217" type="curve" smooth="yes"/>
    </contour>
    <contour>
      <point x="188" y="648" type="curve" smooth="yes"/>
      <point x="366.0" y="789.0"/>
      <point x="544.0" y="835.0"/>
      <point x="677" y="824" type="curve" smooth="yes"/>
      <point x="780.4839701143657" y="815.6094078285649"/>
      <point x="832.9470495387894" y="710.6678561978608"/>
      <point x="800" y="504" type="curve" smooth="yes"/>
      <point x="757.040758846618" y="238.25213612093972"/>
      <point x="674.0175810559471" y="134.03829248984667"/>
      <point x="574" y="135" type="curve" smooth="yes"/>
      <point x="523" y="136"/>
      <point x="484" y="170"/>
      <point x="457" y="227" type="curve"/>
      <point x="348" y="173" type="line"/>
      <point x="371" y="60"/>
      <point x="489" y="-30"/>
      <point x="683" y="-30" type="curve" smooth="yes"/>
      <point x="965.0" y="-30.0"/>
      <point x="1172" y="153"/>
      <point x="1210" y="448" type="curve" smooth="yes"/>
      <point x="1253" y="788"/>
      <point x="1067.0" y="970.0"/>
      <point x="752" y="970" type="curve" smooth="yes"/>
      <point x="481.0" y="970.0"/>
      <point x="262.0" y="883.0"/>
      <point x="127" y="762" type="curve" smooth="yes"/>
      <point x="79" y="719"/>
      <point x="63" y="669"/>
      <point x="85" y="642" type="curve" smooth="yes"/>
      <point x="107" y="615"/>
      <point x="150" y="618"/>
    </contour>
  </outline>
</glyph>
<glyph name="q" format="2">
  <advance width="1200"/>
  <unicode hex="0071"/>
  <outline>
    <contour>
      <point x="670" y="304" type="line"/>
      <point x="502" y="-242" type="line" smooth="yes"/>
      <point x="482" y="-306"/>
      <point x="457.0" y="-329.0"/>
      <point x="392" y="-348" type="curve" smooth="yes"/>
      <point x="327" y="-367"/>
      <point x="300.0" y="-394.0"/>
      <point x="300.0" y="-433" type="curve" smooth="yes"/>
      <point x="300" y="-470"/>
      <point x="325" y="-491"/>
      <point x="378" y="-490" type="curve" smooth="yes"/>
      <point x="909" y="-480" type="line" smooth="yes"/>
      <point x="963" y="-479"/>
      <point x="998.0" y="-460.0"/>
      <point x="998.0" y="-416" type="curve" smooth="yes"/>
      <point x="998.0" y="-391.0"/>
      <point x="985" y="-374"/>
      <point x="958" y="-357" type="curve" smooth="yes"/>
      <point x="924" y="-335" type="line" smooth="yes"/>
      <point x="894" y="-316"/>
      <point x="889" y="-288"/>
      <point x="908" y="-211" type="curve" smooth="yes"/>
      <point x="1132" y="696" type="line" smooth="yes"/>
      <point x="1150" y="769"/>
      <point x="1219" y="755"/>
      <point x="1229" y="827" type="curve" smooth="yes"/>
      <point x="1240" y="907"/>
      <point x="1109" y="970"/>
      <point x="823" y="970" type="curve" smooth="yes"/>
      <point x="342" y="970"/>
      <point x="73" y="639"/>
      <point x="34" y="322" type="curve" smooth="yes"/>
      <point x="5" y="87"/>
      <point x="114" y="-30"/>
      <point x="301" y="-30" type="curve" smooth="yes"/>
      <point x="496" y="-30"/>
      <point x="673" y="90"/>
      <point x="723" y="273" type="curve"/>
    </contour>
    <contour>
      <point x="454" y="327" type="curve" smooth="yes"/>
      <point x="480" y="544"/>
      <point x="601" y="822"/>
      <point x="718" y="822" type="curve" smooth="yes"/>
      <point x="762" y="822"/>
      <point x="777" y="777"/>
      <point x="759" y="673" type="curve" smooth="yes"/>
      <point x="711" y="395"/>
      <point x="587" y="193"/>
      <point x="498" y="193" type="curve" smooth="yes"/>
      <point x="466" y="193"/>
      <point x="442" y="226"/>
    </contour>
  </outline>
</glyph>
<glyph name="r" format="2">
  <advance width="1124"/>
  <unicode hex="0072"/>
  <anchor x="717" y="945" name="center"/>
  <outline>
    <contour>
      <point x="92" y="657" type="curve" smooth="yes"/>
      <point x="112" y="647"/>
      <point x="130" y="650"/>
      <point x="162" y="676" type="curve" smooth="yes"/>
      <point x="185" y="694"/>
      <point x="197" y="700"/>
      <point x="212" y="700" type="curve" smooth="yes"/>
      <point x="239" y="700"/>
      <point x="256" y="669"/>
      <point x="222" y="579" type="curve" smooth="yes"/>
      <point x="89" y="226" type="line" smooth="yes"/>
      <point x="30" y="69"/>
      <point x="56" y="-30"/>
      <point x="216" y="-30" type="curve" smooth="yes"/>
      <point x="465" y="-30"/>
      <point x="585" y="29"/>
      <point x="585" y="112" type="curve" smooth="yes"/>
      <point x="585" y="185"/>
      <point x="521" y="178"/>
      <point x="521" y="252" type="curve" smooth="yes"/>
      <point x="521" y="301"/>
      <point x="532" y="353"/>
      <point x="565" y="448" type="curve" smooth="yes"/>
      <point x="639" y="657"/>
      <point x="684" y="712"/>
      <point x="730" y="712" type="curve" smooth="yes"/>
      <point x="751" y="712"/>
      <point x="767" y="697"/>
      <point x="767" y="670" type="curve" smooth="yes"/>
      <point x="767" y="635"/>
      <point x="749" y="600"/>
      <point x="749" y="562" type="curve" smooth="yes"/>
      <point x="749" y="513"/>
      <point x="786" y="464"/>
      <point x="882" y="464" type="curve" smooth="yes"/>
      <point x="1010" y="464"/>
      <point x="1127" y="569"/>
      <point x="1134" y="747" type="curve" smooth="yes"/>
      <point x="1139" y="880"/>
      <point x="1065" y="970"/>
      <point x="934" y="970" type="curve" smooth="yes"/>
      <point x="793" y="970"/>
      <point x="599" y="863"/>
      <point x="501" y="486" type="curve"/>
      <point x="521" y="479" type="line"/>
      <point x="530" y="594"/>
      <point x="622" y="744"/>
      <point x="622" y="842" type="curve" smooth="yes"/>
      <point x="622" y="925"/>
      <point x="572" y="970"/>
      <point x="471" y="970" type="curve" smooth="yes"/>
      <point x="297" y="970"/>
      <point x="156" y="887"/>
      <point x="92" y="763" type="curve" smooth="yes"/>
      <point x="63" y="707"/>
      <point x="67" y="670"/>
    </contour>
  </outline>
</glyph>
<glyph name="s" format="2">
  <advance width="1056"/>
  <unicode hex="0073"/>
  <anchor x="707" y="1004" name="center"/>
  <outline>
    <contour>
      <point x="464" y="100" type="curve" smooth="yes"/>
      <point x="402" y="100"/>
      <point x="356" y="129"/>
      <point x="307" y="221" type="curve" smooth="yes"/>
      <point x="260" y="320"/>
      <point x="214" y="370"/>
      <point x="133" y="370" type="curve" smooth="yes"/>
      <point x="64" y="370"/>
      <point x="22" y="315"/>
      <point x="20" y="227" type="curve" smooth="yes"/>
      <point x="19" y="85"/>
      <point x="136" y="-30"/>
      <point x="437" y="-30" type="curve" smooth="yes"/>
      <point x="746" y="-30"/>
      <point x="950" y="102"/>
      <point x="950" y="290" type="curve" smooth="yes"/>
      <point x="950" y="414"/>
      <point x="901" y="484"/>
      <point x="709" y="588" type="curve" smooth="yes"/>
      <point x="560" y="669"/>
      <point x="529" y="717"/>
      <point x="529" y="769" type="curve" smooth="yes"/>
      <point x="529" y="819"/>
      <point x="560" y="845"/>
      <point x="609" y="845" type="curve" smooth="yes"/>
      <point x="677" y="845"/>
      <point x="727" y="802"/>
      <point x="774" y="715" type="curve" smooth="yes"/>
      <point x="824" y="607"/>
      <point x="868" y="572"/>
      <point x="933" y="572" type="curve" smooth="yes"/>
      <point x="1003" y="572"/>
      <point x="1045" y="625"/>
      <point x="1044" y="724" type="curve" smooth="yes"/>
      <point x="1043" y="867"/>
      <point x="921" y="970"/>
      <point x="658" y="970" type="curve" smooth="yes"/>
      <point x="321" y="970"/>
      <point x="136" y="815"/>
      <point x="136" y="633" type="curve" smooth="yes"/>
      <point x="136" y="504"/>
      <point x="203" y="429"/>
      <point x="375" y="346" type="curve" smooth="yes"/>
      <point x="524" y="274"/>
      <point x="553" y="241"/>
      <point x="553" y="183" type="curve" smooth="yes"/>
      <point x="553" y="134"/>
      <point x="520" y="100"/>
    </contour>
  </outline>
</glyph>
<glyph name="w" format="2">
  <advance width="1913"/>
  <unicode hex="0077"/>
  <anchor x="1344" y="1013" name="center"/>
  <outline>
    <contour>
      <point x="1309" y="970" type="curve" smooth="yes"/>
      <point x="1173" y="972"/>
      <point x="1045" y="849"/>
      <point x="978" y="599" type="curve" smooth="yes"/>
      <point x="882" y="240"/>
      <point x="967" y="-30"/>
      <point x="1288" y="-30" type="curve" smooth="yes"/>
      <point x="1590" y="-30"/>
      <point x="1836" y="290"/>
      <point x="1877" y="622" type="curve" smooth="yes"/>
      <point x="1909" y="834"/>
      <point x="1843" y="970"/>
      <point x="1689" y="970" type="curve" smooth="yes"/>
      <point x="1561" y="970"/>
      <point x="1473" y="870"/>
      <point x="1470" y="770" type="curve" smooth="yes"/>
      <point x="1468" y="697"/>
      <point x="1492" y="647"/>
      <point x="1534" y="607" type="curve" smooth="yes"/>
      <point x="1575" y="565"/>
      <point x="1600" y="497"/>
      <point x="1588" y="417" type="curve" smooth="yes"/>
      <point x="1563" y="267"/>
      <point x="1483" y="152"/>
      <point x="1391" y="152" type="curve" smooth="yes"/>
      <point x="1306" y="152"/>
      <point x="1235" y="261"/>
      <point x="1354" y="728" type="curve"/>
      <point x="1185" y="328"/>
      <point x="997" y="189"/>
      <point x="848" y="189" type="curve" smooth="yes"/>
      <point x="769" y="189"/>
      <point x="730" y="220"/>
      <point x="730" y="314" type="curve" smooth="yes"/>
      <point x="730" y="580"/>
      <point x="906" y="737"/>
      <point x="906" y="866" type="curve" smooth="yes"/>
      <point x="906" y="934"/>
      <point x="863" y="970"/>
      <point x="810" y="970" type="curve" smooth="yes"/>
      <point x="734" y="970"/>
      <point x="713" y="920"/>
      <point x="631" y="920" type="curve" smooth="yes"/>
      <point x="563" y="920"/>
      <point x="488" y="970"/>
      <point x="366" y="970" type="curve" smooth="yes"/>
      <point x="159" y="970"/>
      <point x="16" y="826"/>
      <point x="7" y="630" type="curve" smooth="yes"/>
      <point x="0" y="479"/>
      <point x="70" y="388"/>
      <point x="170" y="388" type="curve" smooth="yes"/>
      <point x="225" y="388"/>
      <point x="275" y="423"/>
      <point x="276" y="487" type="curve" smooth="yes"/>
      <point x="277" y="532"/>
      <point x="254" y="559"/>
      <point x="202" y="585" type="curve" smooth="yes"/>
      <point x="163" y="604"/>
      <point x="149" y="625"/>
      <point x="151" y="653" type="curve" smooth="yes"/>
      <point x="153" y="679"/>
      <point x="170" y="698"/>
      <point x="211" y="697" type="curve" smooth="yes"/>
      <point x="355" y="693"/>
      <point x="463" y="578"/>
      <point x="700" y="578" type="curve"/>
      <point x="713" y="636" type="line"/>
      <point x="616" y="484"/>
      <point x="216" y="435"/>
      <point x="216" y="169" type="curve" smooth="yes"/>
      <point x="216" y="39"/>
      <point x="321" y="-30"/>
      <point x="514" y="-30" type="curve" smooth="yes"/>
      <point x="945" y="-30"/>
      <point x="1264" y="175"/>
      <point x="1396" y="674" type="curve" smooth="yes"/>
      <point x="1444" y="856"/>
      <point x="1398" y="969"/>
    </contour>
  </outline>
</glyph>
<glyph name="y" format="2">
  <advance width="1177"/>
  <unicode hex="0079"/>
  <anchor x="752" y="1003" name="center"/>
  <outline>
    <contour>
      <point x="760" y="652" type="curve" smooth="yes"/>
      <point x="573" y="21" type="line"/>
      <point x="622" y="16" type="line"/>
      <point x="620" y="228"/>
      <point x="598" y="582"/>
      <point x="578" y="755" type="curve" smooth="yes"/>
      <point x="562" y="899"/>
      <point x="485" y="970"/>
      <point x="375" y="970" type="curve" smooth="yes"/>
      <point x="201" y="970"/>
      <point x="59" y="864"/>
      <point x="22" y="732" type="curve" smooth="yes"/>
      <point x="6" y="677"/>
      <point x="27" y="653"/>
      <point x="47" y="649" type="curve" smooth="yes"/>
      <point x="66" y="645"/>
      <point x="83" y="650"/>
      <point x="99" y="668" type="curve" smooth="yes"/>
      <point x="122" y="694"/>
      <point x="136" y="702"/>
      <point x="149" y="702" type="curve" smooth="yes"/>
      <point x="170" y="702"/>
      <point x="189" y="678"/>
      <point x="199" y="625" type="curve" smooth="yes"/>
      <point x="246" y="378"/>
      <point x="307" y="-14"/>
      <point x="307" y="-181" type="curve" smooth="yes"/>
      <point x="307" y="-295"/>
      <point x="274" y="-327"/>
      <point x="225" y="-327" type="curve" smooth="yes"/>
      <point x="98" y="-327"/>
      <point x="128" y="-54"/>
      <point x="-54" y="-54" type="curve" smooth="yes"/>
      <point x="-154" y="-54"/>
      <point x="-226" y="-141"/>
      <point x="-226" y="-244" type="curve" smooth="yes"/>
      <point x="-226" y="-394"/>
      <point x="-119" y="-490"/>
      <point x="84" y="-490" type="curve" smooth="yes"/>
      <point x="366" y="-490"/>
      <point x="575" y="-347"/>
      <point x="704" y="40" type="curve" smooth="yes"/>
      <point x="776" y="255" type="line" smooth="yes"/>
      <point x="823" y="394"/>
      <point x="889" y="449"/>
      <point x="999" y="505" type="curve" smooth="yes"/>
      <point x="1120" y="566"/>
      <point x="1203" y="652"/>
      <point x="1203" y="787" type="curve" smooth="yes"/>
      <point x="1203" y="897"/>
      <point x="1140" y="970"/>
      <point x="1041" y="970" type="curve" smooth="yes"/>
      <point x="916" y="970"/>
      <point x="823" y="864"/>
    </contour>
  </outline>
</glyph>
<glyph name="asciitilde" format="2">
  <advance width="1263"/>
  <unicode hex="007E"/>
  <outline>
    <contour>
      <point x="892" y="501" type="curve" smooth="yes"/>
      <point x="1061" y="501"/>
      <point x="1235" y="629"/>
      <point x="1279" y="791" type="curve" smooth="yes"/>
      <point x="1297" y="851"/>
      <point x="1281" y="881"/>
      <point x="1229" y="881" type="curve" smooth="yes"/>
      <point x="1193" y="881"/>
      <point x="1154" y="860"/>
      <point x="1124" y="813" type="curve" smooth="yes"/>
      <point x="1090" y="728"/>
      <point x="1017" y="686"/>
      <point x="937" y="686" type="curve" smooth="yes"/>
      <point x="822" y="686"/>
      <point x="728" y="877"/>
      <point x="505" y="877" type="curve" smooth="yes"/>
      <point x="334" y="877"/>
      <point x="160" y="738"/>
      <point x="118" y="584" type="curve" smooth="yes"/>
      <point x="101" y="524"/>
      <point x="119" y="495"/>
      <point x="169" y="495" type="curve" smooth="yes"/>
      <point x="205" y="495"/>
      <point x="242" y="516"/>
      <point x="266" y="552" type="curve" smooth="yes"/>
      <point x="308" y="642"/>
      <point x="379" y="692"/>
      <point x="462" y="692" type="curve" smooth="yes"/>
      <point x="607" y="692"/>
      <point x="722" y="501"/>
    </contour>
  </outline>
</glyph>
<glyph name="currency" format="2">
  <advance width="1164"/>
  <unicode hex="00A4"/>
  <outline>
    <contour>
      <point x="530" y="306" type="curve" smooth="yes"/>
      <point x="317" y="306"/>
      <point x="184" y="450"/>
      <point x="245" y="674" type="curve" smooth="yes"/>
      <point x="304" y="893"/>
      <point x="515" y="1032"/>
      <point x="727" y="1032" type="curve" smooth="yes"/>
      <point x="940" y="1032"/>
      <point x="1076" y="890"/>
      <point x="1016" y="667" type="curve" smooth="yes"/>
      <point x="956" y="447"/>
      <point x="743" y="306"/>
    </contour>
    <contour>
      <point x="569" y="430" type="curve" smooth="yes"/>
      <point x="704" y="430"/>
      <point x="819" y="538"/>
      <point x="853" y="670" type="curve" smooth="yes"/>
      <point x="888" y="803"/>
      <point x="827" y="910"/>
      <point x="692" y="910" type="curve" smooth="yes"/>
      <point x="556" y="910"/>
      <point x="445" y="803"/>
      <point x="410" y="670" type="curve" smooth="yes"/>
      <point x="376" y="538"/>
      <point x="433" y="430"/>
    </contour>
    <contour>
      <point x="972" y="205" type="curve" smooth="yes"/>
      <point x="923" y="169"/>
      <point x="873" y="183"/>
      <point x="844" y="218" type="curve" smooth="yes"/>
      <point x="715" y="397" type="line"/>
      <point x="869" y="505" type="line"/>
      <point x="998" y="324" type="line" smooth="yes"/>
      <point x="1026" y="289"/>
      <point x="1022" y="240"/>
    </contour>
    <contour>
      <point x="286" y="1128" type="curve" smooth="yes"/>
      <point x="335" y="1164"/>
      <point x="386" y="1150"/>
      <point x="414" y="1115" type="curve" smooth="yes"/>
      <point x="543" y="935" type="line"/>
      <point x="390" y="828" type="line"/>
      <point x="261" y="1009" type="line" smooth="yes"/>
      <point x="233" y="1043"/>
      <point x="236" y="1093"/>
    </contour>
    <contour>
      <point x="71" y="216" type="curve" smooth="yes"/>
      <point x="42" y="251"/>
      <point x="61" y="293"/>
      <point x="106" y="332" type="curve" smooth="yes"/>
      <point x="299" y="512" type="line"/>
      <point x="397" y="398" type="line"/>
      <point x="202" y="218" type="line" smooth="yes"/>
      <point x="156" y="179"/>
      <point x="98" y="181"/>
    </contour>
    <contour>
      <point x="1188" y="1121" type="curve" smooth="yes"/>
      <point x="1217" y="1086"/>
      <point x="1198" y="1043"/>
      <point x="1153" y="1005" type="curve" smooth="yes"/>
      <point x="960" y="825" type="line"/>
      <point x="861" y="939" type="line"/>
      <point x="1056" y="1118" type="line" smooth="yes"/>
      <point x="1102" y="1158"/>
      <point x="1160" y="1156"/>
    </contour>
  </outline>
</glyph>
<glyph name="brokenbar" format="2">
  <advance width="690"/>
  <unicode hex="00A6"/>
  <outline>
    <contour>
      <point x="508" y="807" type="curve" smooth="yes"/>
      <point x="549" y="958"/>
      <point x="683" y="1259"/>
      <point x="722" y="1403" type="curve" smooth="yes"/>
      <point x="744" y="1487"/>
      <point x="715" y="1536"/>
      <point x="630" y="1536" type="curve" smooth="yes"/>
      <point x="545" y="1536"/>
      <point x="488" y="1487"/>
      <point x="466" y="1403" type="curve" smooth="yes"/>
      <point x="427" y="1259"/>
      <point x="401" y="958"/>
      <point x="360" y="807" type="curve" smooth="yes"/>
      <point x="341" y="736"/>
      <point x="361" y="704"/>
      <point x="407" y="704" type="curve" smooth="yes"/>
      <point x="458" y="704"/>
      <point x="489" y="734"/>
    </contour>
    <contour>
      <point x="256" y="417" type="curve" smooth="yes"/>
      <point x="215" y="266"/>
      <point x="81" y="-35"/>
      <point x="42" y="-179" type="curve" smooth="yes"/>
      <point x="20" y="-263"/>
      <point x="49" y="-312"/>
      <point x="134" y="-312" type="curve" smooth="yes"/>
      <point x="219" y="-312"/>
      <point x="276" y="-263"/>
      <point x="298" y="-179" type="curve" smooth="yes"/>
      <point x="337" y="-35"/>
      <point x="363" y="266"/>
      <point x="404" y="417" type="curve" smooth="yes"/>
      <point x="423" y="488"/>
      <point x="402" y="520"/>
      <point x="357" y="520" type="curve" smooth="yes"/>
      <point x="306" y="520"/>
      <point x="275" y="490"/>
    </contour>
  </outline>
</glyph>
<glyph name="copyright" format="2">
  <advance width="1852"/>
  <unicode hex="00A9"/>
  <anchor x="1188.5568475452196" y="1377" name="center"/>
  <outline>
    <contour>
      <point x="749" y="-120" type="curve" smooth="yes"/>
      <point x="258" y="-120"/>
      <point x="-1" y="266"/>
      <point x="145" y="776" type="curve" smooth="yes"/>
      <point x="274" y="1236"/>
      <point x="732" y="1563"/>
      <point x="1228" y="1563" type="curve" smooth="yes"/>
      <point x="1719" y="1563"/>
      <point x="1986" y="1189"/>
      <point x="1837" y="671" type="curve" smooth="yes"/>
      <point x="1703" y="194"/>
      <point x="1242" y="-120"/>
    </contour>
    <contour>
      <point x="786" y="-3" type="curve" smooth="yes"/>
      <point x="1191" y="-3"/>
      <point x="1578" y="274"/>
      <point x="1690" y="671" type="curve" smooth="yes"/>
      <point x="1817" y="1117"/>
      <point x="1593" y="1446"/>
      <point x="1191" y="1446" type="curve" smooth="yes"/>
      <point x="777" y="1446"/>
      <point x="402" y="1168"/>
      <point x="294" y="777" type="curve" smooth="yes"/>
      <point x="168" y="329"/>
      <point x="376" y="-3"/>
    </contour>
    <contour>
      <point x="1411" y="513" type="curve" smooth="yes"/>
      <point x="1418" y="535"/>
      <point x="1412" y="550"/>
      <point x="1392" y="558" type="curve" smooth="yes"/>
      <point x="1372" y="566"/>
      <point x="1345" y="560"/>
      <point x="1318" y="539" type="curve" smooth="yes"/>
      <point x="1238" y="438"/>
      <point x="1155" y="379"/>
      <point x="1072" y="379" type="curve" smooth="yes"/>
      <point x="925" y="379"/>
      <point x="864" y="508"/>
      <point x="936" y="776" type="curve" smooth="yes"/>
      <point x="997" y="998"/>
      <point x="1082" y="1135"/>
      <point x="1201" y="1135" type="curve" smooth="yes"/>
      <point x="1271" y="1135"/>
      <point x="1328" y="1085"/>
      <point x="1340" y="909" type="curve" smooth="yes"/>
      <point x="1350" y="871"/>
      <point x="1384" y="859"/>
      <point x="1423" y="864" type="curve" smooth="yes"/>
      <point x="1469" y="872"/>
      <point x="1505" y="896"/>
      <point x="1504" y="932" type="curve" smooth="yes"/>
      <point x="1522" y="1185" type="line" smooth="yes"/>
      <point x="1521" y="1227"/>
      <point x="1517" y="1244"/>
      <point x="1475" y="1244" type="curve" smooth="yes"/>
      <point x="1447" y="1244"/>
      <point x="1393" y="1209"/>
      <point x="1352" y="1209" type="curve" smooth="yes"/>
      <point x="1307" y="1209"/>
      <point x="1280" y="1252"/>
      <point x="1153" y="1252" type="curve" smooth="yes"/>
      <point x="871" y="1252"/>
      <point x="588" y="1032"/>
      <point x="511" y="752" type="curve" smooth="yes"/>
      <point x="420" y="428"/>
      <point x="584" y="179"/>
      <point x="860" y="179" type="curve" smooth="yes"/>
      <point x="1138" y="179"/>
      <point x="1365" y="354"/>
    </contour>
  </outline>
</glyph>
<glyph name="ordfeminine" format="2">
  <advance width="1208"/>
  <unicode hex="00AA"/>
  <outline>
    <contour>
      <point x="1067" y="906" type="curve" smooth="yes"/>
      <point x="1143" y="1202" type="line" smooth="yes"/>
      <point x="1160" y="1255"/>
      <point x="1222" y="1255"/>
      <point x="1229" y="1313" type="curve" smooth="yes"/>
      <point x="1239" y="1380"/>
      <point x="1124" y="1435"/>
      <point x="850" y="1435" type="curve" smooth="yes"/>
      <point x="452" y="1435"/>
      <point x="206" y="1149"/>
      <point x="181" y="870" type="curve" smooth="yes"/>
      <point x="160" y="675"/>
      <point x="252" y="575"/>
      <point x="404" y="575" type="curve" smooth="yes"/>
      <point x="581" y="575"/>
      <point x="683" y="657"/>
      <point x="778" y="834" type="curve"/>
      <point x="759" y="902" type="line"/>
      <point x="746" y="844"/>
      <point x="735" y="776"/>
      <point x="735" y="718" type="curve" smooth="yes"/>
      <point x="735" y="630"/>
      <point x="782" y="575"/>
      <point x="866" y="575" type="curve" smooth="yes"/>
      <point x="1026" y="575"/>
      <point x="1143" y="651"/>
      <point x="1188" y="764" type="curve" smooth="yes"/>
      <point x="1206" y="812"/>
      <point x="1200" y="838"/>
      <point x="1182" y="846" type="curve" smooth="yes"/>
      <point x="1171" y="851"/>
      <point x="1156" y="850"/>
      <point x="1142" y="839" type="curve" smooth="yes"/>
      <point x="1119" y="816"/>
      <point x="1107" y="804"/>
      <point x="1085" y="804" type="curve" smooth="yes"/>
      <point x="1056" y="804"/>
      <point x="1047" y="834"/>
    </contour>
    <contour>
      <point x="548" y="875" type="curve" smooth="yes"/>
      <point x="571" y="1063"/>
      <point x="681" y="1305"/>
      <point x="776" y="1305" type="curve" smooth="yes"/>
      <point x="815" y="1305"/>
      <point x="830" y="1261"/>
      <point x="817" y="1190" type="curve" smooth="yes"/>
      <point x="772" y="936"/>
      <point x="665" y="762"/>
      <point x="587" y="762" type="curve" smooth="yes"/>
      <point x="558" y="762"/>
      <point x="536" y="790"/>
    </contour>
  </outline>
</glyph>
<glyph name="logicalnot" format="2">
  <advance width="1143"/>
  <unicode hex="00AC"/>
  <outline>
    <contour>
      <point x="182" y="776" type="curve" smooth="yes"/>
      <point x="166" y="723"/>
      <point x="197" y="693"/>
      <point x="242" y="693" type="curve" smooth="yes"/>
      <point x="909" y="693" type="line"/>
      <point x="885" y="721" type="line"/>
      <point x="811" y="441" type="line" smooth="yes"/>
      <point x="797" y="395"/>
      <point x="825" y="356"/>
      <point x="890" y="356" type="curve" smooth="yes"/>
      <point x="948" y="356"/>
      <point x="993" y="392"/>
      <point x="1005" y="433" type="curve" smooth="yes"/>
      <point x="1096" y="765" type="line" smooth="yes"/>
      <point x="1115" y="829"/>
      <point x="1081" y="862"/>
      <point x="1018" y="862" type="curve" smooth="yes"/>
      <point x="294" y="862" type="line" smooth="yes"/>
      <point x="247" y="862"/>
      <point x="197" y="829"/>
    </contour>
  </outline>
</glyph>
<glyph name="degree" format="2">
  <advance width="796"/>
  <unicode hex="00B0"/>
  <outline>
    <contour>
      <point x="651" y="1433" type="curve" smooth="yes"/>
      <point x="465" y="1433"/>
      <point x="303" y="1300"/>
      <point x="257" y="1132" type="curve" smooth="yes"/>
      <point x="209" y="958"/>
      <point x="307" y="833"/>
      <point x="487" y="833" type="curve" smooth="yes"/>
      <point x="664" y="833"/>
      <point x="831" y="952"/>
      <point x="879" y="1126" type="curve" smooth="yes"/>
      <point x="929" y="1307"/>
      <point x="832" y="1433"/>
    </contour>
    <contour>
      <point x="615" y="1310" type="curve" smooth="yes"/>
      <point x="710" y="1310"/>
      <point x="757" y="1235"/>
      <point x="729" y="1129" type="curve" smooth="yes"/>
      <point x="703" y="1027"/>
      <point x="614" y="956"/>
      <point x="523" y="956" type="curve" smooth="yes"/>
      <point x="430" y="956"/>
      <point x="380" y="1028"/>
      <point x="407" y="1132" type="curve" smooth="yes"/>
      <point x="433" y="1232"/>
      <point x="518" y="1310"/>
    </contour>
  </outline>
</glyph>
<glyph name="mu.math" format="2">
  <advance width="1329"/>
  <unicode hex="00B5"/>
  <outline>
    <contour>
      <point x="96" y="286" type="line"/>
      <point x="24" y="15"/>
      <point x="-163" y="-159"/>
      <point x="-194" y="-273" type="curve" smooth="yes"/>
      <point x="-228" y="-395"/>
      <point x="-178" y="-477"/>
      <point x="-71" y="-477" type="curve" smooth="yes"/>
      <point x="21" y="-477"/>
      <point x="113" y="-413"/>
      <point x="138" y="-320" type="curve" smooth="yes"/>
      <point x="179" y="-172"/>
      <point x="53" y="-49"/>
      <point x="136" y="260" type="curve"/>
    </contour>
    <contour>
      <point x="185" y="537" type="curve" smooth="yes"/>
      <point x="103" y="303" type="line" smooth="yes"/>
      <point x="29" y="113"/>
      <point x="57" y="-27"/>
      <point x="240" y="-27" type="curve" smooth="yes"/>
      <point x="436" y="-27"/>
      <point x="650" y="90"/>
      <point x="831" y="455" type="curve"/>
      <point x="794" y="464" type="line"/>
      <point x="785" y="349"/>
      <point x="672" y="200"/>
      <point x="672" y="100" type="curve" smooth="yes"/>
      <point x="672" y="17"/>
      <point x="732" y="-27"/>
      <point x="845" y="-27" type="curve" smooth="yes"/>
      <point x="1000" y="-27"/>
      <point x="1161" y="63"/>
      <point x="1245" y="195" type="curve" smooth="yes"/>
      <point x="1276" y="237"/>
      <point x="1273" y="276"/>
      <point x="1248" y="291" type="curve" smooth="yes"/>
      <point x="1232" y="299"/>
      <point x="1211" y="300"/>
      <point x="1182" y="285" type="curve" smooth="yes"/>
      <point x="1147" y="253"/>
      <point x="1128" y="241"/>
      <point x="1108" y="241" type="curve" smooth="yes"/>
      <point x="1069" y="241"/>
      <point x="1063" y="273"/>
      <point x="1103" y="366" type="curve" smooth="yes"/>
      <point x="1230" y="719" type="line" smooth="yes"/>
      <point x="1300" y="871"/>
      <point x="1263" y="975"/>
      <point x="1118" y="975" type="curve" smooth="yes"/>
      <point x="910" y="975"/>
      <point x="790" y="916"/>
      <point x="790" y="824" type="curve" smooth="yes"/>
      <point x="790" y="776"/>
      <point x="814" y="743"/>
      <point x="814" y="700" type="curve" smooth="yes"/>
      <point x="814" y="656"/>
      <point x="796" y="591"/>
      <point x="760" y="494" type="curve" smooth="yes"/>
      <point x="705" y="331"/>
      <point x="625" y="254"/>
      <point x="556" y="254" type="curve" smooth="yes"/>
      <point x="497" y="254"/>
      <point x="496" y="299"/>
      <point x="523" y="388" type="curve" smooth="yes"/>
      <point x="624" y="719" type="line" smooth="yes"/>
      <point x="682" y="876"/>
      <point x="657" y="975"/>
      <point x="513" y="975" type="curve" smooth="yes"/>
      <point x="305" y="975"/>
      <point x="184" y="916"/>
      <point x="184" y="824" type="curve" smooth="yes"/>
      <point x="184" y="776"/>
      <point x="217" y="743"/>
      <point x="217" y="700" type="curve" smooth="yes"/>
      <point x="217" y="651"/>
      <point x="207" y="606"/>
    </contour>
  </outline>
</glyph>
<glyph name="paragraph" format="2">
  <advance width="1496"/>
  <unicode hex="00B6"/>
  <outline>
    <contour>
      <point x="166" y="945" type="curve" smooth="yes"/>
      <point x="99" y="695"/>
      <point x="233" y="536"/>
      <point x="518" y="536" type="curve" smooth="yes"/>
      <point x="557" y="536"/>
      <point x="596" y="544"/>
      <point x="640" y="551" type="curve"/>
      <point x="558" y="228" type="line" smooth="yes"/>
      <point x="548" y="196"/>
      <point x="521" y="175"/>
      <point x="470" y="161" type="curve" smooth="yes"/>
      <point x="404" y="143" type="line" smooth="yes"/>
      <point x="365" y="132"/>
      <point x="332" y="104"/>
      <point x="318" y="59" type="curve" smooth="yes"/>
      <point x="307" y="23"/>
      <point x="328" y="0"/>
      <point x="365" y="0" type="curve"/>
      <point x="1229" y="0" type="line" smooth="yes"/>
      <point x="1267" y="0"/>
      <point x="1322" y="22"/>
      <point x="1337" y="72" type="curve" smooth="yes"/>
      <point x="1348" y="110"/>
      <point x="1334" y="131"/>
      <point x="1304" y="143" type="curve" smooth="yes"/>
      <point x="1257" y="161" type="line" smooth="yes"/>
      <point x="1223" y="174"/>
      <point x="1215" y="202"/>
      <point x="1227" y="241" type="curve" smooth="yes"/>
      <point x="1460" y="1159" type="line" smooth="yes"/>
      <point x="1472" y="1198"/>
      <point x="1500" y="1222"/>
      <point x="1544" y="1240" type="curve" smooth="yes"/>
      <point x="1603" y="1263" type="line" smooth="yes"/>
      <point x="1634" y="1276"/>
      <point x="1660" y="1298"/>
      <point x="1671" y="1334" type="curve" smooth="yes"/>
      <point x="1684" y="1378"/>
      <point x="1648" y="1400"/>
      <point x="1611" y="1400" type="curve" smooth="yes"/>
      <point x="784" y="1400" type="line" smooth="yes"/>
      <point x="485" y="1400"/>
      <point x="237" y="1218"/>
    </contour>
    <contour>
      <point x="981" y="253" type="line" smooth="yes"/>
      <point x="966" y="205"/>
      <point x="934" y="169"/>
      <point x="874" y="169" type="curve" smooth="yes"/>
      <point x="815" y="169"/>
      <point x="802" y="210"/>
      <point x="814" y="253" type="curve" smooth="yes"/>
      <point x="1040" y="1146" type="line" smooth="yes"/>
      <point x="1053" y="1190"/>
      <point x="1089" y="1232"/>
      <point x="1148" y="1232" type="curve" smooth="yes"/>
      <point x="1209" y="1232"/>
      <point x="1221" y="1196"/>
      <point x="1207" y="1146" type="curve" smooth="yes"/>
    </contour>
  </outline>
</glyph>
<glyph name="ordmasculine" format="2">
  <advance width="1170"/>
  <unicode hex="00BA"/>
  <outline>
    <contour>
      <point x="827" y="1435" type="curve" smooth="yes"/>
      <point x="475" y="1443"/>
      <point x="267" y="1246"/>
      <point x="221" y="994" type="curve" smooth="yes"/>
      <point x="174" y="738"/>
      <point x="301" y="575"/>
      <point x="575" y="567" type="curve" smooth="yes"/>
      <point x="881" y="558"/>
      <point x="1145" y="739"/>
      <point x="1189" y="1002" type="curve" smooth="yes"/>
      <point x="1234" y="1263"/>
      <point x="1107" y="1430"/>
    </contour>
    <contour>
      <point x="625" y="689" type="curve" smooth="yes"/>
      <point x="572" y="693"/>
      <point x="546" y="756"/>
      <point x="591" y="972" type="curve" smooth="yes"/>
      <point x="642" y="1214"/>
      <point x="725" y="1316"/>
      <point x="789" y="1311" type="curve" smooth="yes"/>
      <point x="844" y="1308"/>
      <point x="862" y="1240"/>
      <point x="813" y="1017" type="curve" smooth="yes"/>
      <point x="754" y="745"/>
      <point x="677" y="685"/>
    </contour>
  </outline>
</glyph>
<glyph name="Eth" format="2">
  <advance width="1605"/>
  <unicode hex="00D0"/>
  <outline>
    <contour>
      <point x="108" y="699" type="curve" smooth="yes"/>
      <point x="99" y="667"/>
      <point x="114" y="648"/>
      <point x="144" y="648" type="curve" smooth="yes"/>
      <point x="853" y="648" type="line" smooth="yes"/>
      <point x="884" y="648"/>
      <point x="913" y="667"/>
      <point x="922" y="699" type="curve" smooth="yes"/>
      <point x="931" y="728"/>
      <point x="916" y="749"/>
      <point x="884" y="749" type="curve" smooth="yes"/>
      <point x="177" y="749" type="line" smooth="yes"/>
      <point x="148" y="749"/>
      <point x="118" y="728"/>
    </contour>
    <component base="D" xOffset="7"/>
  </outline>
</glyph>
<glyph name="multiply" format="2">
  <advance width="1128"/>
  <unicode hex="00D7"/>
  <outline>
    <contour>
      <point x="153" y="298" type="curve" smooth="yes"/>
      <point x="183" y="261"/>
      <point x="230" y="267"/>
      <point x="281" y="302" type="curve" smooth="yes"/>
      <point x="1069" y="955" type="line" smooth="yes"/>
      <point x="1124" y="995"/>
      <point x="1131" y="1026"/>
      <point x="1100" y="1064" type="curve" smooth="yes"/>
      <point x="1070" y="1101"/>
      <point x="1025" y="1099"/>
      <point x="979" y="1066" type="curve" smooth="yes"/>
      <point x="191" y="414" type="line" smooth="yes"/>
      <point x="135" y="373"/>
      <point x="123" y="335"/>
    </contour>
    <contour>
      <point x="896" y="299" type="curve" smooth="yes"/>
      <point x="943" y="333"/>
      <point x="956" y="373"/>
      <point x="930" y="405" type="curve" smooth="yes"/>
      <point x="483" y="1064" type="line" smooth="yes"/>
      <point x="455" y="1098"/>
      <point x="412" y="1099"/>
      <point x="363" y="1064" type="curve" smooth="yes"/>
      <point x="313" y="1030"/>
      <point x="300" y="988"/>
      <point x="328" y="954" type="curve" smooth="yes"/>
      <point x="772" y="299" type="line" smooth="yes"/>
      <point x="794" y="270"/>
      <point x="845" y="264"/>
    </contour>
  </outline>
</glyph>
<glyph name="Oslash" format="2">
  <advance width="1574"/>
  <unicode hex="00D8"/>
  <anchor x="1076" y="1546.0" name="center"/>
  <outline>
    <contour>
      <point x="137" y="-139" type="curve" smooth="yes"/>
      <point x="160" y="-151"/>
      <point x="187" y="-143"/>
      <point x="207" y="-119" type="curve" smooth="yes"/>
      <point x="1513" y="1466" type="line" smooth="yes"/>
      <point x="1531" y="1488"/>
      <point x="1530" y="1510"/>
      <point x="1508" y="1522" type="curve" smooth="yes"/>
      <point x="1486" y="1533"/>
      <point x="1458" y="1525"/>
      <point x="1440" y="1503" type="curve" smooth="yes"/>
      <point x="136" y="-80" type="line" smooth="yes"/>
      <point x="116" y="-104"/>
      <point x="116" y="-129"/>
    </contour>
    <component base="O" xOffset="7"/>
  </outline>
</glyph>
<glyph name="Thorn" format="2">
  <advance width="1516"/>
  <unicode hex="00DE"/>
  <outline>
    <contour>
      <point x="592" y="209" type="curve" smooth="yes"/>
      <point x="600" y="239"/>
      <point x="800" y="1044"/>
      <point x="849" y="1183" type="curve" smooth="yes"/>
      <point x="862" y="1223"/>
      <point x="871" y="1233"/>
      <point x="902" y="1245" type="curve" smooth="yes"/>
      <point x="941" y="1258" type="line" smooth="yes"/>
      <point x="972" y="1271"/>
      <point x="999" y="1296"/>
      <point x="1000" y="1334" type="curve" smooth="yes"/>
      <point x="1000" y="1372"/>
      <point x="984" y="1400"/>
      <point x="921" y="1400" type="curve" smooth="yes"/>
      <point x="390" y="1400" type="line" smooth="yes"/>
      <point x="330" y="1400"/>
      <point x="298" y="1368"/>
      <point x="298" y="1323" type="curve" smooth="yes"/>
      <point x="297" y="1294"/>
      <point x="312" y="1278"/>
      <point x="342" y="1263" type="curve" smooth="yes"/>
      <point x="378" y="1248" type="line" smooth="yes"/>
      <point x="406" y="1236"/>
      <point x="412" y="1220"/>
      <point x="405" y="1191" type="curve" smooth="yes"/>
      <point x="373" y="1061"/>
      <point x="193" y="349"/>
      <point x="149" y="217" type="curve" smooth="yes"/>
      <point x="136" y="177"/>
      <point x="126" y="166"/>
      <point x="96" y="155" type="curve" smooth="yes"/>
      <point x="56" y="142" type="line" smooth="yes"/>
      <point x="25" y="129"/>
      <point x="-2" y="104"/>
      <point x="-2" y="66" type="curve" smooth="yes"/>
      <point x="-2" y="28"/>
      <point x="14" y="0"/>
      <point x="76" y="0" type="curve" smooth="yes"/>
      <point x="608" y="0" type="line" smooth="yes"/>
      <point x="667" y="0"/>
      <point x="700" y="32"/>
      <point x="700" y="77" type="curve" smooth="yes"/>
      <point x="701" y="106"/>
      <point x="685" y="122"/>
      <point x="655" y="137" type="curve" smooth="yes"/>
      <point x="620" y="152" type="line" smooth="yes"/>
      <point x="597" y="161"/>
      <point x="584" y="174"/>
    </contour>
    <contour>
      <point x="1528" y="682" type="curve" smooth="yes"/>
      <point x="1607" y="964"/>
      <point x="1401" y="1150"/>
      <point x="1009" y="1150" type="curve" smooth="yes"/>
      <point x="671" y="1150" type="line"/>
      <point x="632" y="1027" type="line"/>
      <point x="830" y="1027" type="line" smooth="yes"/>
      <point x="1019" y="1027"/>
      <point x="1074" y="896"/>
      <point x="1017" y="678" type="curve" smooth="yes"/>
      <point x="961" y="465"/>
      <point x="848" y="389"/>
      <point x="728" y="389" type="curve" smooth="yes"/>
      <point x="620" y="389"/>
      <point x="563" y="428"/>
      <point x="505" y="472" type="curve"/>
      <point x="454" y="368" type="line"/>
      <point x="544" y="304"/>
      <point x="633" y="269"/>
      <point x="801" y="269" type="curve" smooth="yes"/>
      <point x="1178" y="269"/>
      <point x="1453" y="411"/>
    </contour>
  </outline>
</glyph>
<glyph name="ae" format="2">
  <advance width="1726"/>
  <unicode hex="00E6"/>
  <anchor x="1043" y="1023" name="center"/>
  <outline>
    <contour>
      <point x="984" y="453" type="curve"/>
      <point x="994" y="360" type="line"/>
      <point x="994" y="360"/>
      <point x="1449" y="496"/>
      <point x="1614" y="536" type="curve" smooth="yes"/>
      <point x="1685" y="552"/>
      <point x="1706" y="585"/>
      <point x="1706" y="618" type="curve" smooth="yes"/>
      <point x="1706" y="642"/>
      <point x="1694" y="655"/>
      <point x="1674" y="662" type="curve" smooth="yes"/>
      <point x="1657" y="670"/>
      <point x="1648" y="692"/>
      <point x="1643" y="719" type="curve" smooth="yes"/>
      <point x="1619" y="867"/>
      <point x="1529" y="978"/>
      <point x="1321" y="978" type="curve" smooth="yes"/>
      <point x="1151" y="978"/>
      <point x="1008" y="884"/>
      <point x="930" y="748" type="curve"/>
      <point x="1011" y="762" type="line"/>
      <point x="1010" y="889"/>
      <point x="926" y="980"/>
      <point x="724" y="980" type="curve" smooth="yes"/>
      <point x="341" y="980"/>
      <point x="69" y="646"/>
      <point x="39" y="320" type="curve" smooth="yes"/>
      <point x="15" y="95"/>
      <point x="110" y="-26"/>
      <point x="293" y="-26" type="curve" smooth="yes"/>
      <point x="497" y="-26"/>
      <point x="651" y="77"/>
      <point x="754" y="333" type="curve"/>
      <point x="732" y="336" type="line"/>
      <point x="700" y="109"/>
      <point x="832" y="-28"/>
      <point x="1076" y="-28" type="curve" smooth="yes"/>
      <point x="1412" y="-28"/>
      <point x="1622" y="138"/>
      <point x="1653" y="343" type="curve" smooth="yes"/>
      <point x="1655" y="374"/>
      <point x="1640" y="405"/>
      <point x="1602" y="405" type="curve" smooth="yes"/>
      <point x="1565" y="406"/>
      <point x="1543" y="392"/>
      <point x="1504" y="351" type="curve" smooth="yes"/>
      <point x="1441" y="259"/>
      <point x="1354" y="209"/>
      <point x="1253" y="209" type="curve" smooth="yes"/>
      <point x="1120" y="209"/>
      <point x="1055" y="310"/>
      <point x="1074" y="500" type="curve" smooth="yes"/>
      <point x="1095" y="709"/>
      <point x="1168" y="835"/>
      <point x="1242" y="835" type="curve" smooth="yes"/>
      <point x="1287" y="835"/>
      <point x="1310" y="797"/>
      <point x="1310" y="731" type="curve" smooth="yes"/>
      <point x="1309" y="658"/>
      <point x="1299" y="588"/>
      <point x="1284" y="540" type="curve"/>
      <point x="1299" y="554" type="line"/>
      <point x="1164" y="511"/>
      <point x="984" y="453"/>
    </contour>
    <contour>
      <point x="457" y="327" type="curve" smooth="yes"/>
      <point x="483" y="547"/>
      <point x="609" y="828"/>
      <point x="717" y="828" type="curve" smooth="yes"/>
      <point x="759" y="828"/>
      <point x="777" y="766"/>
      <point x="750" y="622" type="curve" smooth="yes"/>
      <point x="707" y="371"/>
      <point x="585" y="193"/>
      <point x="501" y="193" type="curve" smooth="yes"/>
      <point x="468" y="193"/>
      <point x="443" y="226"/>
    </contour>
  </outline>
</glyph>
<glyph name="Aogonek" format="2">
  <advance width="1411"/>
  <unicode hex="0104"/>
  <outline>
    <contour>
      <point x="1139" y="57" type="line"/>
      <point x="762" y="-42"/>
      <point x="625" y="-167"/>
      <point x="625" y="-307" type="curve" smooth="yes"/>
      <point x="625" y="-404"/>
      <point x="693" y="-460"/>
      <point x="839" y="-460" type="curve" smooth="yes"/>
      <point x="973" y="-460"/>
      <point x="1085" y="-402"/>
      <point x="1141" y="-328" type="curve" smooth="yes"/>
      <point x="1175" y="-287"/>
      <point x="1163" y="-260"/>
      <point x="1143" y="-254" type="curve" smooth="yes"/>
      <point x="1124" y="-247"/>
      <point x="1106" y="-256"/>
      <point x="1083" y="-273" type="curve" smooth="yes"/>
      <point x="1051" y="-299"/>
      <point x="1021" y="-316"/>
      <point x="989" y="-316" type="curve" smooth="yes"/>
      <point x="956" y="-316"/>
      <point x="934" y="-295"/>
      <point x="934" y="-248" type="curve" smooth="yes"/>
      <point x="934" y="-166"/>
      <point x="1004" y="-66"/>
      <point x="1152" y="6" type="curve"/>
    </contour>
    <component base="A"/>
  </outline>
</glyph>
<glyph name="aogonek" format="2">
  <advance width="1268"/>
  <unicode hex="0105"/>
  <outline>
    <contour>
      <point x="1039" y="81" type="line"/>
      <point x="662" y="-47"/>
      <point x="520" y="-175"/>
      <point x="520" y="-319" type="curve" smooth="yes"/>
      <point x="520" y="-416"/>
      <point x="587" y="-473"/>
      <point x="739" y="-473" type="curve" smooth="yes"/>
      <point x="877" y="-473"/>
      <point x="992" y="-413"/>
      <point x="1049" y="-337" type="curve" smooth="yes"/>
      <point x="1084" y="-295"/>
      <point x="1072" y="-268"/>
      <point x="1051" y="-261" type="curve" smooth="yes"/>
      <point x="1032" y="-254"/>
      <point x="1013" y="-264"/>
      <point x="989" y="-281" type="curve" smooth="yes"/>
      <point x="957" y="-308"/>
      <point x="923" y="-325"/>
      <point x="893" y="-325" type="curve" smooth="yes"/>
      <point x="862" y="-325"/>
      <point x="837" y="-304"/>
      <point x="837" y="-254" type="curve" smooth="yes"/>
      <point x="837" y="-165"/>
      <point x="905" y="-34"/>
      <point x="1052" y="43" type="curve"/>
    </contour>
    <component base="a"/>
  </outline>
</glyph>
<glyph name="eogonek" format="2">
  <advance width="1118"/>
  <unicode hex="0119"/>
  <outline>
    <contour>
      <point x="239" y="341" type="line"/>
      <point x="498" y="410"/>
      <point x="804" y="492"/>
      <point x="993" y="536" type="curve" smooth="yes"/>
      <point x="1063" y="553"/>
      <point x="1085" y="586"/>
      <point x="1085" y="619" type="curve" smooth="yes"/>
      <point x="1085" y="643"/>
      <point x="1073" y="655"/>
      <point x="1053" y="663" type="curve" smooth="yes"/>
      <point x="1036" y="670"/>
      <point x="1027" y="693"/>
      <point x="1021" y="719" type="curve" smooth="yes"/>
      <point x="997" y="868"/>
      <point x="907" y="978"/>
      <point x="698" y="978" type="curve" smooth="yes"/>
      <point x="326" y="978"/>
      <point x="68" y="729"/>
      <point x="36" y="402" type="curve" smooth="yes"/>
      <point x="11" y="140"/>
      <point x="138" y="-27"/>
      <point x="435" y="-27" type="curve" smooth="yes"/>
      <point x="457" y="-27"/>
      <point x="470" y="-27"/>
      <point x="503" y="-21" type="curve"/>
      <point x="498" y="-11" type="line"/>
      <point x="276" y="-117"/>
      <point x="197" y="-221"/>
      <point x="197" y="-324" type="curve" smooth="yes"/>
      <point x="197" y="-418"/>
      <point x="269" y="-473"/>
      <point x="413" y="-473" type="curve" smooth="yes"/>
      <point x="552" y="-473"/>
      <point x="668" y="-414"/>
      <point x="726" y="-337" type="curve" smooth="yes"/>
      <point x="760" y="-295"/>
      <point x="748" y="-268"/>
      <point x="728" y="-261" type="curve" smooth="yes"/>
      <point x="708" y="-254"/>
      <point x="690" y="-264"/>
      <point x="666" y="-281" type="curve" smooth="yes"/>
      <point x="633" y="-308"/>
      <point x="603" y="-325"/>
      <point x="570" y="-325" type="curve" smooth="yes"/>
      <point x="535" y="-325"/>
      <point x="513" y="-304"/>
      <point x="513" y="-253" type="curve" smooth="yes"/>
      <point x="513" y="-167"/>
      <point x="579" y="-54"/>
      <point x="738" y="23" type="curve" smooth="yes"/>
      <point x="918" y="108"/>
      <point x="1012" y="206"/>
      <point x="1032" y="344" type="curve" smooth="yes"/>
      <point x="1033" y="374"/>
      <point x="1018" y="405"/>
      <point x="980" y="406" type="curve" smooth="yes"/>
      <point x="943" y="407"/>
      <point x="921" y="393"/>
      <point x="883" y="351" type="curve" smooth="yes"/>
      <point x="818" y="260"/>
      <point x="732" y="210"/>
      <point x="631" y="210" type="curve" smooth="yes"/>
      <point x="498" y="210"/>
      <point x="434" y="310"/>
      <point x="452" y="500" type="curve" smooth="yes"/>
      <point x="473" y="710"/>
      <point x="547" y="836"/>
      <point x="619" y="836" type="curve" smooth="yes"/>
      <point x="666" y="836"/>
      <point x="689" y="797"/>
      <point x="689" y="732" type="curve" smooth="yes"/>
      <point x="688" y="660"/>
      <point x="680" y="600"/>
      <point x="655" y="526" type="curve"/>
      <point x="694" y="558" type="line"/>
      <point x="544" y="515"/>
      <point x="384" y="476"/>
      <point x="231" y="435" type="curve"/>
    </contour>
  </outline>
</glyph>
<glyph name="Hbar" format="2">
  <advance width="1700"/>
  <unicode hex="0126"/>
  <outline>
    <contour>
      <point x="178" y="991" type="curve" smooth="yes"/>
      <point x="170" y="965"/>
      <point x="180" y="948"/>
      <point x="205" y="948" type="curve" smooth="yes"/>
      <point x="1761" y="948" type="line" smooth="yes"/>
      <point x="1788" y="948"/>
      <point x="1811" y="965"/>
      <point x="1819" y="991" type="curve" smooth="yes"/>
      <point x="1827" y="1016"/>
      <point x="1815" y="1035"/>
      <point x="1789" y="1035" type="curve" smooth="yes"/>
      <point x="235" y="1035" type="line" smooth="yes"/>
      <point x="211" y="1035"/>
      <point x="186" y="1016"/>
    </contour>
    <component base="H"/>
  </outline>
</glyph>
<glyph name="hbar" format="2">
  <advance width="1284"/>
  <unicode hex="0127"/>
  <outline>
    <contour>
      <point x="783" y="1388" type="line" smooth="yes"/>
      <point x="803" y="1440"/>
      <point x="795" y="1486"/>
      <point x="724" y="1486" type="curve" smooth="yes"/>
      <point x="607" y="1486"/>
      <point x="371" y="1340"/>
      <point x="335" y="1229" type="curve" smooth="yes"/>
      <point x="52" y="224" type="line" smooth="yes"/>
      <point x="-5" y="41"/>
      <point x="28" y="-27"/>
      <point x="180" y="-27" type="curve" smooth="yes"/>
      <point x="373" y="-27"/>
      <point x="495" y="32"/>
      <point x="495" y="123" type="curve" smooth="yes"/>
      <point x="495" y="171"/>
      <point x="472" y="204"/>
      <point x="472" y="248" type="curve" smooth="yes"/>
      <point x="472" y="289"/>
      <point x="488" y="358"/>
      <point x="523" y="453" type="curve"/>
      <point x="577" y="616"/>
      <point x="658" y="693"/>
      <point x="728" y="693" type="curve" smooth="yes"/>
      <point x="787" y="693"/>
      <point x="789" y="648"/>
      <point x="761" y="560" type="curve" smooth="yes"/>
      <point x="672" y="280" type="line" smooth="yes"/>
      <point x="607" y="99"/>
      <point x="639" y="-27"/>
      <point x="840" y="-27" type="curve" smooth="yes"/>
      <point x="1015" y="-27"/>
      <point x="1147" y="59"/>
      <point x="1212" y="183" type="curve" smooth="yes"/>
      <point x="1241" y="234"/>
      <point x="1239" y="270"/>
      <point x="1217" y="285" type="curve" smooth="yes"/>
      <point x="1200" y="297"/>
      <point x="1183" y="296"/>
      <point x="1162" y="281" type="curve" smooth="yes"/>
      <point x="1132" y="252"/>
      <point x="1118" y="243"/>
      <point x="1098" y="243" type="curve" smooth="yes"/>
      <point x="1062" y="243"/>
      <point x="1057" y="277"/>
      <point x="1088" y="364" type="curve" smooth="yes"/>
      <point x="1181" y="645" type="line" smooth="yes"/>
      <point x="1254" y="832"/>
      <point x="1227" y="972"/>
      <point x="1044" y="972" type="curve" smooth="yes"/>
      <point x="871" y="972"/>
      <point x="681" y="877"/>
      <point x="531" y="613" type="curve"/>
      <point x="542" y="609" type="line"/>
    </contour>
    <contour>
      <point x="170" y="1164" type="curve" smooth="yes"/>
      <point x="161" y="1133"/>
      <point x="170" y="1113"/>
      <point x="197" y="1113" type="curve" smooth="yes"/>
      <point x="920" y="1113" type="line" smooth="yes"/>
      <point x="947" y="1113"/>
      <point x="971" y="1133"/>
      <point x="980" y="1164" type="curve" smooth="yes"/>
      <point x="989" y="1193"/>
      <point x="977" y="1215"/>
      <point x="949" y="1215" type="curve" smooth="yes"/>
      <point x="229" y="1215" type="line" smooth="yes"/>
      <point x="204" y="1215"/>
      <point x="178" y="1193"/>
    </contour>
  </outline>
</glyph>
<glyph name="Iogonek" format="2">
  <advance width="889"/>
  <unicode hex="012E"/>
  <outline>
    <contour>
      <point x="530" y="57" type="line"/>
      <point x="153" y="-42"/>
      <point x="16" y="-167"/>
      <point x="16" y="-307" type="curve" smooth="yes"/>
      <point x="16" y="-404"/>
      <point x="84" y="-460"/>
      <point x="230" y="-460" type="curve" smooth="yes"/>
      <point x="364" y="-460"/>
      <point x="476" y="-402"/>
      <point x="532" y="-328" type="curve" smooth="yes"/>
      <point x="566" y="-287"/>
      <point x="554" y="-260"/>
      <point x="534" y="-254" type="curve" smooth="yes"/>
      <point x="515" y="-247"/>
      <point x="497" y="-256"/>
      <point x="474" y="-273" type="curve" smooth="yes"/>
      <point x="442" y="-299"/>
      <point x="412" y="-316"/>
      <point x="380" y="-316" type="curve" smooth="yes"/>
      <point x="346" y="-316"/>
      <point x="325" y="-295"/>
      <point x="325" y="-248" type="curve" smooth="yes"/>
      <point x="325" y="-166"/>
      <point x="395" y="-66"/>
      <point x="543" y="6" type="curve"/>
    </contour>
    <component base="I"/>
  </outline>
</glyph>
<glyph name="iogonek" format="2">
  <advance width="748"/>
  <unicode hex="012F"/>
  <outline>
    <contour>
      <point x="512" y="82" type="line"/>
      <point x="128" y="-42"/>
      <point x="-15" y="-176"/>
      <point x="-15" y="-318" type="curve" smooth="yes"/>
      <point x="-15" y="-415"/>
      <point x="57" y="-473"/>
      <point x="202" y="-473" type="curve" smooth="yes"/>
      <point x="339" y="-473"/>
      <point x="455" y="-413"/>
      <point x="514" y="-337" type="curve" smooth="yes"/>
      <point x="549" y="-295"/>
      <point x="536" y="-268"/>
      <point x="516" y="-261" type="curve" smooth="yes"/>
      <point x="495" y="-254"/>
      <point x="478" y="-264"/>
      <point x="453" y="-281" type="curve" smooth="yes"/>
      <point x="421" y="-308"/>
      <point x="388" y="-325"/>
      <point x="358" y="-325" type="curve" smooth="yes"/>
      <point x="327" y="-325"/>
      <point x="301" y="-303"/>
      <point x="301" y="-251" type="curve" smooth="yes"/>
      <point x="301" y="-164"/>
      <point x="374" y="-28"/>
      <point x="525" y="44" type="curve"/>
    </contour>
    <component base="i" yOffset="1"/>
  </outline>
</glyph>
<glyph name="dotlessi" format="2">
  <advance width="741"/>
  <unicode hex="0131"/>
  <anchor x="529" y="1000" name="center"/>
  <outline>
    <contour>
      <point x="544" y="243" type="curve" smooth="yes"/>
      <point x="564" y="243"/>
      <point x="577" y="251"/>
      <point x="608" y="281" type="curve" smooth="yes"/>
      <point x="629" y="296"/>
      <point x="646" y="297"/>
      <point x="663" y="285" type="curve" smooth="yes"/>
      <point x="685" y="270"/>
      <point x="687" y="234"/>
      <point x="658" y="183" type="curve" smooth="yes"/>
      <point x="594" y="59"/>
      <point x="460" y="-27"/>
      <point x="286" y="-27" type="curve" smooth="yes"/>
      <point x="84" y="-27"/>
      <point x="42" y="100"/>
      <point x="117" y="280" type="curve" smooth="yes"/>
      <point x="225" y="581" type="line" smooth="yes"/>
      <point x="265" y="677"/>
      <point x="258" y="707"/>
      <point x="221" y="707" type="curve" smooth="yes"/>
      <point x="201" y="707"/>
      <point x="182" y="694"/>
      <point x="146" y="662" type="curve" smooth="yes"/>
      <point x="118" y="647"/>
      <point x="97" y="648"/>
      <point x="81" y="656" type="curve" smooth="yes"/>
      <point x="55" y="672"/>
      <point x="53" y="711"/>
      <point x="85" y="753" type="curve" smooth="yes"/>
      <point x="163" y="876"/>
      <point x="313" y="975"/>
      <point x="470" y="975" type="curve" smooth="yes"/>
      <point x="649" y="975"/>
      <point x="719" y="851"/>
      <point x="632" y="645" type="curve" smooth="yes"/>
      <point x="534" y="364" type="line" smooth="yes"/>
      <point x="501" y="277"/>
      <point x="508" y="243"/>
    </contour>
  </outline>
</glyph>
<glyph name="lslash" format="2">
  <advance width="752"/>
  <unicode hex="0142"/>
  <outline>
    <contour>
      <point x="12" y="519" type="curve" smooth="yes"/>
      <point x="24" y="499"/>
      <point x="48" y="496"/>
      <point x="78" y="515" type="curve" smooth="yes"/>
      <point x="309" y="662" type="line"/>
      <point x="578" y="726" type="line"/>
      <point x="846" y="897" type="line" smooth="yes"/>
      <point x="873" y="915"/>
      <point x="885" y="938"/>
      <point x="874" y="961" type="curve" smooth="yes"/>
      <point x="862" y="979"/>
      <point x="831" y="980"/>
      <point x="804" y="964" type="curve" smooth="yes"/>
      <point x="611" y="839" type="line"/>
      <point x="340" y="773" type="line"/>
      <point x="39" y="582" type="line" smooth="yes"/>
      <point x="14" y="567"/>
      <point x="0" y="539"/>
    </contour>
    <component base="l" xOffset="20"/>
  </outline>
</glyph>
<glyph name="oe" format="2">
  <advance width="1800"/>
  <unicode hex="0153"/>
  <outline>
    <contour>
      <point x="693" y="979" type="curve" smooth="yes"/>
      <point x="312" y="986"/>
      <point x="88" y="751"/>
      <point x="47" y="449" type="curve" smooth="yes"/>
      <point x="7" y="163"/>
      <point x="161" y="-17"/>
      <point x="443" y="-26" type="curve" smooth="yes"/>
      <point x="636" y="-31"/>
      <point x="836" y="47"/>
      <point x="903" y="198" type="curve"/>
      <point x="859" y="203" type="line"/>
      <point x="874" y="65"/>
      <point x="994" y="-27"/>
      <point x="1197" y="-27" type="curve" smooth="yes"/>
      <point x="1517" y="-27"/>
      <point x="1710" y="122"/>
      <point x="1742" y="343" type="curve" smooth="yes"/>
      <point x="1746" y="373"/>
      <point x="1727" y="404"/>
      <point x="1691" y="405" type="curve" smooth="yes"/>
      <point x="1654" y="406"/>
      <point x="1631" y="392"/>
      <point x="1592" y="350" type="curve" smooth="yes"/>
      <point x="1528.402" y="258.136"/>
      <point x="1435.426" y="210"/>
      <point x="1330" y="210" type="curve" smooth="yes"/>
      <point x="1203.162" y="210"/>
      <point x="1140.006" y="310.065"/>
      <point x="1158" y="500" type="curve" smooth="yes"/>
      <point x="1178.253" y="701.567"/>
      <point x="1250.696" y="824"/>
      <point x="1322" y="824" type="curve" smooth="yes"/>
      <point x="1365.971" y="824"/>
      <point x="1387.885" y="789.501"/>
      <point x="1387" y="732" type="curve" smooth="yes"/>
      <point x="1387" y="644.784"/>
      <point x="1375.246" y="561.811"/>
      <point x="1358" y="505" type="curve"/>
      <point x="1373" y="535" type="line"/>
      <point x="1213" y="487"/>
      <point x="1007" y="437"/>
      <point x="1007" y="437" type="curve"/>
      <point x="1017" y="325" type="line"/>
      <point x="1017" y="325"/>
      <point x="1510" y="456"/>
      <point x="1692" y="499" type="curve" smooth="yes"/>
      <point x="1770.422" y="517.777"/>
      <point x="1794" y="550.205"/>
      <point x="1794" y="584" type="curve" smooth="yes"/>
      <point x="1794" y="610.182"/>
      <point x="1782.26" y="623.896"/>
      <point x="1762" y="632" type="curve" smooth="yes"/>
      <point x="1738.135" y="640.949"/>
      <point x="1728.358" y="675.736"/>
      <point x="1721" y="714" type="curve" smooth="yes"/>
      <point x="1696" y="863"/>
      <point x="1606" y="973"/>
      <point x="1399" y="973" type="curve" smooth="yes"/>
      <point x="1210" y="973"/>
      <point x="1031.051" y="869.928"/>
      <point x="983" y="765" type="curve"/>
      <point x="1027" y="761" type="line"/>
      <point x="1003" y="886"/>
      <point x="885" y="976"/>
    </contour>
    <contour>
      <point x="522" y="121" type="curve" smooth="yes"/>
      <point x="470" y="125"/>
      <point x="440" y="169"/>
      <point x="460" y="312" type="curve" smooth="yes"/>
      <point x="490" y="562"/>
      <point x="597" y="836"/>
      <point x="687" y="830" type="curve" smooth="yes"/>
      <point x="743" y="825"/>
      <point x="763" y="782"/>
      <point x="737" y="627" type="curve" smooth="yes"/>
      <point x="698" y="350"/>
      <point x="595" y="117"/>
    </contour>
  </outline>
</glyph>
<glyph name="Tbar" format="2">
  <advance width="1332"/>
  <unicode hex="0166"/>
  <outline>
    <contour>
      <point x="351" y="685" type="curve" smooth="yes"/>
      <point x="341" y="653"/>
      <point x="356" y="634"/>
      <point x="386" y="634" type="curve" smooth="yes"/>
      <point x="1081" y="634" type="line" smooth="yes"/>
      <point x="1112" y="634"/>
      <point x="1141" y="653"/>
      <point x="1150" y="685" type="curve" smooth="yes"/>
      <point x="1160" y="714"/>
      <point x="1144" y="735"/>
      <point x="1113" y="735" type="curve" smooth="yes"/>
      <point x="419" y="735" type="line" smooth="yes"/>
      <point x="390" y="735"/>
      <point x="360" y="714"/>
    </contour>
    <component base="T" xOffset="7"/>
  </outline>
</glyph>
<glyph name="uogonek" format="2">
  <advance width="1333"/>
  <unicode hex="0173"/>
  <outline>
    <contour>
      <point x="1091" y="81" type="line"/>
      <point x="716" y="-40"/>
      <point x="573" y="-172"/>
      <point x="573" y="-322" type="curve" smooth="yes"/>
      <point x="573" y="-418"/>
      <point x="646" y="-473"/>
      <point x="792" y="-473" type="curve" smooth="yes"/>
      <point x="929" y="-473"/>
      <point x="1044" y="-413"/>
      <point x="1102" y="-337" type="curve" smooth="yes"/>
      <point x="1136" y="-295"/>
      <point x="1124" y="-268"/>
      <point x="1104" y="-261" type="curve" smooth="yes"/>
      <point x="1084" y="-254"/>
      <point x="1066" y="-264"/>
      <point x="1042" y="-281" type="curve" smooth="yes"/>
      <point x="1010" y="-308"/>
      <point x="977" y="-325"/>
      <point x="948" y="-325" type="curve" smooth="yes"/>
      <point x="914" y="-325"/>
      <point x="889" y="-304"/>
      <point x="889" y="-254" type="curve" smooth="yes"/>
      <point x="889" y="-163"/>
      <point x="958" y="-29"/>
      <point x="1105" y="48" type="curve"/>
    </contour>
    <component base="u"/>
  </outline>
</glyph>
<glyph name="ohorn" format="2">
  <advance width="1206"/>
  <unicode hex="01A1"/>
  <anchor x="761" y="1000" name="center"/>
  <outline>
    <contour>
      <point x="1413" y="1081" type="curve" smooth="yes"/>
      <point x="1446" y="1205"/>
      <point x="1402" y="1279"/>
      <point x="1321" y="1284" type="curve" smooth="yes"/>
      <point x="1232" y="1288"/>
      <point x="1184" y="1227"/>
      <point x="1166" y="1134" type="curve" smooth="yes"/>
      <point x="1146" y="1036" type="line" smooth="yes"/>
      <point x="1129" y="952"/>
      <point x="1070" y="898"/>
      <point x="999" y="915" type="curve" smooth="yes"/>
      <point x="900" y="939"/>
      <point x="896" y="941"/>
      <point x="890" y="914" type="curve" smooth="yes"/>
      <point x="881" y="874"/>
      <point x="916" y="860"/>
      <point x="998" y="845" type="curve" smooth="yes"/>
      <point x="1212" y="807"/>
      <point x="1369" y="920"/>
    </contour>
    <component base="o"/>
  </outline>
</glyph>
<glyph name="Oogonek" format="2">
  <advance width="1575"/>
  <unicode hex="01EA"/>
  <outline>
    <contour>
      <point x="1007" y="1428" type="curve" smooth="yes"/>
      <point x="481" y="1428"/>
      <point x="99" y="1008"/>
      <point x="99" y="513" type="curve" smooth="yes"/>
      <point x="99" y="178"/>
      <point x="308" y="-26"/>
      <point x="671" y="-26" type="curve" smooth="yes"/>
      <point x="688" y="-26"/>
      <point x="702" y="-25"/>
      <point x="728" y="-21" type="curve"/>
      <point x="724" y="-10" type="line"/>
      <point x="499" y="-105"/>
      <point x="416" y="-215"/>
      <point x="416" y="-318" type="curve" smooth="yes"/>
      <point x="416" y="-409"/>
      <point x="487" y="-461"/>
      <point x="627" y="-461" type="curve" smooth="yes"/>
      <point x="762" y="-461"/>
      <point x="876" y="-404"/>
      <point x="932" y="-329" type="curve" smooth="yes"/>
      <point x="966" y="-288"/>
      <point x="954" y="-261"/>
      <point x="934" y="-255" type="curve" smooth="yes"/>
      <point x="915" y="-248"/>
      <point x="897" y="-257"/>
      <point x="874" y="-274" type="curve" smooth="yes"/>
      <point x="842" y="-300"/>
      <point x="812" y="-317"/>
      <point x="780" y="-317" type="curve" smooth="yes"/>
      <point x="747" y="-317"/>
      <point x="725" y="-297"/>
      <point x="725" y="-253" type="curve" smooth="yes"/>
      <point x="725" y="-163"/>
      <point x="798" y="-45"/>
      <point x="968" y="19" type="curve" smooth="yes"/>
      <point x="1325" y="159"/>
      <point x="1578" y="473"/>
      <point x="1578" y="896" type="curve" smooth="yes"/>
      <point x="1578" y="1207"/>
      <point x="1366" y="1428"/>
    </contour>
    <contour>
      <point x="566" y="313" type="curve" smooth="yes"/>
      <point x="566" y="667"/>
      <point x="738" y="1291"/>
      <point x="977" y="1291" type="curve" smooth="yes"/>
      <point x="1056" y="1291"/>
      <point x="1112" y="1236"/>
      <point x="1112" y="1087" type="curve" smooth="yes"/>
      <point x="1112" y="748"/>
      <point x="933" y="110"/>
      <point x="696" y="110" type="curve" smooth="yes"/>
      <point x="618" y="110"/>
      <point x="566" y="162"/>
    </contour>
  </outline>
</glyph>
<glyph name="oogonek" format="2">
  <advance width="1214"/>
  <unicode hex="01EB"/>
  <outline>
    <contour>
      <point x="706" y="979" type="curve" smooth="yes"/>
      <point x="270" y="979"/>
      <point x="41" y="684"/>
      <point x="41" y="370" type="curve" smooth="yes"/>
      <point x="41" y="126"/>
      <point x="201" y="-27"/>
      <point x="488" y="-27" type="curve" smooth="yes"/>
      <point x="505" y="-27"/>
      <point x="522" y="-27"/>
      <point x="547" y="-23" type="curve"/>
      <point x="544" y="-9" type="line"/>
      <point x="307" y="-107"/>
      <point x="219" y="-214"/>
      <point x="219" y="-321" type="curve" smooth="yes"/>
      <point x="219" y="-417"/>
      <point x="292" y="-473"/>
      <point x="436" y="-473" type="curve" smooth="yes"/>
      <point x="574" y="-473"/>
      <point x="691" y="-413"/>
      <point x="748" y="-337" type="curve" smooth="yes"/>
      <point x="783" y="-295"/>
      <point x="771" y="-268"/>
      <point x="750" y="-261" type="curve" smooth="yes"/>
      <point x="731" y="-254"/>
      <point x="713" y="-264"/>
      <point x="689" y="-281" type="curve" smooth="yes"/>
      <point x="656" y="-308"/>
      <point x="624" y="-325"/>
      <point x="593" y="-325" type="curve" smooth="yes"/>
      <point x="558" y="-325"/>
      <point x="535" y="-304"/>
      <point x="535" y="-254" type="curve" smooth="yes"/>
      <point x="535" y="-166"/>
      <point x="599" y="-56"/>
      <point x="772" y="19" type="curve" smooth="yes"/>
      <point x="1016" y="128"/>
      <point x="1172" y="309"/>
      <point x="1172" y="579" type="curve" smooth="yes"/>
      <point x="1172" y="830"/>
      <point x="1010" y="979"/>
    </contour>
    <contour>
      <point x="531" y="121" type="curve" smooth="yes"/>
      <point x="492" y="121"/>
      <point x="458" y="145"/>
      <point x="458" y="239" type="curve" smooth="yes"/>
      <point x="458" y="450"/>
      <point x="570" y="830"/>
      <point x="688" y="830" type="curve" smooth="yes"/>
      <point x="732" y="830"/>
      <point x="755" y="803"/>
      <point x="755" y="727" type="curve" smooth="yes"/>
      <point x="755" y="507"/>
      <point x="645" y="121"/>
    </contour>
  </outline>
</glyph>
<glyph name="apostrophemod" format="2">
  <advance width="580"/>
  <unicode hex="02BC"/>
  <outline>
    <contour>
      <point x="489" y="1159" type="curve" smooth="yes"/>
      <point x="525" y="1159" type="line" smooth="yes"/>
      <point x="562" y="1159"/>
      <point x="570" y="1143"/>
      <point x="564" y="1119" type="curve" smooth="yes"/>
      <point x="545" y="1048"/>
      <point x="450" y="952"/>
      <point x="291" y="899" type="curve" smooth="yes"/>
      <point x="227" y="878"/>
      <point x="202" y="848"/>
      <point x="203" y="817" type="curve" smooth="yes"/>
      <point x="204" y="783"/>
      <point x="233" y="770"/>
      <point x="301" y="786" type="curve" smooth="yes"/>
      <point x="541" y="844"/>
      <point x="725" y="1027"/>
      <point x="791" y="1271" type="curve" smooth="yes"/>
      <point x="840" y="1457"/>
      <point x="760" y="1558"/>
      <point x="608" y="1558" type="curve" smooth="yes"/>
      <point x="479" y="1558"/>
      <point x="349" y="1471"/>
      <point x="315" y="1344" type="curve" smooth="yes"/>
      <point x="285" y="1230"/>
      <point x="342" y="1159"/>
    </contour>
  </outline>
</glyph>
<glyph name="gravecmb" format="2">
  <unicode hex="0300"/>
  <anchor x="459.006" y="991" name="center"/>
  <outline>
    <contour>
      <point x="486" y="1337" type="line" smooth="yes"/>
      <point x="470" y="1451"/>
      <point x="427" y="1522"/>
      <point x="319" y="1508" type="curve" smooth="yes"/>
      <point x="219" y="1497"/>
      <point x="148" y="1417"/>
      <point x="138" y="1344" type="curve" smooth="yes"/>
      <point x="127" y="1262"/>
      <point x="164" y="1212"/>
      <point x="250" y="1162" type="curve" smooth="yes"/>
      <point x="401" y="1059" type="line" smooth="yes"/>
      <point x="426" y="1047"/>
      <point x="462" y="1047"/>
      <point x="486" y="1065" type="curve" smooth="yes"/>
      <point x="514" y="1086"/>
      <point x="513" y="1111"/>
      <point x="507" y="1138" type="curve" smooth="yes"/>
    </contour>
  </outline>
</glyph>
<glyph name="macroncmb" format="2">
  <unicode hex="0304"/>
  <anchor x="432.68" y="995" name="center"/>
  <outline>
    <contour>
      <point x="82" y="1207" type="curve" smooth="yes"/>
      <point x="63" y="1140"/>
      <point x="86" y="1109"/>
      <point x="140" y="1109" type="curve" smooth="yes"/>
      <point x="675" y="1109" type="line" smooth="yes"/>
      <point x="729" y="1109"/>
      <point x="769" y="1139"/>
      <point x="787" y="1208" type="curve" smooth="yes"/>
      <point x="807" y="1277"/>
      <point x="784" y="1306"/>
      <point x="730" y="1306" type="curve" smooth="yes"/>
      <point x="196" y="1306" type="line" smooth="yes"/>
      <point x="141" y="1306"/>
      <point x="100" y="1276"/>
    </contour>
  </outline>
</glyph>
<glyph name="dotaccentcmb" format="2">
  <unicode hex="0307"/>
  <anchor x="316.611" y="958" name="center"/>
  <outline>
    <contour>
      <point x="276" y="1047" type="curve" smooth="yes"/>
      <point x="412" y="1047"/>
      <point x="512" y="1119"/>
      <point x="543" y="1234" type="curve" smooth="yes"/>
      <point x="573" y="1347"/>
      <point x="512" y="1419"/>
      <point x="375" y="1419" type="curve" smooth="yes"/>
      <point x="240" y="1419"/>
      <point x="138" y="1347"/>
      <point x="108" y="1234" type="curve" smooth="yes"/>
      <point x="76" y="1117"/>
      <point x="140" y="1047"/>
    </contour>
  </outline>
</glyph>
<glyph name="dieresiscmb" format="2">
  <unicode hex="0308"/>
  <anchor x="545.484" y="949" name="center"/>
  <outline>
    <contour>
      <point x="251" y="1047" type="curve" smooth="yes"/>
      <point x="371" y="1047"/>
      <point x="462" y="1116"/>
      <point x="492" y="1224" type="curve" smooth="yes"/>
      <point x="522" y="1336"/>
      <point x="466" y="1404"/>
      <point x="346" y="1404" type="curve" smooth="yes"/>
      <point x="227" y="1404"/>
      <point x="135" y="1336"/>
      <point x="104" y="1224" type="curve" smooth="yes"/>
      <point x="75" y="1114"/>
      <point x="132" y="1047"/>
    </contour>
    <contour>
      <point x="720" y="1047" type="curve" smooth="yes"/>
      <point x="842" y="1047"/>
      <point x="934" y="1116"/>
      <point x="963" y="1224" type="curve" smooth="yes"/>
      <point x="994" y="1336"/>
      <point x="937" y="1404"/>
      <point x="815" y="1404" type="curve" smooth="yes"/>
      <point x="696" y="1404"/>
      <point x="603" y="1335"/>
      <point x="573" y="1224" type="curve" smooth="yes"/>
      <point x="543" y="1114"/>
      <point x="601" y="1047"/>
    </contour>
  </outline>
</glyph>
<glyph name="hungarumlautcmb" format="2">
  <advance width="854"/>
  <unicode hex="030B"/>
  <anchor x="335.8210227272727" y="963" name="center"/>
  <outline>
    <contour>
      <point x="195" y="1324" type="curve" smooth="yes"/>
      <point x="87" y="1133" type="line" smooth="yes"/>
      <point x="70" y="1105"/>
      <point x="59" y="1083"/>
      <point x="76" y="1068" type="curve" smooth="yes"/>
      <point x="92" y="1053"/>
      <point x="125" y="1057"/>
      <point x="154" y="1073" type="curve" smooth="yes"/>
      <point x="343" y="1189" type="line" smooth="yes"/>
      <point x="445" y="1247"/>
      <point x="501" y="1300"/>
      <point x="528" y="1376" type="curve" smooth="yes"/>
      <point x="547" y="1442"/>
      <point x="513" y="1507"/>
      <point x="423" y="1506" type="curve" smooth="yes"/>
      <point x="328" y="1504"/>
      <point x="258" y="1433"/>
    </contour>
    <contour>
      <point x="571" y="1331" type="curve" smooth="yes"/>
      <point x="456" y="1140" type="line" smooth="yes"/>
      <point x="439" y="1115"/>
      <point x="426" y="1092"/>
      <point x="442" y="1075" type="curve" smooth="yes"/>
      <point x="455" y="1059"/>
      <point x="488" y="1062"/>
      <point x="518" y="1077" type="curve" smooth="yes"/>
      <point x="710" y="1186" type="line" smooth="yes"/>
      <point x="813" y="1240"/>
      <point x="871" y="1291"/>
      <point x="901" y="1367" type="curve" smooth="yes"/>
      <point x="926" y="1433"/>
      <point x="896" y="1501"/>
      <point x="808" y="1503" type="curve" smooth="yes"/>
      <point x="715" y="1506"/>
      <point x="640" y="1437"/>
    </contour>
  </outline>
</glyph>
<glyph name="caroncmb" format="2">
  <unicode hex="030C"/>
  <anchor x="453" y="1249" name="center"/>
  <outline>
    <contour>
      <point x="553" y="1222" type="line"/>
      <point x="356" y="1222" type="line"/>
      <point x="746" y="1450" type="line" smooth="yes"/>
      <point x="794" y="1478"/>
      <point x="834" y="1475"/>
      <point x="851" y="1455" type="curve" smooth="yes"/>
      <point x="866" y="1439"/>
      <point x="861" y="1407"/>
      <point x="819" y="1371" type="curve" smooth="yes"/>
      <point x="558" y="1113" type="line" smooth="yes"/>
      <point x="504" y="1066"/>
      <point x="463" y="1040"/>
      <point x="407" y="1040" type="curve" smooth="yes"/>
      <point x="351" y="1040"/>
      <point x="324" y="1066"/>
      <point x="298" y="1113" type="curve" smooth="yes"/>
      <point x="166" y="1371" type="line" smooth="yes"/>
      <point x="145" y="1407"/>
      <point x="160" y="1439"/>
      <point x="183" y="1455" type="curve" smooth="yes"/>
      <point x="213" y="1475"/>
      <point x="254" y="1478"/>
      <point x="285" y="1450" type="curve" smooth="yes"/>
    </contour>
  </outline>
</glyph>
<glyph name="gravedoublecmb" format="2">
  <advance width="863"/>
  <unicode hex="030F"/>
  <anchor x="618.9076086956521" y="973" name="center"/>
  <outline>
    <contour>
      <point x="448" y="1331" type="line" smooth="yes"/>
      <point x="443" y="1437"/>
      <point x="411" y="1506"/>
      <point x="316" y="1503" type="curve" smooth="yes"/>
      <point x="226" y="1501"/>
      <point x="155" y="1433"/>
      <point x="139" y="1367" type="curve" smooth="yes"/>
      <point x="123" y="1291"/>
      <point x="151" y="1240"/>
      <point x="222" y="1186" type="curve" smooth="yes"/>
      <point x="347" y="1077" type="line" smooth="yes"/>
      <point x="369" y="1062"/>
      <point x="400" y="1059"/>
      <point x="423" y="1075" type="curve" smooth="yes"/>
      <point x="449" y="1092"/>
      <point x="450" y="1115"/>
      <point x="448" y="1140" type="curve" smooth="yes"/>
    </contour>
    <contour>
      <point x="820" y="1324" type="line" smooth="yes"/>
      <point x="822" y="1433"/>
      <point x="796" y="1504"/>
      <point x="701" y="1506" type="curve" smooth="yes"/>
      <point x="613" y="1507"/>
      <point x="538" y="1442"/>
      <point x="519" y="1376" type="curve" smooth="yes"/>
      <point x="499" y="1300"/>
      <point x="524" y="1247"/>
      <point x="591" y="1189" type="curve" smooth="yes"/>
      <point x="710" y="1073" type="line" smooth="yes"/>
      <point x="730" y="1057"/>
      <point x="760" y="1053"/>
      <point x="784" y="1068" type="curve" smooth="yes"/>
      <point x="810" y="1083"/>
      <point x="813" y="1105"/>
      <point x="813" y="1133" type="curve" smooth="yes"/>
    </contour>
  </outline>
</glyph>
<glyph name="commaturnedabovecmb" format="2">
  <unicode hex="0312"/>
  <outline>
    <contour>
      <point x="345" y="1334" type="curve" smooth="yes"/>
      <point x="306" y="1334" type="line" smooth="yes"/>
      <point x="284" y="1334"/>
      <point x="277" y="1341"/>
      <point x="282" y="1358" type="curve" smooth="yes"/>
      <point x="290" y="1395"/>
      <point x="342" y="1441"/>
      <point x="478" y="1467" type="curve" smooth="yes"/>
      <point x="520" y="1478"/>
      <point x="540" y="1501"/>
      <point x="542" y="1528" type="curve" smooth="yes"/>
      <point x="544" y="1557"/>
      <point x="523" y="1573"/>
      <point x="477" y="1562" type="curve" smooth="yes"/>
      <point x="262" y="1518"/>
      <point x="153" y="1408"/>
      <point x="109" y="1241" type="curve" smooth="yes"/>
      <point x="76" y="1117"/>
      <point x="135" y="1047"/>
      <point x="250" y="1047" type="curve" smooth="yes"/>
      <point x="349" y="1047"/>
      <point x="441" y="1109"/>
      <point x="464" y="1198" type="curve" smooth="yes"/>
      <point x="486" y="1278"/>
      <point x="451" y="1334"/>
    </contour>
  </outline>
</glyph>
<glyph name="dieresisbelowcmb" format="2">
  <advance width="973"/>
  <unicode hex="0324"/>
  <outline>
    <contour>
      <point x="251" y="-431" type="curve" smooth="yes"/>
      <point x="371" y="-431"/>
      <point x="462" y="-362"/>
      <point x="492" y="-252" type="curve" smooth="yes"/>
      <point x="522" y="-142"/>
      <point x="466" y="-74"/>
      <point x="346" y="-74" type="curve" smooth="yes"/>
      <point x="227" y="-74"/>
      <point x="135" y="-142"/>
      <point x="104" y="-252" type="curve" smooth="yes"/>
      <point x="75" y="-364"/>
      <point x="132" y="-431"/>
    </contour>
    <contour>
      <point x="720" y="-431" type="curve" smooth="yes"/>
      <point x="842" y="-431"/>
      <point x="934" y="-362"/>
      <point x="963" y="-252" type="curve" smooth="yes"/>
      <point x="994" y="-142"/>
      <point x="937" y="-74"/>
      <point x="815" y="-74" type="curve" smooth="yes"/>
      <point x="696" y="-74"/>
      <point x="603" y="-143"/>
      <point x="573" y="-252" type="curve" smooth="yes"/>
      <point x="543" y="-364"/>
      <point x="601" y="-431"/>
    </contour>
  </outline>
</glyph>
<glyph name="commaaccentbelowcmb" format="2">
  <advance width="483"/>
  <unicode hex="0326"/>
  <outline>
    <contour>
      <point x="272" y="-357" type="curve" smooth="yes"/>
      <point x="314" y="-357" type="line" smooth="yes"/>
      <point x="337" y="-357"/>
      <point x="343" y="-365"/>
      <point x="339" y="-380" type="curve" smooth="yes"/>
      <point x="330" y="-417"/>
      <point x="279" y="-464"/>
      <point x="143" y="-490" type="curve" smooth="yes"/>
      <point x="100" y="-500"/>
      <point x="81" y="-524"/>
      <point x="79" y="-551" type="curve" smooth="yes"/>
      <point x="77" y="-579"/>
      <point x="98" y="-596"/>
      <point x="144" y="-586" type="curve" smooth="yes"/>
      <point x="358" y="-540"/>
      <point x="468" y="-431"/>
      <point x="512" y="-265" type="curve" smooth="yes"/>
      <point x="545" y="-138"/>
      <point x="486" y="-70"/>
      <point x="372" y="-70" type="curve" smooth="yes"/>
      <point x="273" y="-70"/>
      <point x="179" y="-132"/>
      <point x="155" y="-223" type="curve" smooth="yes"/>
      <point x="134" y="-300"/>
      <point x="168" y="-357"/>
    </contour>
  </outline>
</glyph>
<glyph name="cedillacmb" format="2">
  <advance width="616"/>
  <unicode hex="0327"/>
  <outline>
    <contour>
      <point x="402" y="14" type="line"/>
      <point x="277" y="-144" type="line" smooth="yes"/>
      <point x="252" y="-174"/>
      <point x="254" y="-197"/>
      <point x="290" y="-197" type="curve" smooth="yes"/>
      <point x="316" y="-197" type="line" smooth="yes"/>
      <point x="369" y="-197"/>
      <point x="390" y="-223"/>
      <point x="378" y="-271" type="curve" smooth="yes"/>
      <point x="365" y="-326"/>
      <point x="333" y="-354"/>
      <point x="291" y="-354" type="curve" smooth="yes"/>
      <point x="256" y="-354"/>
      <point x="233" y="-343"/>
      <point x="208" y="-317" type="curve" smooth="yes"/>
      <point x="193" y="-306"/>
      <point x="179" y="-296"/>
      <point x="157" y="-298" type="curve" smooth="yes"/>
      <point x="129" y="-298"/>
      <point x="103" y="-319"/>
      <point x="96" y="-348" type="curve" smooth="yes"/>
      <point x="89" y="-405"/>
      <point x="162" y="-457"/>
      <point x="304" y="-457" type="curve" smooth="yes"/>
      <point x="474" y="-457"/>
      <point x="587" y="-386"/>
      <point x="617" y="-275" type="curve" smooth="yes"/>
      <point x="645" y="-172"/>
      <point x="583" y="-112"/>
      <point x="442" y="-112" type="curve" smooth="yes"/>
      <point x="384" y="-112"/>
      <point x="350" y="-116"/>
      <point x="316" y="-124" type="curve"/>
      <point x="381" y="-140" type="line"/>
      <point x="502" y="14" type="line"/>
    </contour>
  </outline>
</glyph>
<glyph name="ogonekcmb" format="2">
  <advance width="662"/>
  <unicode hex="0328"/>
  <outline>
    <contour>
      <point x="631" y="57" type="line"/>
      <point x="292" y="-35"/>
      <point x="150" y="-131"/>
      <point x="111" y="-274" type="curve" smooth="yes"/>
      <point x="78" y="-399"/>
      <point x="150" y="-473"/>
      <point x="322" y="-473" type="curve" smooth="yes"/>
      <point x="459" y="-473"/>
      <point x="575" y="-413"/>
      <point x="633" y="-337" type="curve" smooth="yes"/>
      <point x="667" y="-295"/>
      <point x="655" y="-268"/>
      <point x="635" y="-261" type="curve" smooth="yes"/>
      <point x="614" y="-254"/>
      <point x="596" y="-264"/>
      <point x="572" y="-281" type="curve" smooth="yes"/>
      <point x="540" y="-308"/>
      <point x="510" y="-325"/>
      <point x="477" y="-325" type="curve" smooth="yes"/>
      <point x="433" y="-325"/>
      <point x="408" y="-292"/>
      <point x="426" y="-217" type="curve" smooth="yes"/>
      <point x="450" y="-123"/>
      <point x="517" y="-58"/>
      <point x="644" y="5" type="curve"/>
    </contour>
  </outline>
</glyph>
<glyph name="Germandbls" format="2">
  <advance width="1640"/>
  <unicode hex="1E9E"/>
  <outline>
    <contour>
      <point x="1758" y="1400" type="curve" smooth="yes"/>
      <point x="415" y="1400" type="line" smooth="yes"/>
      <point x="366" y="1400"/>
      <point x="326" y="1376"/>
      <point x="312" y="1330" type="curve" smooth="yes"/>
      <point x="303" y="1301"/>
      <point x="310" y="1275"/>
      <point x="338" y="1262" type="curve" smooth="yes"/>
      <point x="369" y="1249" type="line" smooth="yes"/>
      <point x="407" y="1231"/>
      <point x="418" y="1216"/>
      <point x="406" y="1172" type="curve" smooth="yes"/>
      <point x="153" y="224" type="line" smooth="yes"/>
      <point x="142" y="188"/>
      <point x="117" y="168"/>
      <point x="82" y="156" type="curve" smooth="yes"/>
      <point x="49" y="146" type="line" smooth="yes"/>
      <point x="-1" y="127"/>
      <point x="-24" y="107"/>
      <point x="-37" y="66" type="curve" smooth="yes"/>
      <point x="-51" y="22"/>
      <point x="-25" y="0"/>
      <point x="27" y="0" type="curve" smooth="yes"/>
      <point x="414" y="0" type="line" smooth="yes"/>
      <point x="486" y="0"/>
      <point x="547" y="33"/>
      <point x="563" y="85" type="curve" smooth="yes"/>
      <point x="872" y="1215" type="line" smooth="yes"/>
      <point x="889" y="1271"/>
      <point x="927" y="1301"/>
      <point x="985" y="1301" type="curve" smooth="yes"/>
      <point x="1212" y="1301" type="line" smooth="yes"/>
      <point x="1252" y="1301"/>
      <point x="1270" y="1287"/>
      <point x="1261" y="1259" type="curve" smooth="yes"/>
      <point x="1254" y="1239"/>
      <point x="1240" y="1219"/>
      <point x="1200" y="1185" type="curve" smooth="yes"/>
      <point x="899" y="837" type="line" smooth="yes"/>
      <point x="860" y="803"/>
      <point x="843" y="784"/>
      <point x="832" y="751" type="curve" smooth="yes"/>
      <point x="820" y="714"/>
      <point x="837" y="683"/>
      <point x="889" y="683" type="curve" smooth="yes"/>
      <point x="969" y="683" type="line" smooth="yes"/>
      <point x="1120" y="683"/>
      <point x="1176" y="554"/>
      <point x="1124" y="358" type="curve" smooth="yes"/>
      <point x="1087" y="224"/>
      <point x="1019" y="155"/>
      <point x="951" y="155" type="curve" smooth="yes"/>
      <point x="900" y="155"/>
      <point x="879" y="185"/>
      <point x="868" y="279" type="curve" smooth="yes"/>
      <point x="860" y="343" type="line" smooth="yes"/>
      <point x="855" y="376"/>
      <point x="847" y="391"/>
      <point x="805" y="391" type="curve" smooth="yes"/>
      <point x="761" y="391"/>
      <point x="735" y="368"/>
      <point x="720" y="321" type="curve" smooth="yes"/>
      <point x="648" y="49" type="line" smooth="yes"/>
      <point x="635" y="9"/>
      <point x="652" y="-25"/>
      <point x="696" y="-25" type="curve" smooth="yes"/>
      <point x="748" y="-25"/>
      <point x="830" y="47"/>
      <point x="868" y="46" type="curve" smooth="yes"/>
      <point x="897" y="45"/>
      <point x="937" y="-26"/>
      <point x="1076" y="-26" type="curve" smooth="yes"/>
      <point x="1311" y="-26"/>
      <point x="1518" y="130"/>
      <point x="1585" y="365" type="curve" smooth="yes"/>
      <point x="1650" y="598"/>
      <point x="1546" y="768"/>
      <point x="1283" y="768" type="curve" smooth="yes"/>
      <point x="1272" y="768"/>
      <point x="1250" y="768"/>
      <point x="1242" y="768" type="curve"/>
      <point x="1251" y="737" type="line"/>
      <point x="1727" y="1218" type="line" smooth="yes"/>
      <point x="1791" y="1270"/>
      <point x="1815" y="1299"/>
      <point x="1827" y="1336" type="curve" smooth="yes"/>
      <point x="1839" y="1375"/>
      <point x="1811" y="1400"/>
    </contour>
  </outline>
</glyph>
<glyph name="endash" format="2">
  <advance width="1146"/>
  <unicode hex="2013"/>
  <outline>
    <contour>
      <point x="62" y="548" type="curve" smooth="yes"/>
      <point x="47" y="493"/>
      <point x="57" y="458"/>
      <point x="105" y="458" type="curve" smooth="yes"/>
      <point x="1009" y="458" type="line" smooth="yes"/>
      <point x="1058" y="458"/>
      <point x="1089" y="493"/>
      <point x="1104" y="547" type="curve" smooth="yes"/>
      <point x="1121" y="601"/>
      <point x="1109" y="636"/>
      <point x="1061" y="636" type="curve" smooth="yes"/>
      <point x="158" y="636" type="line" smooth="yes"/>
      <point x="110" y="636"/>
      <point x="79" y="602"/>
    </contour>
  </outline>
</glyph>
<glyph name="quoteleft" format="2">
  <advance width="580"/>
  <unicode hex="2018"/>
  <outline>
    <contour>
      <point x="499" y="1182" type="curve" smooth="yes"/>
      <point x="463" y="1182" type="line" smooth="yes"/>
      <point x="426" y="1182"/>
      <point x="417" y="1198"/>
      <point x="423" y="1222" type="curve" smooth="yes"/>
      <point x="442" y="1293"/>
      <point x="537" y="1389"/>
      <point x="696" y="1442" type="curve" smooth="yes"/>
      <point x="760" y="1463"/>
      <point x="785" y="1493"/>
      <point x="784" y="1524" type="curve" smooth="yes"/>
      <point x="783" y="1558"/>
      <point x="754" y="1571"/>
      <point x="687" y="1555" type="curve" smooth="yes"/>
      <point x="446" y="1497"/>
      <point x="262" y="1314"/>
      <point x="197" y="1070" type="curve" smooth="yes"/>
      <point x="147" y="884"/>
      <point x="227" y="783"/>
      <point x="379" y="783" type="curve" smooth="yes"/>
      <point x="508" y="783"/>
      <point x="638" y="870"/>
      <point x="672" y="997" type="curve" smooth="yes"/>
      <point x="703" y="1111"/>
      <point x="645" y="1182"/>
    </contour>
  </outline>
</glyph>
<glyph name="quotedblleft" format="2">
  <advance width="1156"/>
  <unicode hex="201C"/>
  <outline>
    <contour>
      <point x="1065" y="1183" type="curve" smooth="yes"/>
      <point x="1029" y="1183" type="line" smooth="yes"/>
      <point x="992" y="1183"/>
      <point x="983" y="1199"/>
      <point x="990" y="1223" type="curve" smooth="yes"/>
      <point x="1009" y="1294"/>
      <point x="1103" y="1390"/>
      <point x="1263" y="1443" type="curve" smooth="yes"/>
      <point x="1326" y="1464"/>
      <point x="1351" y="1494"/>
      <point x="1351" y="1525" type="curve" smooth="yes"/>
      <point x="1350" y="1559"/>
      <point x="1320" y="1572"/>
      <point x="1253" y="1556" type="curve" smooth="yes"/>
      <point x="1012" y="1498"/>
      <point x="828" y="1315"/>
      <point x="763" y="1071" type="curve" smooth="yes"/>
      <point x="713" y="885"/>
      <point x="793" y="784"/>
      <point x="945" y="784" type="curve" smooth="yes"/>
      <point x="1074" y="784"/>
      <point x="1204" y="871"/>
      <point x="1238" y="998" type="curve" smooth="yes"/>
      <point x="1269" y="1112"/>
      <point x="1212" y="1183"/>
    </contour>
    <contour>
      <point x="489" y="1183" type="curve" smooth="yes"/>
      <point x="453" y="1183" type="line" smooth="yes"/>
      <point x="416" y="1183"/>
      <point x="407" y="1199"/>
      <point x="414" y="1223" type="curve" smooth="yes"/>
      <point x="433" y="1294"/>
      <point x="527" y="1390"/>
      <point x="687" y="1443" type="curve" smooth="yes"/>
      <point x="750" y="1464"/>
      <point x="775" y="1494"/>
      <point x="775" y="1525" type="curve" smooth="yes"/>
      <point x="774" y="1559"/>
      <point x="744" y="1572"/>
      <point x="677" y="1556" type="curve" smooth="yes"/>
      <point x="436" y="1498"/>
      <point x="252" y="1315"/>
      <point x="187" y="1071" type="curve" smooth="yes"/>
      <point x="137" y="885"/>
      <point x="217" y="784"/>
      <point x="369" y="784" type="curve" smooth="yes"/>
      <point x="498" y="784"/>
      <point x="628" y="871"/>
      <point x="662" y="998" type="curve" smooth="yes"/>
      <point x="693" y="1112"/>
      <point x="636" y="1183"/>
    </contour>
  </outline>
</glyph>
<glyph name="dagger" format="2">
  <advance width="1151"/>
  <unicode hex="2020"/>
  <outline>
    <contour>
      <point x="694" y="1062" type="curve" smooth="yes"/>
      <point x="648" y="889"/>
      <point x="430" y="829"/>
      <point x="374" y="627" type="curve" smooth="yes"/>
      <point x="316" y="399"/>
      <point x="437" y="231"/>
      <point x="305" y="-271" type="curve" smooth="yes"/>
      <point x="295" y="-308"/>
      <point x="313" y="-325"/>
      <point x="361" y="-325" type="curve" smooth="yes"/>
      <point x="404" y="-325"/>
      <point x="433" y="-310"/>
      <point x="443" y="-273" type="curve" smooth="yes"/>
      <point x="574" y="230"/>
      <point x="792" y="395"/>
      <point x="851" y="625" type="curve" smooth="yes"/>
      <point x="908" y="835"/>
      <point x="720" y="891"/>
      <point x="765" y="1062" type="curve" smooth="yes"/>
      <point x="805" y="1217"/>
      <point x="989" y="1304"/>
      <point x="1022" y="1427" type="curve" smooth="yes"/>
      <point x="1045" y="1514"/>
      <point x="1004" y="1568"/>
      <point x="864" y="1568" type="curve" smooth="yes"/>
      <point x="732" y="1568"/>
      <point x="658" y="1520"/>
      <point x="634" y="1428" type="curve" smooth="yes"/>
      <point x="601" y="1305"/>
      <point x="734" y="1217"/>
    </contour>
    <contour>
      <point x="739" y="1094" type="curve" smooth="yes"/>
      <point x="589" y="1094"/>
      <point x="534" y="1253"/>
      <point x="405" y="1253" type="curve" smooth="yes"/>
      <point x="320" y="1253"/>
      <point x="249" y="1197"/>
      <point x="212" y="1061" type="curve" smooth="yes"/>
      <point x="177" y="932"/>
      <point x="210" y="873"/>
      <point x="301" y="873" type="curve" smooth="yes"/>
      <point x="430" y="873"/>
      <point x="571" y="1030"/>
      <point x="721" y="1030" type="curve" smooth="yes"/>
      <point x="868" y="1030"/>
      <point x="925" y="873"/>
      <point x="1054" y="873" type="curve" smooth="yes"/>
      <point x="1145" y="873"/>
      <point x="1211" y="932"/>
      <point x="1246" y="1061" type="curve" smooth="yes"/>
      <point x="1283" y="1197"/>
      <point x="1244" y="1253"/>
      <point x="1158" y="1253" type="curve" smooth="yes"/>
      <point x="1027" y="1253"/>
      <point x="887" y="1094"/>
    </contour>
  </outline>
</glyph>
<glyph name="minute" format="2">
  <advance width="523"/>
  <unicode hex="2032"/>
  <outline>
    <contour>
      <point x="213" y="791" type="curve" smooth="yes"/>
      <point x="246" y="791"/>
      <point x="280" y="812"/>
      <point x="330" y="873" type="curve" smooth="yes"/>
      <point x="649" y="1272" type="line" smooth="yes"/>
      <point x="772" y="1425"/>
      <point x="764" y="1552"/>
      <point x="608" y="1552" type="curve" smooth="yes"/>
      <point x="501" y="1552"/>
      <point x="419" y="1495"/>
      <point x="357" y="1344" type="curve" smooth="yes"/>
      <point x="171" y="880" type="line" smooth="yes"/>
      <point x="145" y="824"/>
      <point x="160" y="791"/>
    </contour>
  </outline>
</glyph>
<glyph name="fraction" format="2">
  <advance width="1031"/>
  <unicode hex="2044"/>
  <outline>
    <contour>
      <point x="726" y="776" type="curve" smooth="yes"/>
      <point x="849" y="882"/>
      <point x="1150" y="1183"/>
      <point x="1221" y="1258" type="curve" smooth="yes"/>
      <point x="1280" y="1320"/>
      <point x="1286" y="1376"/>
      <point x="1231" y="1412" type="curve" smooth="yes"/>
      <point x="1174" y="1449"/>
      <point x="1112" y="1429"/>
      <point x="1053" y="1367" type="curve" smooth="yes"/>
      <point x="981" y="1290"/>
      <point x="743" y="947"/>
      <point x="650" y="824" type="curve" smooth="yes"/>
      <point x="621" y="786"/>
      <point x="618" y="765"/>
      <point x="640" y="751" type="curve" smooth="yes"/>
      <point x="668" y="734"/>
      <point x="687" y="743"/>
    </contour>
    <contour>
      <point x="467" y="630" type="curve" smooth="yes"/>
      <point x="347" y="526"/>
      <point x="45" y="222"/>
      <point x="-27" y="146" type="curve" smooth="yes"/>
      <point x="-86" y="83"/>
      <point x="-92" y="27"/>
      <point x="-38" y="-7" type="curve" smooth="yes"/>
      <point x="18" y="-43"/>
      <point x="82" y="-25"/>
      <point x="140" y="37" type="curve" smooth="yes"/>
      <point x="212" y="113"/>
      <point x="451" y="458"/>
      <point x="543" y="582" type="curve" smooth="yes"/>
      <point x="573" y="619"/>
      <point x="578" y="641"/>
      <point x="555" y="657" type="curve" smooth="yes"/>
      <point x="528" y="673"/>
      <point x="506" y="663"/>
    </contour>
  </outline>
</glyph>
<glyph name="commercialminussign" format="2">
  <advance width="1187"/>
  <unicode hex="2052"/>
  <outline>
    <contour>
      <point x="668" y="678" type="curve" smooth="yes"/>
      <point x="777" y="828"/>
      <point x="1042" y="1173"/>
      <point x="1147" y="1318" type="curve" smooth="yes"/>
      <point x="1181" y="1361"/>
      <point x="1180" y="1395"/>
      <point x="1141" y="1413" type="curve" smooth="yes"/>
      <point x="1103" y="1431"/>
      <point x="1064" y="1416"/>
      <point x="1029" y="1374" type="curve" smooth="yes"/>
      <point x="931" y="1238"/>
      <point x="696" y="872"/>
      <point x="582" y="718" type="curve" smooth="yes"/>
      <point x="469" y="563"/>
      <point x="197" y="230"/>
      <point x="96" y="92" type="curve" smooth="yes"/>
      <point x="62" y="49"/>
      <point x="63" y="17"/>
      <point x="101" y="-3" type="curve" smooth="yes"/>
      <point x="141" y="-21"/>
      <point x="179" y="-6"/>
      <point x="214" y="37" type="curve" smooth="yes"/>
      <point x="319" y="185"/>
      <point x="558" y="528"/>
    </contour>
    <component base="period" xScale="0.8326800000000001" yScale="0.8391600000000001" xOffset="581" yOffset="54"/>
    <component base="period" xScale="0.8326800000000001" yScale="0.8391600000000001" xOffset="202" yOffset="1025"/>
  </outline>
</glyph>
<glyph name="franc" format="2">
  <advance width="1277"/>
  <unicode hex="20A3"/>
  <outline>
    <contour>
      <point x="269" y="1322" type="curve" smooth="yes"/>
      <point x="269" y="1293"/>
      <point x="285" y="1278"/>
      <point x="314" y="1263" type="curve" smooth="yes"/>
      <point x="349" y="1248" type="line" smooth="yes"/>
      <point x="382" y="1234"/>
      <point x="382" y="1210"/>
      <point x="372" y="1167" type="curve" smooth="yes"/>
      <point x="296" y="854"/>
      <point x="215" y="539"/>
      <point x="123" y="224" type="curve" smooth="yes"/>
      <point x="111" y="185"/>
      <point x="97" y="166"/>
      <point x="68" y="155" type="curve" smooth="yes"/>
      <point x="28" y="142" type="line" smooth="yes"/>
      <point x="-6" y="127"/>
      <point x="-30" y="100"/>
      <point x="-30" y="66" type="curve" smooth="yes"/>
      <point x="-31" y="28"/>
      <point x="-14" y="0"/>
      <point x="48" y="0" type="curve" smooth="yes"/>
      <point x="619" y="0" type="line" smooth="yes"/>
      <point x="678" y="0"/>
      <point x="712" y="32"/>
      <point x="712" y="76" type="curve" smooth="yes"/>
      <point x="712" y="106"/>
      <point x="700" y="130"/>
      <point x="667" y="137" type="curve" smooth="yes"/>
      <point x="609" y="147" type="line" smooth="yes"/>
      <point x="559" y="158"/>
      <point x="559" y="181"/>
      <point x="572" y="232" type="curve" smooth="yes"/>
      <point x="662" y="578"/>
      <point x="752" y="926"/>
      <point x="848" y="1274" type="curve"/>
      <point x="932" y="1274" type="line" smooth="yes"/>
      <point x="1047" y="1274"/>
      <point x="1114" y="1216"/>
      <point x="1178" y="1022" type="curve" smooth="yes"/>
      <point x="1202" y="965"/>
      <point x="1235" y="942"/>
      <point x="1285" y="950" type="curve" smooth="yes"/>
      <point x="1329" y="957"/>
      <point x="1349" y="989"/>
      <point x="1342" y="1033" type="curve" smooth="yes"/>
      <point x="1316" y="1351" type="line" smooth="yes"/>
      <point x="1308" y="1406"/>
      <point x="1277" y="1431"/>
      <point x="1232" y="1431" type="curve" smooth="yes"/>
      <point x="1181" y="1431"/>
      <point x="1127" y="1400"/>
      <point x="1041" y="1400" type="curve" smooth="yes"/>
      <point x="361" y="1400" type="line" smooth="yes"/>
      <point x="302" y="1400"/>
      <point x="270" y="1369"/>
    </contour>
    <contour>
      <point x="524" y="809" type="line"/>
      <point x="485" y="676" type="line"/>
      <point x="1017" y="676" type="line" smooth="yes"/>
      <point x="1058" y="676"/>
      <point x="1084" y="693"/>
      <point x="1099" y="745" type="curve" smooth="yes"/>
      <point x="1111" y="789"/>
      <point x="1095" y="809"/>
      <point x="1050" y="809" type="curve" smooth="yes"/>
    </contour>
    <contour>
      <point x="25" y="477" type="curve" smooth="yes"/>
      <point x="18" y="450"/>
      <point x="28" y="433"/>
      <point x="53" y="433" type="curve" smooth="yes"/>
      <point x="930" y="433" type="line" smooth="yes"/>
      <point x="957" y="433"/>
      <point x="979" y="450"/>
      <point x="987" y="477" type="curve" smooth="yes"/>
      <point x="994" y="501"/>
      <point x="982" y="520"/>
      <point x="955" y="520" type="curve" smooth="yes"/>
      <point x="81" y="520" type="line" smooth="yes"/>
      <point x="57" y="520"/>
      <point x="33" y="501"/>
    </contour>
  </outline>
</glyph>
<glyph name="naira" format="2">
  <advance width="1476"/>
  <unicode hex="20A6"/>
  <outline>
    <contour>
      <point x="69" y="0" type="curve" smooth="yes"/>
      <point x="406" y="0" type="line" smooth="yes"/>
      <point x="451" y="0"/>
      <point x="483" y="24"/>
      <point x="483" y="68" type="curve" smooth="yes"/>
      <point x="483" y="98"/>
      <point x="464" y="119"/>
      <point x="439" y="133" type="curve" smooth="yes"/>
      <point x="416" y="144" type="line" smooth="yes"/>
      <point x="342" y="180"/>
      <point x="337" y="248"/>
      <point x="359" y="334" type="curve" smooth="yes"/>
      <point x="575" y="1153" type="line"/>
      <point x="420" y="1144" type="line"/>
      <point x="526" y="943"/>
      <point x="720" y="355"/>
      <point x="745" y="264" type="curve" smooth="yes"/>
      <point x="762" y="203"/>
      <point x="792" y="152"/>
      <point x="790" y="94" type="curve" smooth="yes"/>
      <point x="788" y="33"/>
      <point x="819" y="0"/>
      <point x="880" y="0" type="curve" smooth="yes"/>
      <point x="1218" y="0" type="line" smooth="yes"/>
      <point x="1289" y="0"/>
      <point x="1317" y="62"/>
      <point x="1285" y="139" type="curve" smooth="yes"/>
      <point x="1234" y="267" type="line" smooth="yes"/>
      <point x="1214" y="311"/>
      <point x="1228" y="351"/>
      <point x="1243" y="402" type="curve" smooth="yes"/>
      <point x="1410" y="1052" type="line" smooth="yes"/>
      <point x="1438" y="1157"/>
      <point x="1474" y="1219"/>
      <point x="1528" y="1242" type="curve" smooth="yes"/>
      <point x="1565" y="1258" type="line" smooth="yes"/>
      <point x="1600" y="1275"/>
      <point x="1621" y="1302"/>
      <point x="1622" y="1333" type="curve" smooth="yes"/>
      <point x="1622" y="1371"/>
      <point x="1601" y="1400"/>
      <point x="1544" y="1400" type="curve" smooth="yes"/>
      <point x="1222" y="1400" type="line" smooth="yes"/>
      <point x="1175" y="1400"/>
      <point x="1145" y="1370"/>
      <point x="1145" y="1335" type="curve" smooth="yes"/>
      <point x="1145" y="1300"/>
      <point x="1161" y="1280"/>
      <point x="1191" y="1262" type="curve" smooth="yes"/>
      <point x="1209" y="1252" type="line" smooth="yes"/>
      <point x="1279" y="1215"/>
      <point x="1270" y="1151"/>
      <point x="1248" y="1067" type="curve" smooth="yes"/>
      <point x="1038" y="267" type="line"/>
      <point x="1197" y="344" type="line"/>
      <point x="1114" y="498"/>
      <point x="934" y="1117"/>
      <point x="847" y="1294" type="curve" smooth="yes"/>
      <point x="815" y="1363"/>
      <point x="771" y="1400"/>
      <point x="678" y="1400" type="curve" smooth="yes"/>
      <point x="378" y="1400" type="line" smooth="yes"/>
      <point x="279" y="1400"/>
      <point x="267" y="1313"/>
      <point x="323" y="1253" type="curve" smooth="yes"/>
      <point x="364" y="1163" type="line" smooth="yes"/>
      <point x="395" y="1129"/>
      <point x="394" y="1066"/>
      <point x="374" y="1002" type="curve" smooth="yes"/>
      <point x="203" y="348" type="line" smooth="yes"/>
      <point x="176" y="248"/>
      <point x="139" y="180"/>
      <point x="89" y="160" type="curve" smooth="yes"/>
      <point x="52" y="143" type="line" smooth="yes"/>
      <point x="14" y="125"/>
      <point x="-8" y="97"/>
      <point x="-9" y="64" type="curve" smooth="yes"/>
      <point x="-9" y="28"/>
      <point x="12" y="0"/>
    </contour>
    <contour>
      <point x="81" y="461" type="curve" smooth="yes"/>
      <point x="787" y="461" type="line"/>
      <point x="771" y="546" type="line"/>
      <point x="108" y="546" type="line" smooth="yes"/>
      <point x="86" y="546"/>
      <point x="62" y="527"/>
      <point x="55" y="503" type="curve" smooth="yes"/>
      <point x="47" y="477"/>
      <point x="56" y="461"/>
    </contour>
    <contour>
      <point x="162" y="844" type="curve" smooth="yes"/>
      <point x="389" y="844" type="line"/>
      <point x="411" y="929" type="line"/>
      <point x="187" y="929" type="line" smooth="yes"/>
      <point x="162" y="929"/>
      <point x="139" y="912"/>
      <point x="131" y="886" type="curve" smooth="yes"/>
      <point x="125" y="862"/>
      <point x="136" y="844"/>
    </contour>
    <contour>
      <point x="1232" y="461" type="line"/>
      <point x="1391" y="461" type="line" smooth="yes"/>
      <point x="1417" y="461"/>
      <point x="1439" y="477"/>
      <point x="1446" y="503" type="curve" smooth="yes"/>
      <point x="1454" y="527"/>
      <point x="1442" y="546"/>
      <point x="1416" y="546" type="curve" smooth="yes"/>
      <point x="1253" y="546" type="line"/>
    </contour>
    <contour>
      <point x="905" y="844" type="line"/>
      <point x="1482" y="844" type="line" smooth="yes"/>
      <point x="1505" y="844"/>
      <point x="1529" y="862"/>
      <point x="1536" y="886" type="curve" smooth="yes"/>
      <point x="1543" y="912"/>
      <point x="1535" y="929"/>
      <point x="1510" y="929" type="curve" smooth="yes"/>
      <point x="889" y="929" type="line"/>
    </contour>
  </outline>
</glyph>
<glyph name="dong" format="2">
  <advance width="1290"/>
  <unicode hex="20AB"/>
  <outline>
    <contour>
      <point x="-11" y="-224" type="curve" smooth="yes"/>
      <point x="-21" y="-255"/>
      <point x="-11" y="-275"/>
      <point x="16" y="-275" type="curve" smooth="yes"/>
      <point x="1078" y="-275" type="line" smooth="yes"/>
      <point x="1105" y="-275"/>
      <point x="1130" y="-255"/>
      <point x="1139" y="-224" type="curve" smooth="yes"/>
      <point x="1147" y="-194"/>
      <point x="1136" y="-173"/>
      <point x="1107" y="-173" type="curve" smooth="yes"/>
      <point x="48" y="-173" type="line" smooth="yes"/>
      <point x="22" y="-173"/>
      <point x="-2" y="-194"/>
    </contour>
    <component base="dcroat" xOffset="29"/>
  </outline>
</glyph>
<glyph name="Euro" format="2">
  <advance width="1465"/>
  <unicode hex="20AC"/>
  <outline>
    <contour>
      <point x="1334" y="349" type="curve" smooth="yes"/>
      <point x="1379" y="426"/>
      <point x="1358" y="463"/>
      <point x="1317" y="475" type="curve" smooth="yes"/>
      <point x="1286" y="484"/>
      <point x="1255" y="471"/>
      <point x="1208" y="421" type="curve" smooth="yes"/>
      <point x="1124" y="285"/>
      <point x="1010" y="191"/>
      <point x="875" y="191" type="curve" smooth="yes"/>
      <point x="704" y="191"/>
      <point x="639" y="345"/>
      <point x="729" y="728" type="curve" smooth="yes"/>
      <point x="823" y="1130"/>
      <point x="968" y="1307"/>
      <point x="1137" y="1307" type="curve" smooth="yes"/>
      <point x="1251" y="1307"/>
      <point x="1310" y="1197"/>
      <point x="1278" y="1003" type="curve" smooth="yes"/>
      <point x="1277" y="952"/>
      <point x="1293" y="928"/>
      <point x="1347" y="927" type="curve" smooth="yes"/>
      <point x="1386" y="927"/>
      <point x="1410" y="958"/>
      <point x="1437" y="1004" type="curve" smooth="yes"/>
      <point x="1547" y="1219" type="line" smooth="yes"/>
      <point x="1572" y="1260"/>
      <point x="1554" y="1301"/>
      <point x="1508" y="1328" type="curve" smooth="yes"/>
      <point x="1447" y="1378"/>
      <point x="1331" y="1427"/>
      <point x="1177" y="1427" type="curve" smooth="yes"/>
      <point x="693" y="1427"/>
      <point x="339" y="1125"/>
      <point x="235" y="718" type="curve" smooth="yes"/>
      <point x="118" y="260"/>
      <point x="321" y="-26"/>
      <point x="732" y="-26" type="curve" smooth="yes"/>
      <point x="1010" y="-26"/>
      <point x="1241" y="144"/>
    </contour>
    <contour>
      <point x="115" y="811" type="curve" smooth="yes"/>
      <point x="107" y="784"/>
      <point x="117" y="768"/>
      <point x="144" y="768" type="curve" smooth="yes"/>
      <point x="1124" y="768" type="line" smooth="yes"/>
      <point x="1152" y="768"/>
      <point x="1174" y="784"/>
      <point x="1183" y="811" type="curve" smooth="yes"/>
      <point x="1190" y="836"/>
      <point x="1177" y="854"/>
      <point x="1150" y="854" type="curve" smooth="yes"/>
      <point x="171" y="854" type="line" smooth="yes"/>
      <point x="146" y="854"/>
      <point x="122" y="836"/>
    </contour>
    <contour>
      <point x="60" y="583" type="curve" smooth="yes"/>
      <point x="52" y="556"/>
      <point x="62" y="540"/>
      <point x="89" y="540" type="curve" smooth="yes"/>
      <point x="995" y="540" type="line" smooth="yes"/>
      <point x="1022" y="540"/>
      <point x="1045" y="556"/>
      <point x="1053" y="583" type="curve" smooth="yes"/>
      <point x="1060" y="609"/>
      <point x="1048" y="627"/>
      <point x="1020" y="627" type="curve" smooth="yes"/>
      <point x="116" y="627" type="line" smooth="yes"/>
      <point x="92" y="627"/>
      <point x="68" y="609"/>
    </contour>
  </outline>
</glyph>
<glyph name="guarani" format="2">
  <advance width="1495"/>
  <unicode hex="20B2"/>
  <outline>
    <contour>
      <point x="1243" y="69" type="curve" smooth="yes"/>
      <point x="1345" y="494" type="line" smooth="yes"/>
      <point x="1353" y="526"/>
      <point x="1369" y="538"/>
      <point x="1392" y="547" type="curve" smooth="yes"/>
      <point x="1430" y="562" type="line" smooth="yes"/>
      <point x="1469" y="578"/>
      <point x="1502" y="603"/>
      <point x="1502" y="645" type="curve" smooth="yes"/>
      <point x="1503" y="672"/>
      <point x="1487" y="694"/>
      <point x="1423" y="694" type="curve" smooth="yes"/>
      <point x="1181" y="694" type="line" smooth="yes"/>
      <point x="1093" y="694"/>
      <point x="1046" y="652"/>
      <point x="1022" y="554" type="curve" smooth="yes"/>
      <point x="965" y="296" type="line" smooth="yes"/>
      <point x="936" y="174"/>
      <point x="888" y="112"/>
      <point x="765" y="112" type="curve" smooth="yes"/>
      <point x="621" y="112"/>
      <point x="556" y="270"/>
      <point x="588" y="568" type="curve" smooth="yes"/>
      <point x="620" y="1072"/>
      <point x="835" y="1299"/>
      <point x="1033" y="1299" type="curve" smooth="yes"/>
      <point x="1178" y="1299"/>
      <point x="1272" y="1200"/>
      <point x="1265" y="987" type="curve" smooth="yes"/>
      <point x="1265" y="915"/>
      <point x="1286" y="878"/>
      <point x="1347" y="878" type="curve" smooth="yes"/>
      <point x="1386" y="878"/>
      <point x="1414" y="900"/>
      <point x="1422" y="930" type="curve" smooth="yes"/>
      <point x="1523" y="1326" type="line" smooth="yes"/>
      <point x="1537" y="1376"/>
      <point x="1515" y="1413"/>
      <point x="1465" y="1413" type="curve" smooth="yes"/>
      <point x="1405" y="1413"/>
      <point x="1333" y="1348"/>
      <point x="1285" y="1348" type="curve" smooth="yes"/>
      <point x="1235" y="1348"/>
      <point x="1159" y="1406"/>
      <point x="1007" y="1406" type="curve" smooth="yes"/>
      <point x="554" y="1406"/>
      <point x="151" y="1099"/>
      <point x="117" y="574" type="curve" smooth="yes"/>
      <point x="86" y="218"/>
      <point x="277" y="-7"/>
      <point x="608" y="-7" type="curve" smooth="yes"/>
      <point x="788" y="-7"/>
      <point x="889" y="75"/>
      <point x="934" y="75" type="curve" smooth="yes"/>
      <point x="993" y="75"/>
      <point x="1057" y="-10"/>
      <point x="1136" y="-10" type="curve" smooth="yes"/>
      <point x="1193" y="-10"/>
      <point x="1229" y="15"/>
    </contour>
    <contour>
      <point x="907" y="707" type="curve" smooth="yes"/>
      <point x="1018" y="1124"/>
      <point x="1111" y="1348"/>
      <point x="1148" y="1492" type="curve" smooth="yes"/>
      <point x="1163" y="1545"/>
      <point x="1146" y="1572"/>
      <point x="1100" y="1572" type="curve" smooth="yes"/>
      <point x="1056" y="1572"/>
      <point x="1028" y="1546"/>
      <point x="1015" y="1499" type="curve" smooth="yes"/>
      <point x="975" y="1352"/>
      <point x="942" y="1126"/>
      <point x="832" y="707" type="curve" smooth="yes"/>
      <point x="719" y="283"/>
      <point x="627" y="54"/>
      <point x="588" y="-90" type="curve" smooth="yes"/>
      <point x="573" y="-142"/>
      <point x="595" y="-166"/>
      <point x="630" y="-166" type="curve" smooth="yes"/>
      <point x="674" y="-166"/>
      <point x="709" y="-140"/>
      <point x="723" y="-93" type="curve" smooth="yes"/>
      <point x="763" y="55"/>
      <point x="795" y="284"/>
    </contour>
  </outline>
</glyph>
<glyph name="cedi" format="2">
  <advance width="1351"/>
  <unicode hex="20B5"/>
  <outline>
    <contour>
      <point x="1235" y="376" type="curve" smooth="yes"/>
      <point x="1260" y="424"/>
      <point x="1254" y="452"/>
      <point x="1227" y="467" type="curve" smooth="yes"/>
      <point x="1200" y="481"/>
      <point x="1168" y="473"/>
      <point x="1119" y="423" type="curve" smooth="yes"/>
      <point x="1014" y="276"/>
      <point x="887" y="178"/>
      <point x="758" y="178" type="curve" smooth="yes"/>
      <point x="597" y="178"/>
      <point x="515" y="288"/>
      <point x="549" y="573" type="curve" smooth="yes"/>
      <point x="583" y="1041"/>
      <point x="780" y="1300"/>
      <point x="994" y="1300" type="curve" smooth="yes"/>
      <point x="1136" y="1300"/>
      <point x="1213" y="1194"/>
      <point x="1198" y="988" type="curve" smooth="yes"/>
      <point x="1198" y="914"/>
      <point x="1220" y="879"/>
      <point x="1280" y="878" type="curve" smooth="yes"/>
      <point x="1319" y="878"/>
      <point x="1347" y="901"/>
      <point x="1355" y="931" type="curve" smooth="yes"/>
      <point x="1457" y="1327" type="line" smooth="yes"/>
      <point x="1471" y="1377"/>
      <point x="1449" y="1413"/>
      <point x="1398" y="1413" type="curve" smooth="yes"/>
      <point x="1340" y="1413"/>
      <point x="1269" y="1347"/>
      <point x="1221" y="1347" type="curve" smooth="yes"/>
      <point x="1176" y="1347"/>
      <point x="1108" y="1407"/>
      <point x="973" y="1407" type="curve" smooth="yes"/>
      <point x="507" y="1407"/>
      <point x="134" y="1051"/>
      <point x="100" y="571" type="curve" smooth="yes"/>
      <point x="70" y="221"/>
      <point x="252" y="-6"/>
      <point x="608" y="-6" type="curve" smooth="yes"/>
      <point x="907" y="-6"/>
      <point x="1148" y="171"/>
    </contour>
    <contour>
      <point x="889" y="718" type="curve" smooth="yes"/>
      <point x="999" y="1133"/>
      <point x="1091" y="1356"/>
      <point x="1129" y="1499" type="curve" smooth="yes"/>
      <point x="1144" y="1553"/>
      <point x="1127" y="1580"/>
      <point x="1081" y="1580" type="curve" smooth="yes"/>
      <point x="1038" y="1580"/>
      <point x="1009" y="1553"/>
      <point x="996" y="1507" type="curve" smooth="yes"/>
      <point x="956" y="1360"/>
      <point x="924" y="1135"/>
      <point x="814" y="718" type="curve" smooth="yes"/>
      <point x="699" y="287"/>
      <point x="606" y="56"/>
      <point x="567" y="-91" type="curve" smooth="yes"/>
      <point x="553" y="-143"/>
      <point x="574" y="-167"/>
      <point x="609" y="-167" type="curve" smooth="yes"/>
      <point x="653" y="-167"/>
      <point x="688" y="-141"/>
      <point x="702" y="-94" type="curve" smooth="yes"/>
      <point x="742" y="56"/>
      <point x="775" y="289"/>
    </contour>
  </outline>
</glyph>
